<?xml version="1.0" encoding="UTF-8" standalone="no"?>
<!-- Created with Inkscape (http://www.inkscape.org/) -->

<svg
   width="210mm"
   height="297mm"
   viewBox="0 0 210 297"
   version="1.1"
   id="svg613"
   inkscape:version="1.4.2 (2aeb623e1d, 2025-05-12)"
   sodipodi:docname="camara_espana.svg"
   xmlns:inkscape="http://www.inkscape.org/namespaces/inkscape"
   xmlns:sodipodi="http://sodipodi.sourceforge.net/DTD/sodipodi-0.dtd"
   xmlns="http://www.w3.org/2000/svg"
   xmlns:svg="http://www.w3.org/2000/svg">
  <sodipodi:namedview
     id="namedview615"
     pagecolor="#ffffff"
     bordercolor="#000000"
     borderopacity="0.25"
     inkscape:showpageshadow="2"
     inkscape:pageopacity="0.0"
     inkscape:pagecheckerboard="0"
     inkscape:deskcolor="#d1d1d1"
     inkscape:document-units="mm"
     showgrid="false"
     inkscape:zoom="3.659624"
     inkscape:cx="537.07703"
     inkscape:cy="617.95966"
     inkscape:window-width="3774"
     inkscape:window-height="1531"
     inkscape:window-x="66"
     inkscape:window-y="32"
     inkscape:window-maximized="1"
     inkscape:current-layer="layer1" />
  <defs
     id="defs610">
    <clipPath
       clipPathUnits="userSpaceOnUse"
       id="clipPath206">
      <path
         d="M 32768,32768 H -32768 V -32768 H 32768 Z"
         id="path204" />
    </clipPath>
    <clipPath
       clipPathUnits="userSpaceOnUse"
       id="clipPath220">
      <path
         d="M 32768,32768 H -32768 V -32768 H 32768 Z"
         id="path218" />
    </clipPath>
    <clipPath
       clipPathUnits="userSpaceOnUse"
       id="clipPath1206">
      <g
         id="g1210"
         transform="matrix(2.8346458,0,0,-2.8346457,-350.41339,437.99337)">
        <path
           d="M -36.269156,183.27122 H 173.73098 V 35.271064 H -36.269156 Z"
           id="path1208"
           style="stroke-width:0.352778" />
      </g>
    </clipPath>
    <clipPath
       clipPathUnits="userSpaceOnUse"
       id="clipPath1212">
      <g
         id="g1216"
         transform="matrix(2.8346458,0,0,-2.8346457,-446.60069,452.22936)">
        <path
           d="M -36.269156,183.27122 H 173.73098 V 35.271064 H -36.269156 Z"
           id="path1214"
           style="stroke-width:0.352778" />
      </g>
    </clipPath>
    <clipPath
       clipPathUnits="userSpaceOnUse"
       id="clipPath1218">
      <g
         id="g1222"
         transform="matrix(2.8346458,0,0,-2.8346457,-427.04189,449.61267)">
        <path
           d="M -36.269156,183.27122 H 173.73098 V 35.271064 H -36.269156 Z"
           id="path1220"
           style="stroke-width:0.352778" />
      </g>
    </clipPath>
    <clipPath
       clipPathUnits="userSpaceOnUse"
       id="clipPath1224">
      <g
         id="g1228"
         transform="matrix(2.8346458,0,0,-2.8346457,-412.02149,452.22936)">
        <path
           d="M -36.269156,183.27122 H 173.73098 V 35.271064 H -36.269156 Z"
           id="path1226"
           style="stroke-width:0.352778" />
      </g>
    </clipPath>
    <clipPath
       clipPathUnits="userSpaceOnUse"
       id="clipPath1230">
      <g
         id="g1234"
         transform="matrix(2.8346458,0,0,-2.8346457,-378.14518,449.03588)">
        <path
           d="M -36.269156,183.27122 H 173.73098 V 35.271064 H -36.269156 Z"
           id="path1232"
           style="stroke-width:0.352778" />
      </g>
    </clipPath>
    <clipPath
       clipPathUnits="userSpaceOnUse"
       id="clipPath1236">
      <g
         id="g1240"
         transform="matrix(2.8346458,0,0,-2.8346457,-363.5939,452.22936)">
        <path
           d="M -36.269156,183.27122 H 173.73098 V 35.271064 H -36.269156 Z"
           id="path1238"
           style="stroke-width:0.352778" />
      </g>
    </clipPath>
    <clipPath
       clipPathUnits="userSpaceOnUse"
       id="clipPath1242">
      <g
         id="g1246"
         transform="matrix(2.8346458,0,0,-2.8346457,-351.50668,456.34325)">
        <path
           d="M -36.269156,183.27122 H 173.73098 V 35.271064 H -36.269156 Z"
           id="path1244"
           style="stroke-width:0.352778" />
      </g>
    </clipPath>
    <clipPath
       clipPathUnits="userSpaceOnUse"
       id="clipPath1248">
      <g
         id="g1252"
         transform="matrix(2.8346458,0,0,-2.8346457,-452.0122,467.34947)">
        <path
           d="M -36.269156,183.27122 H 173.73098 V 35.271064 H -36.269156 Z"
           id="path1250"
           style="stroke-width:0.352778" />
      </g>
    </clipPath>
    <clipPath
       clipPathUnits="userSpaceOnUse"
       id="clipPath1254">
      <g
         id="g1258"
         transform="matrix(2.8346458,0,0,-2.8346457,-445.90509,466.61856)">
        <path
           d="M -36.269156,183.27122 H 173.73098 V 35.271064 H -36.269156 Z"
           id="path1256"
           style="stroke-width:0.352778" />
      </g>
    </clipPath>
    <clipPath
       clipPathUnits="userSpaceOnUse"
       id="clipPath1260">
      <g
         id="g1264"
         transform="matrix(2.8346458,0,0,-2.8346457,-443.483,467.34947)">
        <path
           d="M -36.269156,183.27122 H 173.73098 V 35.271064 H -36.269156 Z"
           id="path1262"
           style="stroke-width:0.352778" />
      </g>
    </clipPath>
    <clipPath
       clipPathUnits="userSpaceOnUse"
       id="clipPath1266">
      <g
         id="g1270"
         transform="matrix(2.8346458,0,0,-2.8346457,-438.1609,471.38618)">
        <path
           d="M -36.269156,183.27122 H 173.73098 V 35.271064 H -36.269156 Z"
           id="path1268"
           style="stroke-width:0.352778" />
      </g>
    </clipPath>
    <clipPath
       clipPathUnits="userSpaceOnUse"
       id="clipPath1272">
      <g
         id="g1276"
         transform="matrix(2.8346458,0,0,-2.8346457,-435.97808,467.26906)">
        <path
           d="M -36.269156,183.27122 H 173.73098 V 35.271064 H -36.269156 Z"
           id="path1274"
           style="stroke-width:0.352778" />
      </g>
    </clipPath>
    <clipPath
       clipPathUnits="userSpaceOnUse"
       id="clipPath1278">
      <g
         id="g1282"
         transform="matrix(2.8346458,0,0,-2.8346457,-429.9525,466.69977)">
        <path
           d="M -36.269156,183.27122 H 173.73098 V 35.271064 H -36.269156 Z"
           id="path1280"
           style="stroke-width:0.352778" />
      </g>
    </clipPath>
    <clipPath
       clipPathUnits="userSpaceOnUse"
       id="clipPath1284">
      <g
         id="g1288"
         transform="matrix(2.8346458,0,0,-2.8346457,-423.34888,467.73876)">
        <path
           d="M -36.269156,183.27122 H 173.73098 V 35.271064 H -36.269156 Z"
           id="path1286"
           style="stroke-width:0.352778" />
      </g>
    </clipPath>
    <clipPath
       clipPathUnits="userSpaceOnUse"
       id="clipPath1290">
      <g
         id="g1294"
         transform="matrix(2.8346458,0,0,-2.8346457,-421.38989,469.33098)">
        <path
           d="M -36.269156,183.27122 H 173.73098 V 35.271064 H -36.269156 Z"
           id="path1292"
           style="stroke-width:0.352778" />
      </g>
    </clipPath>
    <clipPath
       clipPathUnits="userSpaceOnUse"
       id="clipPath1296">
      <g
         id="g1300"
         transform="matrix(2.8346458,0,0,-2.8346457,-415.364,467.93438)">
        <path
           d="M -36.269156,183.27122 H 173.73098 V 35.271064 H -36.269156 Z"
           id="path1298"
           style="stroke-width:0.352778" />
      </g>
    </clipPath>
    <clipPath
       clipPathUnits="userSpaceOnUse"
       id="clipPath1302">
      <g
         id="g1306"
         transform="matrix(2.8346458,0,0,-2.8346457,-411.00088,469.33117)">
        <path
           d="M -36.269156,183.27122 H 173.73098 V 35.271064 H -36.269156 Z"
           id="path1304"
           style="stroke-width:0.352778" />
      </g>
    </clipPath>
    <clipPath
       clipPathUnits="userSpaceOnUse"
       id="clipPath1308">
      <g
         id="g1312"
         transform="matrix(2.8346458,0,0,-2.8346457,-409.20678,468.45467)">
        <path
           d="M -36.269156,183.27122 H 173.73098 V 35.271064 H -36.269156 Z"
           id="path1310"
           style="stroke-width:0.352778" />
      </g>
    </clipPath>
    <clipPath
       clipPathUnits="userSpaceOnUse"
       id="clipPath1314">
      <g
         id="g1318"
         transform="matrix(2.8346458,0,0,-2.8346457,-403.61238,466.61856)">
        <path
           d="M -36.269156,183.27122 H 173.73098 V 35.271064 H -36.269156 Z"
           id="path1316"
           style="stroke-width:0.352778" />
      </g>
    </clipPath>
    <clipPath
       clipPathUnits="userSpaceOnUse"
       id="clipPath1320">
      <g
         id="g1324"
         transform="matrix(2.8346458,0,0,-2.8346457,-400.48848,467.73876)">
        <path
           d="M -36.269156,183.27122 H 173.73098 V 35.271064 H -36.269156 Z"
           id="path1322"
           style="stroke-width:0.352778" />
      </g>
    </clipPath>
    <clipPath
       clipPathUnits="userSpaceOnUse"
       id="clipPath1326">
      <g
         id="g1330"
         transform="matrix(2.8346458,0,0,-2.8346457,-393.4218,466.61856)">
        <path
           d="M -36.269156,183.27122 H 173.73098 V 35.271064 H -36.269156 Z"
           id="path1328"
           style="stroke-width:0.352778" />
      </g>
    </clipPath>
    <clipPath
       clipPathUnits="userSpaceOnUse"
       id="clipPath1332">
      <g
         id="g1336"
         transform="matrix(2.8346458,0,0,-2.8346457,-392.19658,467.93438)">
        <path
           d="M -36.269156,183.27122 H 173.73098 V 35.271064 H -36.269156 Z"
           id="path1334"
           style="stroke-width:0.352778" />
      </g>
    </clipPath>
    <clipPath
       clipPathUnits="userSpaceOnUse"
       id="clipPath1338">
      <g
         id="g1342"
         transform="matrix(2.8346458,0,0,-2.8346457,-387.97358,465.73237)">
        <path
           d="M -36.269156,183.27122 H 173.73098 V 35.271064 H -36.269156 Z"
           id="path1340"
           style="stroke-width:0.352778" />
      </g>
    </clipPath>
    <clipPath
       clipPathUnits="userSpaceOnUse"
       id="clipPath1344">
      <g
         id="g1348"
         transform="matrix(2.8346458,0,0,-2.8346457,-379.25588,467.73876)">
        <path
           d="M -36.269156,183.27122 H 173.73098 V 35.271064 H -36.269156 Z"
           id="path1346"
           style="stroke-width:0.352778" />
      </g>
    </clipPath>
    <clipPath
       clipPathUnits="userSpaceOnUse"
       id="clipPath1350">
      <g
         id="g1354"
         transform="matrix(2.8346458,0,0,-2.8346457,-377.29569,469.33098)">
        <path
           d="M -36.269156,183.27122 H 173.73098 V 35.271064 H -36.269156 Z"
           id="path1352"
           style="stroke-width:0.352778" />
      </g>
    </clipPath>
  </defs>
  <g
     inkscape:label="Layer 1"
     inkscape:groupmode="layer"
     id="layer1">
    <g
       id="g200"
       transform="matrix(1.0601488,0,0,-1.0601489,-385.01316,230.08765)">
      <g
         id="g202" />
      <g
         id="g212">
        <g
           clip-path="url(#clipPath206)"
           id="g210">
          <g
             id="g208" />
        </g>
      </g>
    </g>
    <g
       id="g214"
       transform="matrix(1.0601488,0,0,-1.0601489,-385.01316,230.08765)">
      <g
         id="g216" />
      <g
         id="g226">
        <g
           clip-path="url(#clipPath220)"
           opacity="0.899994"
           id="g224">
          <g
             id="g222" />
        </g>
      </g>
    </g>
    <g
       id="g228"
       transform="matrix(1.0601488,0,0,-1.0601489,123.97054,176.89151)"
       clip-path="url(#clipPath1350)"
       style="fill:#ffffff">
      <path
         d="M 0,0 H 0.545 V -0.203 H 0.09 c -0.073,0 -0.429,0 -0.9,-0.049 v 0.649 h -0.016 c -0.091,-0.202 -0.372,-0.698 -1.033,-0.698 -0.785,0 -1.437,0.804 -1.437,1.624 0,0.894 0.694,1.69 1.536,1.69 0.587,0 0.834,-0.374 0.934,-0.56 h 0.016 v 2.461 h -0.735 v 0.203 h 0.735 c 0.017,0 0.405,0 0.81,0.056 z m -1.801,-0.097 c 0.322,0 0.62,0.178 0.792,0.454 0.216,0.341 0.224,0.576 0.224,1.226 0,1.162 -0.685,1.251 -0.95,1.251 -0.62,0 -0.661,-0.413 -0.661,-1.632 0,-0.869 0.057,-1.299 0.595,-1.299"
         style="fill:#ffffff;fill-opacity:1;fill-rule:nonzero;stroke:none"
         id="path230" />
    </g>
    <g
       id="g232"
       transform="matrix(1.0601488,0,0,-1.0601489,126.04863,175.20352)"
       clip-path="url(#clipPath1344)"
       style="fill:#ffffff">
      <path
         d="m 0,0 c -0.017,-1.154 -0.033,-1.714 0.71,-1.714 0.603,0 0.983,0.398 1.157,0.974 H 2.04 C 1.826,-1.755 1.033,-1.893 0.71,-1.893 c -0.818,0 -1.611,0.65 -1.611,1.664 0,0.976 0.768,1.649 1.561,1.649 0.446,0 0.86,-0.211 1.107,-0.56 C 1.991,0.544 2.024,0.259 2.04,0 Z M 1.173,0.178 C 1.189,0.324 1.206,0.447 1.206,0.608 1.206,0.974 1.049,1.242 0.62,1.242 0.223,1.242 0,1.015 0,0.673 V 0.178 Z"
         style="fill:#ffffff;fill-opacity:1;fill-rule:nonzero;stroke:none"
         id="path234" />
    </g>
    <g
       id="g236"
       transform="matrix(1.0601488,0,0,-1.0601489,135.29069,173.07645)"
       clip-path="url(#clipPath1338)"
       style="fill:#ffffff">
      <path
         d="m 0,0 h -0.173 c -0.092,0.381 -0.174,0.714 -0.48,1.04 -0.148,0.154 -0.487,0.397 -0.983,0.397 -1.074,0 -1.215,-0.967 -1.215,-2.543 0,-1.535 0.116,-1.884 0.322,-2.184 0.24,-0.349 0.703,-0.431 0.917,-0.431 0.166,0 0.463,0.041 0.76,0.244 0.306,0.203 0.612,0.585 0.81,1.267 h 0.19 L 0.083,-3.834 h -0.166 c -0.09,0.219 -0.124,0.268 -0.289,0.43 -0.207,-0.162 -0.653,-0.52 -1.314,-0.52 -1.057,0 -2.263,1.105 -2.263,2.746 0,1.624 1.115,2.818 2.296,2.818 0.215,0 0.719,-0.016 1.24,-0.495 0.116,0.186 0.148,0.234 0.24,0.43 H 0 Z"
         style="fill:#ffffff;fill-opacity:1;fill-rule:nonzero;stroke:none"
         id="path238" />
    </g>
    <g
       id="g240"
       transform="matrix(1.0601488,0,0,-1.0601489,139.76769,175.41091)"
       clip-path="url(#clipPath1332)"
       style="fill:#ffffff">
      <path
         d="m 0,0 c 0,-0.983 -0.801,-1.697 -1.685,-1.697 -0.867,0 -1.643,0.698 -1.643,1.664 0,0.902 0.702,1.649 1.669,1.649 C -0.751,1.616 0,0.95 0,0 m -2.287,1.138 c -0.125,-0.212 -0.132,-0.391 -0.132,-1.179 0,-0.779 0.016,-0.95 0.132,-1.178 0.107,-0.186 0.354,-0.3 0.619,-0.3 0.256,0 0.504,0.097 0.628,0.3 0.115,0.22 0.132,0.407 0.132,1.186 0,0.788 -0.017,0.95 -0.132,1.171 -0.099,0.186 -0.33,0.299 -0.628,0.299 -0.215,0 -0.488,-0.072 -0.619,-0.299"
         style="fill:#ffffff;fill-opacity:1;fill-rule:nonzero;stroke:none"
         id="path242" />
    </g>
    <g
       id="g244"
       transform="matrix(1.0601488,0,0,-1.0601489,141.06661,174.01595)"
       clip-path="url(#clipPath1326)"
       style="fill:#ffffff">
      <path
         d="m 0,0 h -0.57 v 0.203 h 0.355 c 0.587,0 0.793,0.025 1,0.048 v -0.763 h 0.017 c 0.098,0.235 0.362,0.763 1.139,0.763 0.884,0 0.967,-0.649 0.984,-0.811 h 0.016 c 0.091,0.21 0.371,0.811 1.164,0.811 0.413,0 0.719,-0.186 0.868,-0.471 C 5.08,-0.422 5.08,-0.715 5.08,-1.113 v -1.6 H 5.641 V -2.916 H 3.767 v 0.203 h 0.529 v 1.958 c 0,0.519 0,0.812 -0.348,0.812 -0.347,0 -0.751,-0.341 -0.875,-0.715 -0.132,-0.389 -0.14,-0.658 -0.14,-1.023 v -1.032 h 0.52 V -2.916 H 1.627 v 0.203 h 0.52 v 1.535 c 0,0.862 -0.024,0.934 -0.041,1 C 2.032,0.049 1.818,0.057 1.767,0.057 1.289,0.057 0.959,-0.439 0.85,-0.812 0.785,-1.032 0.785,-1.445 0.785,-1.714 v -0.999 h 0.52 V -2.916 H -0.57 v 0.203 H 0 Z"
         style="fill:#ffffff;fill-opacity:1;fill-rule:nonzero;stroke:none"
         id="path246" />
    </g>
    <g
       id="g248"
       transform="matrix(1.0601488,0,0,-1.0601489,148.55835,175.20352)"
       clip-path="url(#clipPath1320)"
       style="fill:#ffffff">
      <path
         d="m 0,0 c -0.017,-1.154 -0.034,-1.714 0.71,-1.714 0.604,0 0.983,0.398 1.157,0.974 H 2.04 C 1.826,-1.755 1.032,-1.893 0.71,-1.893 c -0.818,0 -1.611,0.65 -1.611,1.664 0,0.976 0.769,1.649 1.561,1.649 0.447,0 0.86,-0.211 1.107,-0.56 C 1.99,0.544 2.023,0.259 2.04,0 Z M 1.173,0.178 C 1.19,0.324 1.206,0.447 1.206,0.608 1.206,0.974 1.048,1.242 0.62,1.242 0.223,1.242 0,1.015 0,0.673 V 0.178 Z"
         style="fill:#ffffff;fill-opacity:1;fill-rule:nonzero;stroke:none"
         id="path250" />
    </g>
    <g
       id="g252"
       transform="matrix(1.0601488,0,0,-1.0601489,151.87014,174.01595)"
       clip-path="url(#clipPath1314)"
       style="fill:#ffffff">
      <path
         d="m 0,0 h -0.652 v 0.203 h 0.661 c 0.47,0 0.627,0.025 0.776,0.048 V -0.495 H 0.802 C 1,0.032 1.296,0.251 1.636,0.251 c 0.347,0 0.536,-0.243 0.536,-0.495 0,-0.251 -0.173,-0.422 -0.428,-0.422 -0.199,0 -0.348,0.122 -0.348,0.341 l 0.016,0.171 c 0,0.04 -0.041,0.089 -0.081,0.089 -0.051,0 -0.182,-0.081 -0.315,-0.301 C 0.893,-0.584 0.785,-0.943 0.785,-1.494 v -1.219 h 0.67 v -0.203 h -2.107 v 0.203 H 0 Z"
         style="fill:#ffffff;fill-opacity:1;fill-rule:nonzero;stroke:none"
         id="path254" />
    </g>
    <g
       id="g256"
       transform="matrix(1.0601488,0,0,-1.0601489,157.80104,175.9625)"
       clip-path="url(#clipPath1308)"
       style="fill:#ffffff">
      <path
         d="m 0,0 c -0.173,-0.828 -0.727,-1.177 -1.33,-1.177 -0.966,0 -1.627,0.828 -1.627,1.64 0,0.837 0.668,1.673 1.685,1.673 0.752,0 1.156,-0.454 1.156,-0.827 0,-0.171 -0.124,-0.415 -0.396,-0.415 -0.215,0 -0.405,0.139 -0.405,0.39 0,0.097 0.033,0.162 0.083,0.219 0.008,0.017 0.075,0.089 0.083,0.107 0.015,0.015 0.033,0.048 0.033,0.08 0,0.13 -0.199,0.267 -0.538,0.267 -0.726,0 -0.825,-0.454 -0.825,-1.16 0,-1.171 0,-1.795 0.784,-1.795 0.801,0 1.05,0.772 1.124,0.998 z"
         style="fill:#ffffff;fill-opacity:1;fill-rule:nonzero;stroke:none"
         id="path258" />
    </g>
    <g
       id="g260"
       transform="matrix(1.0601488,0,0,-1.0601489,159.70305,176.89172)"
       clip-path="url(#clipPath1302)"
       style="fill:#ffffff">
      <path
         d="M 0,0 H 0.529 V -0.203 H -1.346 V 0 h 0.561 v 2.713 h -0.561 v 0.203 h 0.569 c 0.091,0 0.521,0.016 0.777,0.056 z m 0.066,4.5 c 0,-0.252 -0.197,-0.431 -0.437,-0.431 -0.24,0 -0.438,0.187 -0.438,0.431 0,0.235 0.198,0.43 0.438,0.43 0.231,0 0.437,-0.187 0.437,-0.43"
         style="fill:#ffffff;fill-opacity:1;fill-rule:nonzero;stroke:none"
         id="path262" />
    </g>
    <g
       id="g264"
       transform="matrix(1.0601488,0,0,-1.0601489,164.32861,175.41091)"
       clip-path="url(#clipPath1296)"
       style="fill:#ffffff">
      <path
         d="m 0,0 c 0,-0.983 -0.802,-1.697 -1.685,-1.697 -0.867,0 -1.644,0.698 -1.644,1.664 0,0.902 0.703,1.649 1.668,1.649 C -0.752,1.616 0,0.95 0,0 M -2.289,1.138 C -2.412,0.926 -2.42,0.747 -2.42,-0.041 c 0,-0.779 0.016,-0.95 0.131,-1.178 0.107,-0.186 0.356,-0.3 0.62,-0.3 0.257,0 0.504,0.097 0.629,0.3 0.114,0.22 0.131,0.407 0.131,1.186 0,0.788 -0.017,0.95 -0.131,1.171 -0.1,0.186 -0.331,0.299 -0.629,0.299 -0.215,0 -0.487,-0.072 -0.62,-0.299"
         style="fill:#ffffff;fill-opacity:1;fill-rule:nonzero;stroke:none"
         id="path266" />
    </g>
    <g
       id="g268"
       transform="matrix(1.0601488,0,0,-1.0601489,170.71695,176.89151)"
       clip-path="url(#clipPath1290)"
       style="fill:#ffffff">
      <path
         d="M 0,0 H 0.545 V -0.203 H 0.09 c -0.074,0 -0.429,0 -0.9,-0.049 v 0.649 h -0.016 c -0.091,-0.202 -0.372,-0.698 -1.033,-0.698 -0.785,0 -1.438,0.804 -1.438,1.624 0,0.894 0.695,1.69 1.537,1.69 0.587,0 0.834,-0.374 0.934,-0.56 h 0.016 v 2.461 h -0.735 v 0.203 h 0.735 c 0.017,0 0.404,0 0.81,0.056 z m -1.802,-0.097 c 0.323,0 0.621,0.178 0.794,0.454 0.215,0.341 0.223,0.576 0.223,1.226 0,1.162 -0.686,1.251 -0.95,1.251 -0.62,0 -0.661,-0.413 -0.661,-1.632 0,-0.869 0.057,-1.299 0.594,-1.299"
         style="fill:#ffffff;fill-opacity:1;fill-rule:nonzero;stroke:none"
         id="path270" />
    </g>
    <g
       id="g272"
       transform="matrix(1.0601488,0,0,-1.0601489,172.79377,175.20352)"
       clip-path="url(#clipPath1284)"
       style="fill:#ffffff">
      <path
         d="m 0,0 c -0.016,-1.154 -0.033,-1.714 0.711,-1.714 0.603,0 0.983,0.398 1.157,0.974 h 0.173 c -0.215,-1.015 -1.008,-1.153 -1.33,-1.153 -0.818,0 -1.611,0.65 -1.611,1.664 0,0.976 0.768,1.649 1.562,1.649 C 1.107,1.42 1.52,1.209 1.768,0.86 1.992,0.544 2.025,0.259 2.041,0 Z M 1.174,0.178 C 1.19,0.324 1.207,0.447 1.207,0.608 1.207,0.974 1.049,1.242 0.62,1.242 0.223,1.242 0,1.015 0,0.673 V 0.178 Z"
         style="fill:#ffffff;fill-opacity:1;fill-rule:nonzero;stroke:none"
         id="path274" />
    </g>
    <g
       id="g276"
       transform="matrix(1.0601488,0,0,-1.0601489,179.79459,174.10205)"
       clip-path="url(#clipPath1278)"
       style="fill:#ffffff">
      <path
         d="m 0,0 h 0.487 c 0.364,0 0.876,0 0.925,0.999 h 0.207 v -2.25 H 1.412 C 1.363,-0.333 1.025,-0.203 0.487,-0.203 H 0 v -2.428 h 1.099 c 1.066,0 1.611,0.324 1.727,1.575 h 0.206 l -0.05,-1.778 h -4.799 v 0.203 h 0.859 V 2.283 H -1.817 V 2.486 H 2.784 L 2.875,1.064 H 2.668 C 2.511,1.973 2.115,2.283 1.149,2.283 H 0 Z"
         style="fill:#ffffff;fill-opacity:1;fill-rule:nonzero;stroke:none"
         id="path278" />
    </g>
    <g
       id="g280"
       transform="matrix(1.0601488,0,0,-1.0601489,186.1826,174.70557)"
       clip-path="url(#clipPath1272)"
       style="fill:#ffffff">
      <path
         d="m 0,0 h -0.166 c -0.115,0.472 -0.371,0.772 -0.9,0.772 -0.439,0 -0.726,-0.268 -0.726,-0.527 0,-0.317 0.321,-0.382 0.842,-0.447 0.33,-0.041 1.206,-0.163 1.206,-1.081 0,-0.625 -0.471,-1.079 -1.091,-1.079 -0.428,0 -0.67,0.194 -0.883,0.364 L -2,-2.233 h -0.139 v 1.17 H -2 c 0.059,-0.179 0.157,-0.463 0.331,-0.69 0.181,-0.235 0.438,-0.431 0.834,-0.431 0.389,0 0.819,0.276 0.819,0.649 0,0.359 -0.257,0.431 -0.967,0.537 -0.346,0.048 -1.132,0.17 -1.132,0.99 0,0.553 0.463,0.959 1.049,0.959 0.43,0 0.62,-0.162 0.777,-0.3 0.083,0.089 0.099,0.121 0.166,0.235 H 0 Z"
         style="fill:#ffffff;fill-opacity:1;fill-rule:nonzero;stroke:none"
         id="path282" />
    </g>
    <g
       id="g284"
       transform="matrix(1.0601488,0,0,-1.0601489,188.49671,179.07033)"
       clip-path="url(#clipPath1266)"
       style="fill:#ffffff">
      <path
         d="M 0,0 H 0.653 V -0.228 H -1.33 V 0 h 0.545 V 4.767 H -1.38 v 0.204 h 0.454 c 0.389,0 0.719,0.024 0.926,0.048 V 4.394 h 0.016 c 0.115,0.227 0.38,0.674 1.033,0.674 0.759,0 1.437,-0.706 1.437,-1.575 0,-0.95 -0.776,-1.69 -1.528,-1.69 -0.579,0 -0.834,0.39 -0.942,0.569 L 0,2.372 Z M 0.173,4.354 C 0,4.044 0,3.785 0,3.404 0,3.038 0,2.778 0.115,2.51 0.247,2.209 0.611,1.981 0.974,1.981 c 0.529,0 0.612,0.488 0.612,1.423 0,0.26 0,0.925 -0.075,1.144 C 1.454,4.727 1.247,4.889 1.016,4.889 0.511,4.889 0.264,4.516 0.173,4.354"
         style="fill:#ffffff;fill-opacity:1;fill-rule:nonzero;stroke:none"
         id="path286" />
    </g>
    <g
       id="g288"
       transform="matrix(1.0601488,0,0,-1.0601489,194.13894,174.79083)"
       clip-path="url(#clipPath1260)"
       style="fill:#ffffff">
      <path
         d="m 0,0 c 0,0.609 -0.017,0.805 -0.529,0.805 -0.298,0 -0.652,-0.066 -0.652,-0.244 0,-0.041 0.024,-0.097 0.033,-0.107 0.058,-0.104 0.074,-0.145 0.074,-0.25 0,-0.269 -0.24,-0.334 -0.356,-0.334 -0.288,0 -0.371,0.228 -0.371,0.366 0,0.365 0.43,0.746 1.429,0.746 1.165,0 1.157,-0.446 1.157,-0.942 v -1.461 c 0,-0.284 0.008,-0.48 0.189,-0.48 0.157,0 0.232,0.13 0.281,0.196 h 0.1 c -0.1,-0.577 -0.587,-0.577 -0.687,-0.577 -0.552,0 -0.644,0.487 -0.668,0.634 -0.158,-0.203 -0.496,-0.634 -1.107,-0.634 -0.604,0 -0.917,0.374 -0.917,0.771 0,0.992 1.479,1.073 2.024,1.105 z m 0,-0.585 c -1.09,-0.04 -1.223,-0.365 -1.223,-0.78 0,-0.414 0.281,-0.56 0.471,-0.56 0.305,0 0.553,0.228 0.661,0.423 C -0.008,-1.349 0,-1.251 0,-1.015 Z"
         style="fill:#ffffff;fill-opacity:1;fill-rule:nonzero;stroke:none"
         id="path290" />
    </g>
    <g
       id="g292"
       transform="matrix(1.0601488,0,0,-1.0601489,196.70671,174.01595)"
       clip-path="url(#clipPath1254)"
       style="fill:#ffffff">
      <path
         d="m 0,0 h -0.57 v 0.203 h 0.364 c 0.322,0 0.677,0.016 0.991,0.057 V -0.512 H 0.801 C 0.934,-0.26 1.248,0.3 1.974,0.3 2.461,0.3 2.71,0.008 2.8,-0.146 2.949,-0.406 2.949,-0.82 2.949,-1.047 v -1.666 h 0.628 v -0.203 h -1.95 v 0.203 h 0.537 v 1.982 c 0,0.52 -0.008,0.805 -0.363,0.805 C 1.586,0.074 1.33,-0.04 1.131,-0.277 0.934,-0.512 0.785,-0.877 0.785,-1.38 V -2.713 H 1.314 V -2.916 H -0.57 v 0.203 H 0 Z M 2.693,1.982 C 2.685,1.325 2.23,1.097 1.925,1.097 1.751,1.097 1.603,1.122 1.214,1.283 0.875,1.429 0.785,1.445 0.694,1.445 0.388,1.445 0.347,1.219 0.314,1.097 H 0.157 c -0.008,0.731 0.504,0.885 0.777,0.885 0.147,0 0.314,-0.016 0.644,-0.163 0.306,-0.13 0.413,-0.178 0.586,-0.178 0.248,0 0.323,0.195 0.372,0.341 z"
         style="fill:#ffffff;fill-opacity:1;fill-rule:nonzero;stroke:none"
         id="path294" />
    </g>
    <g
       id="g296"
       transform="matrix(1.0601488,0,0,-1.0601489,203.18115,174.79083)"
       clip-path="url(#clipPath1248)"
       style="fill:#ffffff">
      <path
         d="m 0,0 c 0,0.609 -0.017,0.805 -0.529,0.805 -0.297,0 -0.652,-0.066 -0.652,-0.244 0,-0.041 0.024,-0.097 0.032,-0.107 0.059,-0.104 0.075,-0.145 0.075,-0.25 0,-0.269 -0.239,-0.334 -0.355,-0.334 -0.289,0 -0.372,0.228 -0.372,0.366 0,0.365 0.429,0.746 1.429,0.746 1.165,0 1.157,-0.446 1.157,-0.942 v -1.461 c 0,-0.284 0.008,-0.48 0.191,-0.48 0.156,0 0.23,0.13 0.279,0.196 h 0.1 c -0.1,-0.577 -0.586,-0.577 -0.686,-0.577 -0.553,0 -0.644,0.487 -0.669,0.634 -0.157,-0.203 -0.496,-0.634 -1.107,-0.634 -0.603,0 -0.916,0.374 -0.916,0.771 0,0.992 1.478,1.073 2.023,1.105 z m 0,-0.585 c -1.09,-0.04 -1.223,-0.365 -1.223,-0.78 0,-0.414 0.281,-0.56 0.471,-0.56 0.306,0 0.553,0.228 0.661,0.423 C -0.008,-1.349 0,-1.251 0,-1.015 Z"
         style="fill:#ffffff;fill-opacity:1;fill-rule:nonzero;stroke:none"
         id="path298" />
    </g>
    <g
       id="g300"
       transform="matrix(1.0601488,0,0,-1.0601489,96.630352,163.12259)"
       clip-path="url(#clipPath1242)">
      <path
         d="m 0,0 c -1.055,-2.963 -3.676,-4.963 -6.884,-4.963 -4.303,0 -8.803,3.347 -8.803,7.846 0,4.731 4.305,8.193 8.92,8.193 4.303,0 6.18,-2.692 6.18,-4.192 0,-1.615 -1.172,-2.654 -2.737,-2.654 -1.486,0 -2.583,1.192 -2.583,2.654 0,0.538 0.352,1.27 0.665,1.5 0.234,0.153 0.509,0.463 0.509,0.846 0,0.77 -1.448,0.847 -2.072,0.847 -1.721,0 -2.896,-0.462 -2.896,-4.117 V 0.999 c 0,-3.962 0.509,-4.961 3.012,-4.961 3.052,0 4.655,1.73 5.829,4.423 z"
         style="fill:#fcd205;fill-opacity:1;fill-rule:nonzero;stroke:none"
         id="path302" />
    </g>
    <g
       id="g304"
       transform="matrix(1.0601488,0,0,-1.0601489,109.4446,158.76126)"
       clip-path="url(#clipPath1236)">
      <path
         d="m 0,0 c -3.521,0.193 -9.779,-0.767 -9.779,-5.345 0,-2.462 1.721,-3.732 4.069,-3.732 2.189,0 4.302,1.039 5.71,2.731 0.235,-1.692 1.329,-2.731 3.05,-2.731 1.644,0 2.701,0.808 3.717,2.039 L 6.298,-6.5 C 5.985,-6.808 5.399,-7.384 4.93,-7.384 c -0.47,0 -0.94,0.231 -0.94,0.731 V 3.578 c 0,1.193 -0.351,1.808 -1.447,2.346 -1.525,0.77 -3.325,1.038 -5.007,1.038 -2.386,0 -6.22,-1.038 -6.22,-3.961 0,-1.231 0.939,-1.808 2.034,-1.808 0.899,0 1.879,0.692 1.879,1.692 0,0.731 -0.313,1.538 -0.549,1.847 -0.586,0.73 1.252,1.462 2.738,1.462 C -1.916,6.194 0,5.808 0,4.809 Z m 1.368,14.27 c 0.471,0.308 1.175,0.962 1.175,1.424 0,0.768 -0.783,1.499 -1.566,1.499 -0.859,0 -1.759,-1.038 -2.425,-1.691 l -4.966,-5.078 h 1.915 z M 0,-2.921 c 0,-0.732 -0.039,-1.425 -0.273,-2.001 -0.47,-1.232 -1.488,-2.27 -2.855,-2.27 -1.841,0 -2.544,1.269 -2.544,2.962 0,3.115 3.246,3.422 5.672,3.422 z"
         style="fill:#c51a36;fill-opacity:1;fill-rule:nonzero;stroke:none"
         id="path306" />
    </g>
    <g
       id="g308"
       transform="matrix(1.0601488,0,0,-1.0601489,124.87112,155.37569)"
       clip-path="url(#clipPath1230)">
      <path
         d="m 0,0 h 0.079 c 0.976,2.308 2.778,3.769 5.438,3.769 2.151,0 3.794,-1.154 4.498,-3.193 1.135,1.886 2.816,3.193 5.085,3.193 5.124,0 4.694,-3.115 4.694,-7.076 v -7.425 h 2.502 v -0.96 h -8.721 v 0.96 h 2.073 v 10.27 c 0,1.077 0.194,2.847 -1.644,2.847 -2.934,0 -4.107,-3.347 -4.107,-5.692 v -7.425 h 2.153 v -0.96 H 3.717 v 0.96 h 2.034 v 9.194 C 5.751,0.231 6.22,2.385 3.874,2.385 1.957,2.385 0,-0.54 0,-3.384 v -7.348 h 2.151 v -0.96 h -8.839 v 0.96 h 2.543 V 2.576 h -2.7 V 3.539 C -4.85,3.461 -2.464,3.615 0,3.692 Z"
         style="fill:#c51a36;fill-opacity:1;fill-rule:nonzero;stroke:none"
         id="path310" />
    </g>
    <g
       id="g312"
       transform="matrix(1.0601488,0,0,-1.0601489,160.78506,158.76126)"
       clip-path="url(#clipPath1224)">
      <path
         d="m 0,0 c -3.52,0.193 -9.78,-0.767 -9.78,-5.345 0,-2.462 1.722,-3.732 4.068,-3.732 2.192,0 4.304,1.039 5.712,2.731 0.235,-1.692 1.33,-2.731 3.052,-2.731 1.642,0 2.698,0.808 3.715,2.039 L 6.297,-6.5 C 5.984,-6.808 5.398,-7.384 4.928,-7.384 4.459,-7.384 3.99,-7.153 3.99,-6.653 V 3.578 c 0,1.193 -0.352,1.808 -1.448,2.346 -1.525,0.77 -3.325,1.038 -5.007,1.038 -2.387,0 -6.218,-1.038 -6.218,-3.961 0,-1.231 0.937,-1.808 2.032,-1.808 0.9,0 1.878,0.692 1.878,1.692 0,0.731 -0.313,1.538 -0.547,1.847 -0.587,0.73 1.252,1.462 2.738,1.462 C -1.918,6.194 0,5.808 0,4.809 Z m 0,-2.921 c 0,-0.732 -0.04,-1.425 -0.275,-2.001 -0.469,-1.232 -1.485,-2.27 -2.854,-2.27 -1.838,0 -2.544,1.269 -2.544,2.962 0,3.115 3.248,3.422 5.673,3.422 z"
         style="fill:#c51a36;fill-opacity:1;fill-rule:nonzero;stroke:none"
         id="path314" />
    </g>
    <g
       id="g316"
       transform="matrix(1.0601488,0,0,-1.0601489,176.70891,155.98717)"
       clip-path="url(#clipPath1218)">
      <path
         d="m 0,0 c 1.252,2.115 2.622,4.345 5.478,4.345 1.524,0 3.128,-0.769 3.128,-2.5 0,-1.499 -1.057,-2.153 -2.464,-2.153 -0.939,0 -1.878,0.807 -1.878,1.769 0,0.153 0.039,0.384 0.079,0.577 C 4.459,2.653 4.497,2.884 4.068,2.884 3.325,2.884 2.934,2.499 2.425,1.999 0.938,0.538 0,-1.538 0,-6.578 v -3.577 h 3.522 v -0.96 H -6.532 v 0.96 h 2.306 V 3.153 h -2.58 V 4.116 C -4.772,4.037 -2.386,4.192 0,4.268 Z"
         style="fill:#c51a36;fill-opacity:1;fill-rule:nonzero;stroke:none"
         id="path318" />
    </g>
    <g
       id="g320"
       transform="matrix(1.0601488,0,0,-1.0601489,197.44415,158.76126)"
       clip-path="url(#clipPath1212)">
      <path
         d="m 0,0 c -3.521,0.193 -9.781,-0.767 -9.781,-5.345 0,-2.462 1.723,-3.732 4.069,-3.732 2.191,0 4.303,1.039 5.712,2.731 0.233,-1.692 1.329,-2.731 3.05,-2.731 1.642,0 2.7,0.808 3.717,2.039 L 6.298,-6.5 C 5.984,-6.808 5.397,-7.384 4.927,-7.384 c -0.468,0 -0.938,0.231 -0.938,0.731 V 3.578 c 0,1.193 -0.352,1.808 -1.447,2.346 -1.526,0.77 -3.325,1.038 -5.007,1.038 -2.387,0 -6.22,-1.038 -6.22,-3.961 0,-1.231 0.938,-1.808 2.035,-1.808 0.9,0 1.878,0.692 1.878,1.692 0,0.731 -0.314,1.538 -0.548,1.847 -0.587,0.73 1.251,1.462 2.737,1.462 C -1.918,6.194 0,5.808 0,4.809 Z m 0,-2.921 c 0,-0.732 -0.04,-1.425 -0.275,-2.001 -0.469,-1.232 -1.485,-2.27 -2.856,-2.27 -1.837,0 -2.543,1.269 -2.543,2.962 0,3.115 3.248,3.422 5.674,3.422 z"
         style="fill:#c51a36;fill-opacity:1;fill-rule:nonzero;stroke:none"
         id="path322" />
    </g>
    <g
       id="g324"
       transform="matrix(1.0601488,0,0,-1.0601489,95.471297,143.66899)"
       clip-path="url(#clipPath1206)">
      <path
         d="m 0,0 -0.177,0.087 c -1.867,0.761 -3.992,1.162 -6.143,1.162 -9.563,0 -17.053,-7.299 -17.053,-16.612 0,-8.979 7.501,-16.284 16.72,-16.284 2.119,0 4.412,0.45 6.461,1.269 l 0.197,0.07 -0.002,0.227 -0.002,4.152 -0.002,0.591 -0.517,-0.304 c -1.982,-1.163 -4.206,-1.805 -6.261,-1.805 -6.614,0 -11.998,5.475 -11.998,12.206 0,6.777 5.419,12.288 12.082,12.288 2.28,0 4.246,-0.506 6.182,-1.594 l 0.51,-0.286 z"
         style="fill:#c51a36;fill-opacity:1;fill-rule:nonzero;stroke:none"
         id="path326" />
    </g>
  </g>
</svg>
