<?xml version="1.0" encoding="UTF-8" standalone="no"?>
<!-- Created with Inkscape (http://www.inkscape.org/) -->

<svg
   version="1.1"
   id="svg1"
   width="113.38667"
   height="36.880001"
   viewBox="0 0 113.38667 36.880001"
   sodipodi:docname="camara_light.svg"
   inkscape:version="1.4.2 (2aeb623e1d, 2025-05-12)"
   xmlns:inkscape="http://www.inkscape.org/namespaces/inkscape"
   xmlns:sodipodi="http://sodipodi.sourceforge.net/DTD/sodipodi-0.dtd"
   xmlns="http://www.w3.org/2000/svg"
   xmlns:svg="http://www.w3.org/2000/svg">
  <defs
     id="defs1" />
  <sodipodi:namedview
     id="namedview1"
     pagecolor="#ffffff"
     bordercolor="#000000"
     borderopacity="0.25"
     inkscape:showpageshadow="2"
     inkscape:pageopacity="0.0"
     inkscape:pagecheckerboard="0"
     inkscape:deskcolor="#d1d1d1"
     showgrid="false"
     inkscape:zoom="12.704315"
     inkscape:cx="37.66437"
     inkscape:cy="37.270803"
     inkscape:window-width="3774"
     inkscape:window-height="1531"
     inkscape:window-x="66"
     inkscape:window-y="32"
     inkscape:window-maximized="1"
     inkscape:current-layer="g1">
    <inkscape:page
       x="0"
       y="0"
       inkscape:label="1"
       id="page1"
       width="113.38667"
       height="36.880001"
       margin="0"
       bleed="0" />
  </sodipodi:namedview>
  <g
     id="g1"
     inkscape:groupmode="layer"
     inkscape:label="1">
    <path
       id="path1"
       d="m 473.695,77.7578 c 0,3.3828 0,6.6758 0,10.1524 4.203,0.625 8.426,1.25 12.77,1.8945 0,0.6172 0,1.168 0,1.7148 0,19.2425 0.055,38.4845 -0.031,57.7265 -0.028,6.125 -0.391,12.254 -2.086,18.203 -2.102,7.383 -7.309,11.653 -14.848,12.594 -12.02,1.5 -22.383,-2.605 -32.047,-9.176 -0.394,-0.273 -0.687,-1.14 -0.59,-1.637 1.52,-7.398 1.606,-14.91 1.641,-22.406 0.078,-18.324 0.023,-36.656 0.027,-54.9802 0,-0.6055 0,-1.211 0,-2.0391 4.887,-0.6367 9.723,-1.2617 14.625,-1.9024 0,-3.3984 0,-6.7265 0,-10.1523 -16.703,0 -33.371,0 -50.125,0 0,3.3633 0,6.6953 0,10.168 4.481,0.6211 8.965,1.2422 13.594,1.8867 0,0.6523 0,1.1953 0,1.7383 0,18.43 0.055,36.859 -0.027,55.289 -0.032,6.883 -0.028,13.805 -1.723,20.551 -2.387,9.5 -8.164,12.371 -16.094,12.926 -10.699,0.75 -19.75,-3.649 -28.64,-8.864 -3.536,-2.07 -4.778,-4.492 -4.735,-8.683 0.246,-23.653 0.121,-47.317 0.121,-70.9729 0,-0.6055 0,-1.211 0,-1.9883 4.598,-0.625 9.133,-1.2461 13.801,-1.8828 0,-3.3867 0,-6.7461 0,-10.1875 -16.062,0 -32.09,0 -48.246,0 0,3.3593 0,6.7226 0,10.1875 4.141,0.6211 8.273,1.2383 12.461,1.8672 0,28.9258 0,57.7498 0,86.7268 -4.219,1.054 -8.441,2.199 -12.711,3.144 -1.641,0.364 -2.336,0.903 -2.207,2.746 0.211,2.977 0.059,5.973 0.059,9.094 11.511,1.449 22.929,2.887 34.586,4.352 0,-5.953 0,-11.789 0,-17.957 1.398,1.093 2.464,2 3.601,2.808 9.379,6.684 19.621,11.504 30.93,13.781 7.152,1.442 14.328,1.047 21.328,-1.121 6.672,-2.062 10.793,-5.839 14.664,-13.113 2.969,1.856 5.867,3.852 8.934,5.535 7.386,4.059 15.144,7.203 23.488,8.68 7.535,1.332 15.047,1.148 22.387,-1.141 8.421,-2.625 13.457,-8.644 16.128,-16.836 1.922,-5.906 2.954,-12.019 3.012,-18.195 0.223,-22.18 0.254,-44.363 0.352,-66.5429 0.004,-0.6016 0,-1.2031 0,-1.9414 4.984,-0.6328 9.883,-1.2539 14.847,-1.8867 0,-3.3867 0,-6.7188 0,-10.1602 -16.359,0 -32.726,0 -49.246,0"
       style="fill:#ef2a44;fill-opacity:1;fill-rule:nonzero;stroke:none"
       transform="matrix(0.13333333,0,0,-0.13333333,0,36.88)" />
    <path
       id="path2"
       d="m 207.75,107.309 c -1.527,-3.961 -3.5,-7.4652 -5.906,-10.7231 -7.067,-9.5586 -16.727,-15.2656 -27.93,-18.6054 -10.391,-3.0977 -21.074,-4.2032 -31.844,-3.5938 -33.465,1.8906 -63.9489,25.6603 -73.1247,58.8403 -2.4219,8.75 -3.207,17.671 -2.6094,26.769 0.918,13.926 4.5821,26.969 12.0157,38.824 10.9062,17.399 26.6524,28.227 46.3364,33.563 9.917,2.687 20.046,3.512 30.261,2.984 11.539,-0.597 22.621,-3.113 32.699,-9.058 8.282,-4.891 14.918,-11.348 18.633,-20.399 3.246,-7.906 3.285,-15.793 -0.941,-23.383 -3.41,-6.129 -8.805,-9.285 -15.77,-9.863 -4.777,-0.394 -9.371,0.281 -13.808,2.106 -12.61,5.187 -13.914,20.636 -4.766,29.039 1.121,1.031 2.34,1.957 3.406,3.039 3.657,3.726 3.45,8.386 -0.488,11.828 -3.051,2.668 -6.723,4.07 -10.582,5.015 -6.105,1.485 -12.277,2.098 -18.512,0.903 -8.363,-1.598 -14.226,-6.508 -18.043,-13.973 -2.984,-5.844 -4.644,-12.144 -4.886,-18.637 -0.438,-11.859 -0.536,-23.734 -0.594,-35.609 -0.055,-10.758 -0.078,-21.523 0.293,-32.273 0.32,-9.286 1.773,-18.438 6.125,-26.8364 4.867,-9.3867 12.75,-13.9648 23.226,-14.1328 11.571,-0.1875 22.368,2.4414 32.016,9.0703 5.395,3.7071 9.75,8.3949 13.137,13.9769 0.519,0.855 1.066,1.172 2.051,1.152 3.14,-0.059 6.281,-0.023 9.605,-0.023"
       style="fill:#ef2a44;fill-opacity:1;fill-rule:nonzero;stroke:none"
       transform="matrix(0.13333333,0,0,-0.13333333,0,36.88)" />
    <path
       id="path3"
       d="m 171.598,22.7813 c 0,-6.5 0,-12.87896 0,-19.42583 -3.2,-0.41406 -6.336,-0.96484 -9.496,-1.18359 -4.856,-0.33985 -9.727,-0.67969 -14.59,-0.6211 C 116.984,1.91016 89.1172,10.7656 64.3242,28.5898 32.8008,51.25 12.8867,81.7852 3.93359,119.512 1.91797,127.992 0.710938,136.59 0.253906,145.301 -1.95703,187.457 10.3789,224.738 37.6406,257.012 c 5.7774,6.843 12.2657,12.984 19.2071,18.633 0.3906,0.32 0.8007,0.605 1.2929,0.972 4.3125,-4.668 7.7813,-9.863 10.8399,-15.426 -2.3985,-2.113 -4.8008,-4.125 -7.0938,-6.265 C 41.0195,235.457 27.6445,211.738 21.5664,183.863 19.0703,172.41 18,160.816 18.6172,149.141 20.6133,111.34 35.207,79.2891 63.2344,53.6797 79.3047,38.9961 98.1016,29.2148 119.285,24.1328 c 7.485,-1.793 15.098,-2.7969 22.797,-3.2226 9.668,-0.5313 19.234,0.1875 28.746,1.8632 0.195,0.0352 0.395,0.0079 0.77,0.0079"
       style="fill:#ef2a44;fill-opacity:1;fill-rule:nonzero;stroke:none"
       transform="matrix(0.13333333,0,0,-0.13333333,0,36.88)" />
    <path
       id="path4"
       d="m 639.262,78.2891 c -6.528,-0.9024 -13.012,-1.9258 -19.532,-2.6328 -2.32,-0.25 -4.757,0.0976 -7.085,0.496 -2.899,0.5 -4.219,2 -4.59,4.8907 -0.242,1.9023 -0.27,3.8359 -0.332,5.7578 -0.055,1.5547 -0.012,3.1133 -0.012,4.6992 -2.93,-2.3125 -5.695,-4.6602 -8.633,-6.7734 -5.41,-3.8985 -11.14,-7.2266 -17.82,-8.4063 -11.883,-2.1055 -23.113,-0.9023 -32.957,6.8399 -5.957,4.6875 -9.121,10.9882 -10.317,18.3438 -0.902,5.551 -0.886,11.094 0.739,16.543 2.351,7.875 7.547,13.414 14.511,17.418 7.34,4.211 15.321,6.758 23.543,8.555 8.821,1.925 17.762,2.937 26.793,3.113 0.809,0.015 1.618,0.113 2.371,0.172 0.106,0.144 0.207,0.222 0.207,0.3 0.11,6.028 0.243,12.051 -1.156,17.993 -1.683,7.164 -6.183,11.336 -13.344,12.554 -11.32,1.918 -22.273,0.508 -32.808,-4.054 -3.934,-1.707 -7.828,-3.512 -11.899,-5.344 -1.695,3.508 -3.414,7.074 -5.199,10.773 1.254,0.848 2.391,1.692 3.598,2.414 10.019,6.004 20.73,10.243 32.246,12.274 5.863,1.039 11.801,0.93 17.738,0.473 4.457,-0.344 8.828,-1.098 13.039,-2.598 9.067,-3.223 14.325,-9.836 16.688,-18.977 1.558,-6.023 2.082,-12.175 2.094,-18.359 0.043,-21.574 0.015,-43.149 0.015,-64.7227 0,-0.6094 0,-1.2149 0,-1.9961 4.031,0 8.012,0 12.102,0 0,-3.1836 0,-6.1954 0,-9.7461 z m -33.059,57.8519 c -0.68,0 -1.18,0.027 -1.676,-0.008 -4.547,-0.301 -9.117,-0.414 -13.632,-0.969 -5.786,-0.711 -11.422,-2.129 -16.649,-4.832 -3.824,-1.977 -7.254,-4.453 -9.84,-7.961 -4.23,-5.75 -4.211,-12.141 -2.804,-18.73 0.875,-4.098 2.765,-7.6058 6.214,-10.1097 5.137,-3.7305 10.942,-4.7032 17.036,-3.5196 7.601,1.4805 14.086,5.4258 20.308,9.8516 0.793,0.5627 1.07,1.1597 1.067,2.1247 -0.036,10.91 -0.024,21.825 -0.024,32.739 0,0.402 0,0.8 0,1.414"
       style="fill:#ef2a44;fill-opacity:1;fill-rule:nonzero;stroke:none"
       transform="matrix(0.13333333,0,0,-0.13333333,0,36.88)" />
    <path
       id="path5"
       d="m 224.41,168.75 c -1.715,3.551 -3.426,7.09 -5.207,10.781 1.211,0.813 2.348,1.645 3.547,2.367 10.008,6.032 20.707,10.387 32.242,12.274 9.684,1.582 19.403,1.246 28.906,-1.453 10.469,-2.973 16.45,-10.168 18.868,-20.582 1.242,-5.352 1.804,-10.785 1.812,-16.266 0.031,-21.98 0.016,-43.961 0.02,-65.9413 0,-0.5977 0,-1.1992 0,-1.9102 4.058,0 8,0 12.062,0 0,-3.125 0,-6.1367 0,-9.4101 -2.887,-0.5664 -5.867,-1.3047 -8.89,-1.7071 -4.305,-0.5781 -8.641,-0.996 -12.977,-1.3085 -1.484,-0.1055 -3.035,0.1875 -4.508,0.5078 -3.234,0.6992 -4.582,2.207 -4.844,5.5156 -0.214,2.6758 -0.218,5.3633 -0.312,8.0508 -0.02,0.5859 -0.004,1.1797 -0.004,1.707 -3.367,-2.5781 -6.609,-5.2305 -10.02,-7.6406 -5.46,-3.8633 -11.371,-6.8242 -18.093,-7.7422 -12.664,-1.7266 -24.364,0.1719 -33.879,9.5742 -4.371,4.3164 -6.676,9.7305 -7.629,15.7106 -0.984,6.164 -0.984,12.317 1.176,18.289 2.672,7.375 7.886,12.524 14.621,16.235 7.672,4.238 15.953,6.793 24.496,8.539 8.254,1.687 16.594,2.613 25.016,2.781 0.707,0.016 1.414,0.09 2.125,0.152 0.195,0.012 0.382,0.082 0.527,0.118 0,3.992 0.121,7.941 -0.047,11.879 -0.098,2.203 -0.57,4.41 -1.063,6.57 -1.609,7.062 -6.191,11.101 -13.203,12.301 -11.316,1.937 -22.277,0.523 -32.812,-4.028 -3.938,-1.703 -7.828,-3.515 -11.93,-5.363 z m 59.254,-32.68 c -0.434,0.032 -0.726,0.09 -1.019,0.067 -5.5,-0.414 -11.032,-0.582 -16.485,-1.324 -5.668,-0.77 -11.152,-2.434 -16.133,-5.395 -4.812,-2.859 -8.804,-6.469 -10.734,-11.945 -1.355,-3.844 -1.227,-7.762 -0.652,-11.696 0.468,-3.238 1.351,-6.3747 3.41,-8.9723 5.242,-6.6094 12.39,-8.1445 20.203,-6.7813 7.621,1.3321 14.101,5.375 20.32,9.8008 0.856,0.6098 1.114,1.2618 1.11,2.2658 -0.032,10.808 -0.02,21.617 -0.02,32.422 0,0.496 0,0.988 0,1.558"
       style="fill:#ef2a44;fill-opacity:1;fill-rule:nonzero;stroke:none"
       transform="matrix(0.13333333,0,0,-0.13333333,0,36.88)" />
    <path
       id="path6"
       d="m 838.313,87.9805 c 4.101,0 8.042,0 12.085,0 0,-3.125 0,-6.1446 0,-9.4141 -3.738,-0.6953 -7.519,-1.543 -11.343,-2.0781 -3.504,-0.4883 -7.051,-0.711 -10.586,-0.8985 -1.395,-0.0742 -2.836,0.1485 -4.215,0.4454 -3.531,0.7656 -4.863,2.3632 -5.125,5.9531 -0.117,1.5664 -0.203,3.1367 -0.246,4.7031 -0.043,1.5703 -0.008,3.1406 -0.008,4.9727 -1.445,-1.2618 -2.68,-2.418 -4,-3.4727 -6.047,-4.8125 -12.297,-9.3789 -19.941,-11.2539 -12.09,-2.9687 -23.719,-2.1445 -34.223,5.3203 -7.082,5.0352 -10.652,12.1211 -11.664,20.6212 -0.629,5.277 -0.609,10.527 1.019,15.641 2.243,7.027 6.801,12.242 12.981,16.089 7.246,4.516 15.254,7.137 23.488,9.079 7.195,1.699 14.5,2.738 21.895,3.117 2.929,0.148 5.859,0.343 8.73,0.511 0.117,0.164 0.223,0.25 0.223,0.332 0.09,6.129 0.215,12.25 -1.27,18.282 -1.742,7.047 -6.285,11.031 -13.293,12.222 -11.652,1.977 -22.867,0.375 -33.64,-4.425 -3.633,-1.618 -7.246,-3.282 -11.008,-4.989 -1.719,3.555 -3.445,7.129 -5.207,10.774 4.769,3.484 9.887,6.121 15.195,8.398 7.262,3.113 14.723,5.692 22.602,6.57 9.426,1.055 18.828,0.813 27.965,-2.101 9.332,-2.984 14.921,-9.508 17.425,-18.844 1.434,-5.359 2.118,-10.832 2.129,-16.363 0.051,-22.383 0.028,-44.77 0.032,-67.1525 0,-0.6054 0,-1.2109 0,-2.039 z M 817.48,136.07 c -0.593,0.032 -1.039,0.098 -1.48,0.063 -5.348,-0.406 -10.73,-0.578 -16.035,-1.313 -5.668,-0.781 -11.152,-2.429 -16.145,-5.379 -5.257,-3.113 -9.64,-7.066 -11.132,-13.238 -1.485,-6.144 -0.825,-12.199 2.144,-17.8319 0.852,-1.6094 2.141,-3.125 3.563,-4.2773 5.652,-4.5782 12.199,-5.4532 19.07,-3.7813 6.937,1.6836 12.973,5.3008 18.73,9.418 0.903,0.6485 1.321,1.3205 1.317,2.4845 -0.051,10.765 -0.032,21.527 -0.032,32.289 0,0.496 0,0.992 0,1.566"
       style="fill:#ef2a44;fill-opacity:1;fill-rule:nonzero;stroke:none"
       transform="matrix(0.13333333,0,0,-0.13333333,0,36.88)" />
    <path
       id="path7"
       d="m 654.152,77.7539 c 0,3.3984 0,6.7227 0,10.1563 5.157,0.4218 10.235,0.8398 15.387,1.2656 0,29.1402 0,58.1522 0,87.3362 -3.34,0.843 -6.746,1.695 -10.144,2.566 -1.508,0.387 -3.567,0.371 -4.348,1.352 -0.781,0.984 -0.313,2.988 -0.34,4.543 -0.031,2.125 -0.008,4.246 -0.008,6.523 11.258,1.492 22.403,2.973 33.719,4.477 0,-8.02 0,-15.848 0,-23.774 2.059,2.426 3.914,4.813 5.969,7.008 6.699,7.156 14.531,12.598 24.086,15.203 5.082,1.387 10.265,1.711 15.472,0.547 0.75,-0.168 1.121,-0.426 1.114,-1.281 -0.028,-7.36 -0.016,-14.719 -0.016,-21.86 -2.66,0.707 -5.277,1.629 -7.977,2.067 -5.687,0.926 -11.316,0.078 -16.843,-1.278 -6.446,-1.582 -12.375,-4.382 -17.789,-8.226 -0.504,-0.359 -0.969,-1.18 -0.969,-1.789 -0.047,-24.008 -0.039,-48.016 -0.039,-72.0236 0,-0.3476 0.051,-0.6992 0.086,-1.1953 8.703,-0.5547 17.375,-1.1016 26.105,-1.6563 0,-3.3906 0,-6.621 0,-9.9609 -21.105,0 -42.199,0 -63.465,0"
       style="fill:#ef2a44;fill-opacity:1;fill-rule:nonzero;stroke:none"
       transform="matrix(0.13333333,0,0,-0.13333333,0,36.88)" />
    <path
       id="path8"
       d="m 549.086,4.38672 c 2.301,-0.23828 4.352,-0.44922 6.445,-0.66797 0,-1.125 0,-2.125 0,-3.21875 -5.699,0 -11.363,0 -17.113,0 0,1.05078 0,2.04297 0,3.21484 1.406,0.16407 2.844,0.38672 4.293,0.48438 0.902,0.0625 1.269,0.28906 1.383,1.30859 0.922,8.24999 1.941,16.49219 2.914,24.73439 0.562,4.7734 1.097,9.5508 1.664,14.5117 -2.336,0.2774 -4.625,0.5508 -6.984,0.832 0,1.1133 0,2.1563 0,3.3946 1.195,0 2.394,0 3.593,0 4.11,0 8.223,-0.0391 12.336,0.0234 1.024,0.0156 1.473,-0.2344 1.785,-1.2812 3.489,-11.6797 7.043,-23.3399 10.586,-35.0039 0.055,-0.1836 0.176,-0.3477 0.293,-0.5704 1.219,4.2969 2.348,8.5313 3.621,12.7266 2.309,7.6172 4.711,15.2031 7.043,22.8164 0.289,0.9531 0.688,1.3359 1.774,1.3203 5.222,-0.0742 10.445,-0.0312 15.785,-0.0312 0,-1.1446 0,-2.2227 0,-3.4024 -2.293,-0.2656 -4.594,-0.5351 -7.008,-0.8164 0.379,-2.9844 0.738,-5.832 1.106,-8.6797 0.765,-5.9218 1.539,-11.8437 2.3,-17.7656 0.539,-4.2148 1.086,-8.43359 1.594,-12.65234 0.117,-0.96875 0.578,-1.41015 1.543,-1.43359 0.606,-0.01563 1.211,-0.09766 1.813,-0.20313 2.726,-0.47656 2.726,-0.48437 2.488,-3.488277 -6.242,0 -12.496,0 -18.84,0 0,1.011717 0,2.007817 0,3.171877 1.91,0.22265 3.844,0.44922 5.906,0.6875 -1.398,13.67966 -2.785,27.26956 -4.207,41.16016 -4.594,-14.4648 -9.086,-28.6133 -13.613,-42.87891 -1.25,0 -2.469,-0.09375 -3.66,0.05469 -0.406,0.04687 -0.926,0.63671 -1.078,1.08984 -4.477,13.32418 -8.91,26.66018 -13.352,39.99608 -0.137,0.418 -0.293,0.8281 -0.754,1.2266 -1.211,-13.4961 -2.429,-26.9961 -3.656,-40.66018"
       style="fill:#231f20;fill-opacity:1;fill-rule:nonzero;stroke:none"
       transform="matrix(0.13333333,0,0,-0.13333333,0,36.88)" />
    <path
       id="path9"
       d="m 732.605,21.6289 c 0,-5.7773 0,-11.4453 0,-17.24218 2.118,-0.22656 4.211,-0.44531 6.336,-0.66797 0,-1.12891 0,-2.13281 0,-3.222656 -6.273,0 -12.496,0 -18.988,0 0,0.859376 -0.09,1.757816 0.055,2.621096 0.047,0.30469 0.64,0.67969 1.031,0.74219 1.387,0.23046 2.789,0.33984 4.242,0.49609 0,13.49613 0,26.87893 0,40.42183 -1.601,0.2891 -3.222,0.586 -4.902,0.8907 0,1.1015 0,2.1406 0,3.3125 0.559,0 1.055,-0.0117 1.547,0 6.187,0.1484 12.371,0.375 18.554,0.4062 2.208,0.0156 4.45,-0.289 6.622,-0.7187 6.714,-1.3164 10.043,-5.7227 9.656,-12.5625 -0.352,-6.2852 -3.297,-10.7657 -9.336,-13.2422 3.371,-2.4258 5,-6.0664 6.988,-9.4414 1.153,-1.9571 2.32,-3.91409 3.352,-5.93362 1.093,-2.14844 2.609,-3.57812 5.226,-3.60156 0,-1.17969 0,-2.26172 0,-3.460939 -2.961,0 -5.91,-0.144531 -8.824,0.089844 -0.824,0.066406 -1.809,1.097655 -2.289,1.937505 -1.359,2.35937 -2.492,4.84765 -3.723,7.28125 -1.484,2.92582 -2.933,5.87112 -4.468,8.76952 -1.176,2.207 -2.817,3.5664 -5.602,3.1719 -1.742,-0.2461 -3.543,-0.0469 -5.477,-0.0469 z m -0.007,3.6719 c 2.941,0 5.734,-0.1641 8.504,0.039 3.878,0.2852 6.597,2.379 7.441,6.2305 0.488,2.2344 0.648,4.6445 0.41,6.9141 -0.351,3.2812 -2.082,5.7734 -5.508,6.6953 -3.59,0.9687 -7.191,0.6641 -10.847,0.1992 0,-6.707 0,-13.2891 0,-20.0781"
       style="fill:#231f20;fill-opacity:1;fill-rule:nonzero;stroke:none"
       transform="matrix(0.13333333,0,0,-0.13333333,0,36.88)" />
    <path
       id="path10"
       d="m 664.012,0.546875 c -0.324,2.996095 -0.328,3.003905 2.406,3.445315 0.895,0.14453 1.793,0.24609 2.781,0.3789 0,13.42191 0,26.80081 0,40.39451 -1.523,0.2617 -3.136,0.543 -4.824,0.8321 0,1.1289 0,2.2148 0,3.3828 0.57,0 1.074,-0.0157 1.578,0 5.832,0.1484 11.664,0.4687 17.496,0.3984 3.465,-0.043 7.016,-0.3047 10.36,-1.1406 6.793,-1.6914 11.312,-6.1328 13.269,-12.8789 2.293,-7.918 1.934,-15.7617 -1.949,-23.1328 C 700.93,4.24609 694.094,0.09375 685.086,0.015625 678.098,-0.0429688 671.105,0.351563 664.012,0.546875 Z M 676.414,45.3047 c 0,-13.5078 -0.008,-26.8867 0.055,-40.26954 0.004,-0.3711 0.765,-1.02344 1.215,-1.06641 2.218,-0.20312 4.457,-0.40625 6.671,-0.3125 6.934,0.29688 11.934,3.58203 14.411,10.13675 2.707,7.1523 2.683,14.4804 0.273,21.6875 -1.859,5.5664 -5.871,8.9023 -11.734,9.9336 -3.586,0.6289 -7.145,0.4023 -10.891,-0.1094"
       style="fill:#231f20;fill-opacity:1;fill-rule:nonzero;stroke:none"
       transform="matrix(0.13333333,0,0,-0.13333333,0,36.88)" />
    <path
       id="path11"
       d="m 805.449,0.539063 c 0,1.011717 0,2.011717 0,3.187497 1.367,0.16407 2.754,0.36719 4.145,0.48047 0.765,0.0586 1.203,0.21485 1.199,1.13281 -0.031,13.04686 -0.031,26.08986 -0.039,39.13286 0,0.039 -0.043,0.082 -0.168,0.3046 -1.496,0.2579 -3.125,0.5352 -4.805,0.8204 0,1.1054 0,2.1523 0,3.1953 0.09,0.0586 0.168,0.1601 0.254,0.1601 7.805,0.1211 15.633,0.6055 23.418,0.2617 11.453,-0.5078 18.91,-7.1445 20.145,-19.2187 0.687,-6.7305 -0.172,-13.1602 -3.723,-19 C 841.512,3.82422 834.988,0.101563 826.621,0.0117188 819.727,-0.0625 812.828,0.265625 805.93,0.417969 c -0.141,0.003906 -0.285,0.070312 -0.481,0.121094 z m 12.457,3.410157 c 2.758,-0.10156 5.481,-0.40625 8.184,-0.26563 6.82,0.35157 11.683,3.69922 14.098,10.15231 2.722,7.2774 2.671,14.6993 0.148,21.9961 -1.781,5.1563 -5.59,8.3438 -10.949,9.4883 -3.801,0.8086 -7.629,0.5586 -11.481,-0.0078 0,-13.6875 0,-27.2812 0,-41.36328"
       style="fill:#231f20;fill-opacity:1;fill-rule:nonzero;stroke:none"
       transform="matrix(0.13333333,0,0,-0.13333333,0,36.88)" />
    <path
       id="path12"
       d="m 655.301,0.46875 c -5.809,0 -11.473,0 -17.36,0 0,0.89063 -0.109,1.75391 0.055,2.55859 0.07,0.34766 0.688,0.75782 1.109,0.82813 1.375,0.24219 2.778,0.34375 4.282,0.51172 -0.961,3.05859 -1.852,5.98441 -2.832,8.88281 -0.114,0.3242 -0.731,0.668 -1.114,0.6719 -5.734,0.0429 -11.464,0.0429 -17.199,-0.0039 -0.375,0 -0.961,-0.3867 -1.074,-0.7188 -0.961,-2.8594 -1.84,-5.74607 -2.797,-8.80467 1.852,-0.22656 3.625,-0.4414 5.457,-0.66797 0,-1.11718 0,-2.15625 0,-3.238279 -5.18,0 -10.281,0 -15.441,0 0,1.085939 0,2.085939 0,3.203129 0.879,0.16797 1.765,0.48047 2.648,0.46093 1.172,-0.02343 1.531,0.60157 1.863,1.54688 4.961,14.26558 9.954,28.51958 14.942,42.77738 0.082,0.2343 0.199,0.4609 0.367,0.832 2.168,0 4.383,0.0469 6.594,-0.0508 0.347,-0.0117 0.816,-0.6133 0.969,-1.0351 3.66,-10.2422 7.285,-20.4961 10.914,-30.75 1.293,-3.6524 2.671,-7.2774 3.839,-10.97661 0.481,-1.51562 1.051,-2.5664 2.805,-2.44921 1.895,0.1289 2.309,-0.91016 2.024,-2.52344 -0.051,-0.29297 -0.032,-0.597659 -0.051,-1.05469 z m -16.27,17.46875 c -2.82,8.7695 -5.601,17.4219 -8.332,25.9141 -2.644,-8.5157 -5.336,-17.1836 -8.043,-25.9141 5.481,0 10.848,0 16.375,0"
       style="fill:#231f20;fill-opacity:1;fill-rule:nonzero;stroke:none"
       transform="matrix(0.13333333,0,0,-0.13333333,0,36.88)" />
    <path
       id="path13"
       d="m 288.953,249.75 c 4.402,-3.695 8.668,-7.277 13.129,-11.02 -1.422,-1.746 -2.68,-3.523 -4.168,-5.082 -7.621,-7.988 -15.926,-15.187 -25.246,-21.148 -4.023,-2.578 -4.074,-2.496 -7.625,0.555 -1.07,0.918 -2.145,1.836 -3.348,2.871 9.082,11.269 18.11,22.469 27.258,33.824"
       style="fill:#ef2a44;fill-opacity:1;fill-rule:nonzero;stroke:none"
       transform="matrix(0.13333333,0,0,-0.13333333,0,36.88)" />
    <path
       id="path14"
       d="m 779.098,44.7578 c -2.098,0.293 -4.032,0.5625 -5.993,0.836 0,1.1718 0,2.2187 0,3.3242 6.391,0 12.715,0 19.118,0 0,-1.0938 0,-2.1407 0,-3.3242 -1.953,-0.2735 -3.934,-0.5469 -5.953,-0.8321 0,-13.4804 0,-26.8672 0,-40.35936 2.015,-0.25781 4,-0.50781 5.996,-0.76171 0,-1.10157 0,-2.0625 0,-3.125005 -6.34,0 -12.653,0 -19.059,0 0,1.027345 0,2.062505 0,3.230465 1.547,0.15625 3.098,0.33594 4.652,0.46875 0.715,0.0586 1.254,0.11719 1.254,1.08204 -0.023,13.08982 -0.015,26.18362 -0.015,39.46092"
       style="fill:#231f20;fill-opacity:1;fill-rule:nonzero;stroke:none"
       transform="matrix(0.13333333,0,0,-0.13333333,0,36.88)" />
  </g>
</svg>
