<?xml version="1.0" encoding="UTF-8" standalone="no"?>
<!-- Created with Inkscape (http://www.inkscape.org/) -->

<svg
   version="1.1"
   id="svg1"
   width="113.38667"
   height="36.880001"
   viewBox="0 0 113.38667 36.880001"
   sodipodi:docname="camara_2_incubated.svg"
   inkscape:version="1.4.2 (2aeb623e1d, 2025-05-12)"
   xmlns:inkscape="http://www.inkscape.org/namespaces/inkscape"
   xmlns:sodipodi="http://sodipodi.sourceforge.net/DTD/sodipodi-0.dtd"
   xmlns="http://www.w3.org/2000/svg"
   xmlns:svg="http://www.w3.org/2000/svg">
  <defs
     id="defs1" />
  <sodipodi:namedview
     id="namedview1"
     pagecolor="#ffffff"
     bordercolor="#000000"
     borderopacity="0.25"
     inkscape:showpageshadow="2"
     inkscape:pageopacity="0.0"
     inkscape:pagecheckerboard="0"
     inkscape:deskcolor="#d1d1d1"
     showgrid="false"
     inkscape:zoom="1.1229134"
     inkscape:cx="-243.56286"
     inkscape:cy="-6.6790547"
     inkscape:window-width="3774"
     inkscape:window-height="1531"
     inkscape:window-x="66"
     inkscape:window-y="32"
     inkscape:window-maximized="1"
     inkscape:current-layer="g1">
    <inkscape:page
       x="0"
       y="0"
       inkscape:label="1"
       id="page1"
       width="113.38667"
       height="36.880001"
       margin="0"
       bleed="0" />
  </sodipodi:namedview>
  <g
     id="g1"
     inkscape:groupmode="layer"
     inkscape:label="1">
    <path
       id="path1"
       d="m 309.4772,67.366883 c 0,-2.733455 0,-5.394347 0,-8.203597 3.39622,-0.505028 6.80859,-1.010056 10.31874,-1.530841 0,-0.498726 0,-0.943797 0,-1.385636 0,-15.548808 0.0444,-31.097212 -0.025,-46.6456166 -0.0226,-4.9492764 -0.31595,-9.90178488 -1.68558,-14.7088453 -1.69851,-5.9657971 -5.90601,-9.4161501 -11.99786,-10.1765201 -9.7127,-1.212068 -18.08647,2.104957 -25.89542,7.4146219 -0.31837,0.2205963 -0.55513,0.9211714 -0.47675,1.3227698 1.22823,5.97791784 1.29772,12.0479528 1.32601,18.1050593 0.063,14.806618 0.0186,29.619702 0.0218,44.426482 0,0.489271 0,0.978543 0,1.647685 3.94892,0.514482 7.85663,1.01951 11.81766,1.537225 0,2.74606 0,5.435315 0,8.203516 -13.49677,0 -26.96527,0 -40.50326,0 0,-2.717698 0,-5.410104 0,-8.216203 3.62085,-0.501876 7.24413,-1.003753 10.98457,-1.524538 0,-0.527088 0,-0.965857 0,-1.404625 0,-14.892272 0.0444,-29.783735 -0.0218,-44.676007 -0.0259,-5.5617742 -0.0226,-11.15506255 -1.39226,-16.6061349 -1.92881,-7.6764291 -6.59688,-9.9963261 -13.00468,-10.4447911 -8.64527,-0.606034 -15.95889,2.948557 -23.14241,7.1625118 -2.85725,1.6726534 -3.86084,3.6297387 -3.8261,7.0162558 0.19878,19.1126914 0.0978,38.2342704 0.0978,57.3493054 0,0.489271 0,0.978543 0,1.606636 3.71539,0.505028 7.37987,1.006905 11.15183,1.521387 0,2.736607 0,5.451154 0,8.23196 -12.97882,0 -25.93017,0 -38.98495,0 0,-2.714466 0,-5.432164 0,-8.23196 3.34612,-0.501876 6.68496,-1.000602 10.06905,-1.508781 0,-23.373352 0,-46.664444 0,-70.079168 -3.40914,-0.851679 -6.82071,-1.776891 -10.27106,-2.540494 -1.326,-0.294128 -1.88759,-0.729664 -1.78335,-2.218892 0.17049,-2.40555 0.0477,-4.826453 0.0477,-7.348362 9.30141,-1.170857 18.52767,-2.332826 27.94705,-3.516612 0,4.810292 0,9.526044 0,14.510066 1.12965,-0.883193 1.99102,-1.61609 2.90977,-2.268991 7.57866,-5.400973 15.85465,-9.295751 24.99284,-11.135669 5.77913,-1.165202 11.57767,-0.846024 17.23398,0.905818 5.39128,1.666189 8.72123,4.718176 11.84918,10.595896 2.39908,-1.499732 4.7408,-3.11259 7.21907,-4.47253 5.96822,-3.279855 12.23704,-5.820349 18.97936,-7.013832 6.08862,-1.076316 12.15866,-0.927635 18.08971,0.92198 6.80455,2.121118 10.87386,6.984742 13.03215,13.604247 1.55306,4.7723149 2.38697,9.7118947 2.43383,14.7023814 0.1802,17.9224406 0.20525,35.8473056 0.28444,53.7696656 0.003,0.48612 0,0.972159 0,1.568739 4.02729,0.511331 7.98591,1.013207 11.99704,1.524538 0,2.736607 0,5.429094 0,8.2099 -13.21881,0 -26.44408,0 -39.79299,0"
       style="fill:#ef2a44;fill-opacity:1;fill-rule:nonzero;stroke:none;stroke-width:0.808045" />
    <path
       id="path2"
       d="m 94.581643,43.488181 c -1.233885,3.200666 -2.828158,6.032218 -4.772315,8.664748 -5.710455,7.72378 -13.51617,12.335294 -22.5687,15.034003 -8.396397,2.503081 -17.028743,3.396375 -25.731389,2.903952 -27.04123,-1.52769 -51.673596,-20.73468 -59.088057,-47.545617 -1.957004,-7.070395 -2.5914,-14.2789651 -2.108513,-21.63055963 0.741786,-11.25283637 3.702544,-21.79216837 9.7092282,-31.37154337 8.8127017,-14.059177 21.5363418,-22.80869 37.4419018,-27.120419 8.013384,-2.171217 16.198073,-2.837854 24.452253,-2.411206 9.324033,0.482403 18.278789,2.515444 26.422268,7.319272 6.692229,3.952149 12.054417,9.169696 15.056304,16.483313 2.622915,6.388405 2.654429,12.761456 -0.76037,18.894519 -2.755434,4.952508 -7.114837,7.5026987 -12.742872,7.9697488 -3.860031,0.3183698 -7.57219,-0.2270607 -11.157487,-1.7017428 -10.189448,-4.19133 -11.243139,-16.674819 -3.851143,-23.464822 0.905819,-0.833095 1.890826,-1.581345 2.752202,-2.45565 2.955021,-3.010776 2.787756,-6.776266 -0.394326,-9.557557 -2.465346,-2.155865 -5.432487,-3.288744 -8.550733,-4.052346 -4.933116,-1.199947 -9.92037,-1.695279 -14.958532,-0.729665 -6.757681,1.291256 -11.495249,5.258757 -14.579558,11.290814 -2.411206,4.722216 -3.752561,9.8129 -3.948108,15.059537 -0.353924,9.582607 -0.433112,19.178143 -0.479979,28.7736787 -0.04444,8.6929493 -0.06303,17.3915553 0.236757,26.0780403 0.258575,7.503507 1.432664,14.898736 4.949277,21.685022 3.932755,7.584877 10.302575,11.284188 18.767656,11.41994 9.34989,0.151508 18.074353,-1.972761 25.870372,-7.329212 4.359403,-2.995504 7.87844,-6.783458 10.615289,-11.293966 0.419375,-0.690878 0.861376,-0.947028 1.6573,-0.930867 2.537262,0.04767 5.075332,0.01858 7.761274,0.01858"
       style="fill:#ef2a44;fill-opacity:1;fill-rule:nonzero;stroke:none;stroke-width:0.808045" />
    <path
       id="path3"
       d="m 65.369196,111.79038 c 0,5.25229 0,10.40678 0,15.69694 -2.585745,0.33458 -5.119774,0.77964 -7.673197,0.9564 -3.923867,0.27461 -7.859855,0.54922 -11.789378,0.50187 C 21.238619,128.6552 -1.2790122,121.4996 -21.312875,107.09685 -46.785204,88.786382 -62.876696,64.112563 -70.111212,33.627606 c -1.628712,-6.852223 -2.604049,-13.799795 -2.973351,-20.838676 -1.786536,-34.06395 8.181452,-64.18868 30.210135,-90.267528 4.6684,-5.529453 9.911239,-10.491658 15.520204,-15.056305 0.315622,-0.258574 0.647002,-0.488867 1.044721,-0.785419 3.484695,3.771954 6.287642,7.969749 8.759129,12.464904 -1.938097,1.707399 -3.879263,3.333186 -5.732111,5.062402 -16.861639,15.731831 -27.669242,34.897853 -32.580621,57.422111 -2.016962,9.2545403 -2.881813,18.62301538 -2.383087,28.0569421 1.612939,30.5449139 13.405307,56.4434869 36.052711,77.1370379 12.985527,11.865011 28.1742703,19.768745 45.291413,23.875225 6.048218,1.44883 12.199865,2.26002 18.421005,2.60401 7.81218,0.42931 15.54194,-0.15151 23.228065,-1.50555 0.157569,-0.0284 0.319178,-0.006 0.622195,-0.006"
       style="fill:#ef2a44;fill-opacity:1;fill-rule:nonzero;stroke:none;stroke-width:0.808045" />
    <path
       id="path4"
       d="m 443.26281,66.937569 c -5.27492,0.72918 -10.51429,1.556133 -15.78274,2.127421 -1.87466,0.202012 -3.84387,-0.07886 -5.725,-0.40079 -2.34252,-0.404023 -3.40914,-1.61609 -3.70893,-3.951906 -0.19554,-1.537145 -0.21817,-3.099581 -0.26827,-4.652563 -0.0444,-1.256267 -0.01,-2.515686 -0.01,-3.797165 -2.36758,1.868604 -4.60182,3.765652 -6.97586,5.473213 -4.37152,3.150164 -9.00162,5.839418 -14.39936,6.792669 -9.602,1.701339 -18.67635,0.729099 -26.63074,-5.526947 -4.81353,-3.787712 -7.37018,-8.878962 -8.33661,-14.822619 -0.72885,-4.485458 -0.71592,-8.964452 0.59715,-13.36749 1.89971,-6.363355 6.09832,-10.839117 11.72554,-14.07453 5.93105,-3.402678 12.38006,-5.460769 19.02381,-6.912826 7.12776,-1.555487 14.3525,-2.373228 21.64995,-2.515444 0.65371,-0.01212 1.30742,-0.09131 1.91588,-0.138984 0.0856,-0.116359 0.16726,-0.179386 0.16726,-0.242414 0.0889,-4.8708955 0.19636,-9.7377513 -0.9341,-14.5391554 -1.35994,-5.7888352 -4.99614,-9.1599996 -10.78255,-10.1441986 -9.14707,-1.54983 -17.99759,-0.410487 -26.51035,3.275815 -3.17885,1.3793331 -6.32537,2.8378546 -9.61493,4.3181932 -1.36963,-2.8346223 -2.75866,-5.7161112 -4.20102,-8.7050702 1.01329,-0.685222 1.93203,-1.367212 2.90734,-1.950621 8.09581,-4.851503 16.75078,-8.276806 26.05623,-9.917946 4.73757,-0.839558 9.53574,-0.751482 14.3331,-0.382205 3.60146,0.277968 7.13342,0.887234 10.5361,2.099301 7.32655,2.60433 11.57525,7.947932 13.48466,15.3342726 1.25893,4.8668557 1.68235,9.83794927 1.69205,14.8349003 0.0347,17.4327651 0.0121,34.8663391 0.0121,52.2988621 0,0.492422 0,0.981694 0,1.612939 3.25723,0 6.47405,0 9.77896,0 0,2.572492 0,5.006162 0,7.875288 z M 416.54964,20.190624 c -0.54947,0 -0.95349,-0.02182 -1.35428,0.0065 -3.67418,0.243222 -7.36695,0.334531 -11.01527,0.782996 -4.67535,0.57452 -9.22949,1.720328 -13.45314,3.904474 -3.08997,1.597505 -5.86156,3.598225 -7.95117,6.432847 -3.41803,4.646259 -3.40268,9.810476 -2.26576,15.134685 0.70704,3.311369 2.23425,6.14583 5.0212,8.169094 4.15092,3.014412 8.84163,3.800398 13.76585,2.843995 6.14195,-1.19631 11.38213,-4.384291 16.40978,-7.960537 0.64078,-0.454687 0.86461,-0.93709 0.86219,-1.716853 -0.0291,-8.815773 -0.0194,-17.635585 -0.0194,-26.45459 0,-0.324834 0,-0.646436 0,-1.142575"
       style="fill:#ef2a44;fill-opacity:1;fill-rule:nonzero;stroke:none;stroke-width:0.808045" />
    <path
       id="path5"
       d="m 108.04367,-6.1589196 c -1.38579,-2.8693682 -2.76836,-5.7290394 -4.20749,-8.7115344 0.97855,-0.656941 1.89729,-1.329234 2.86614,-1.912643 8.08692,-4.874128 16.73219,-8.393164 26.05299,-9.917946 7.82511,-1.278327 15.6785,-1.006824 23.35735,1.17409 8.45943,2.402318 13.29234,8.216203 15.2462,16.6311846 1.00359,4.3246575 1.45771,8.71476659 1.46418,13.1436619 0.025,17.7608315 0.0129,35.5224715 0.0162,53.2835455 0,0.482969 0,0.969008 0,1.543528 3.27904,0 6.46436,0 9.74664,0 0,2.525141 0,4.95873 0,7.603785 -2.33283,0.457677 -4.7408,1.054257 -7.18352,1.379414 -3.47864,0.467131 -6.98232,0.804813 -10.48601,1.057327 -1.19913,0.08525 -2.45241,-0.151508 -3.64266,-0.410325 -2.61322,-0.564985 -3.70247,-1.783356 -3.91417,-4.456854 -0.17293,-2.162167 -0.17616,-4.333788 -0.25211,-6.50541 -0.0162,-0.473433 -0.003,-0.95325 -0.003,-1.379333 -2.72068,2.083222 -5.34037,4.22648 -8.09661,6.17395 -4.41192,3.121721 -9.18828,5.514261 -14.61996,6.256047 -10.23308,1.395171 -19.68721,-0.138903 -27.37576,-7.736386 -3.53196,-3.487846 -5.39451,-7.862683 -6.16458,-12.694873 -0.79511,-4.98079 -0.79511,-9.952692 0.95027,-14.778337 2.15909,-5.959333 6.37224,-10.119958 11.81442,-13.118613 6.19933,-3.424495 12.89075,-5.48905 19.79388,-6.899897 6.6696,-1.363172 13.4087,-2.111422 20.21405,-2.247174 0.57129,-0.01293 1.14258,-0.07272 1.7171,-0.122823 0.15757,-0.0097 0.30867,-0.06626 0.42584,-0.09535 0,-3.225716 0.0978,-6.4166862 -0.038,-9.5987679 -0.0792,-1.78012337 -0.46058,-3.5634789 -0.85895,-5.3088564 -1.30015,-5.7064146 -5.00261,-8.9701087 -10.66862,-9.9397627 -9.14384,-1.565184 -18.00082,-0.422608 -26.51358,3.254805 -3.18208,1.3761013 -6.32537,2.840279 -9.63998,4.3335464 z m 47.87991,26.4069146 c -0.35069,-0.02586 -0.58664,-0.07272 -0.8234,-0.05414 -4.44425,0.334531 -8.91435,0.470282 -13.32062,1.069852 -4.58,0.622194 -9.01132,1.966781 -13.03619,4.359403 -3.88832,2.310201 -7.11403,5.227244 -8.67356,9.652099 -1.0949,3.106125 -0.99147,6.272046 -0.52685,9.450896 0.37817,2.61645 1.09167,5.151045 2.75544,7.250023 4.23577,5.340693 10.01168,6.581123 16.32493,5.479596 6.15812,-1.076397 11.39425,-4.343242 16.41948,-7.919488 0.69169,-0.492746 0.90016,-1.019592 0.89693,-1.830869 -0.0259,-8.733352 -0.0162,-17.467511 -0.0162,-26.198439 0,-0.40079 0,-0.798348 0,-1.258934"
       style="fill:#ef2a44;fill-opacity:1;fill-rule:nonzero;stroke:none;stroke-width:0.808045" />
    <path
       id="path6"
       d="m 604.105,59.106481 c 3.31379,0 6.4983,0 9.76522,0 0,2.525141 0,4.965114 0,7.607017 -3.02047,0.561834 -6.07569,1.246814 -9.16565,1.679199 -2.83139,0.394568 -5.69753,0.57452 -8.55397,0.726028 -1.12722,0.05996 -2.29162,-0.119994 -3.40591,-0.359903 -2.85321,-0.618639 -3.92952,-1.909572 -4.14123,-4.810373 -0.0945,-1.265722 -0.16403,-2.534596 -0.19878,-3.800317 -0.0348,-1.268874 -0.006,-2.537747 -0.006,-4.018166 -1.16763,1.019591 -2.16557,1.953853 -3.23218,2.806098 -4.88625,3.888717 -9.93654,7.578574 -16.11323,9.093659 -9.76927,2.398843 -19.16602,1.732853 -27.65373,-4.299043 -5.72258,-4.068668 -8.6073,-9.794395 -9.42504,-16.66286 -0.50826,-4.264054 -0.4921,-8.506291 0.8234,-12.638633 1.81244,-5.678133 5.49551,-9.892089 10.48923,-13.000638 5.8551,-3.649132 12.32592,-5.767018 18.97937,-7.336242 5.81388,-1.372868 11.71665,-2.212427 17.69214,-2.518676 2.36677,-0.119591 4.73434,-0.27716 7.05424,-0.412912 0.0945,-0.132519 0.18019,-0.202011 0.18019,-0.268271 0.0727,-4.952508 0.17373,-9.8985522 -1.02621,-14.7726804 -1.40762,-5.6942939 -5.07857,-8.9135456 -10.74135,-9.8759276 -9.41534,-1.597505 -18.47757,-0.303017 -27.18264,3.5756 -2.93562,1.3074169 -5.85509,2.6520039 -8.89496,4.0313369 -1.38903,-2.8726003 -2.78371,-5.7605539 -4.20749,-8.7058779 3.85357,-2.815229 7.98914,-4.946044 12.27825,-6.785963 5.86802,-2.515445 11.89685,-4.599393 18.26343,-5.308856 7.61664,-0.852488 15.21388,-0.656941 22.59699,1.697702 7.54067,2.411207 12.05684,7.682893 14.08018,15.226803 1.15874,4.3303133 1.71144,8.7527442 1.72033,13.2220418 0.0412,18.0864742 0.0226,36.1761802 0.0259,54.2622502 0,0.48919 0,0.978461 0,1.647604 z M 587.27099,20.247995 c -0.47917,-0.02586 -0.83956,-0.07919 -1.1959,-0.05091 -4.32143,0.328066 -8.67033,0.46705 -12.95701,1.060963 -4.58,0.631084 -9.01132,1.962742 -13.04589,4.346475 -4.24789,2.515444 -7.78955,5.709647 -8.99515,10.696901 -1.19995,4.964629 -0.66664,9.857343 1.73244,14.40898 0.68846,1.300468 1.73003,2.525141 2.87907,3.456251 4.56707,3.699393 9.85734,4.406432 15.40942,3.055461 5.60541,-1.360424 10.48277,-4.283285 15.13468,-7.610169 0.72967,-0.524017 1.06743,-1.067023 1.0642,-2.007588 -0.0412,-8.698605 -0.0259,-17.394787 -0.0259,-26.090968 0,-0.400791 0,-0.801581 0,-1.265399"
       style="fill:#ef2a44;fill-opacity:1;fill-rule:nonzero;stroke:none;stroke-width:0.808045" />
    <path
       id="path7"
       d="m 455.2946,67.370035 c 0,-2.746061 0,-5.432245 0,-8.206749 4.16709,-0.340833 8.27034,-0.678596 12.43339,-1.022662 0,-23.546596 0,-46.989601 0,-70.57159 -2.69887,-0.681182 -5.45107,-1.369636 -8.19681,-2.073444 -1.21853,-0.312713 -2.8823,-0.299784 -3.51338,-1.092477 -0.63108,-0.795116 -0.25292,-2.414438 -0.27474,-3.670949 -0.025,-1.717095 -0.006,-3.430959 -0.006,-5.270878 9.09697,-1.205603 18.10264,-2.402318 27.24647,-3.617618 0,6.480522 0,12.805899 0,19.2104648 1.66377,-1.9603178 3.16269,-3.8891208 4.82323,-5.6627798 5.41309,-5.782371 11.7417,-10.179753 19.46257,-12.28471 4.10649,-1.120759 8.29458,-1.382566 12.50207,-0.442001 0.60604,0.135752 0.90582,0.344227 0.90017,1.035106 -0.0226,5.947212 -0.0129,11.893616 -0.0129,17.6638661 -2.1494,-0.5712879 -4.26406,-1.3163055 -6.44578,-1.6702291 -4.59535,-0.74825 -9.14384,-0.06303 -13.6099,1.0326815 -5.20866,1.2783274 -9.99956,3.5408537 -14.37432,6.6469791 -0.40725,0.2900882 -0.78299,0.9534933 -0.78299,1.4455927 -0.038,19.3995477 -0.0315,38.7990947 -0.0315,58.1983187 0,0.280876 0.0412,0.564985 0.0695,0.965856 7.03241,0.448223 14.03978,0.890143 21.09401,1.338365 0,2.739758 0,5.350067 0,8.048857 -17.05379,0 -34.09869,0 -51.28258,0"
       style="fill:#ef2a44;fill-opacity:1;fill-rule:nonzero;stroke:none;stroke-width:0.808045" />
    <path
       id="path8"
       d="m 370.39653,126.65403 c 1.85931,0.19254 3.51661,0.36299 5.20785,0.53975 0,0.90905 0,1.71709 0,2.60089 -4.60505,0 -9.18181,0 -13.82807,0 0,-0.84908 0,-1.65081 0,-2.59773 1.13611,-0.13258 2.29808,-0.31249 3.46893,-0.39141 0.72886,-0.0505 1.02541,-0.23357 1.11753,-1.05739 0.74502,-6.66637 1.56842,-13.32644 2.35464,-19.98651 0.45412,-3.85712 0.88643,-7.717475 1.34459,-11.726106 -1.88759,-0.224152 -3.73721,-0.445072 -5.64339,-0.672294 0,-0.899596 0,-1.742387 0,-2.74299 0.96562,0 1.93446,0 2.90331,0 3.32107,0 6.64455,0.0316 9.96804,-0.01891 0.82744,-0.01261 1.19025,0.189406 1.44236,1.035267 2.81927,9.437723 5.69107,18.859693 8.55397,28.284733 0.0444,0.14836 0.14222,0.28096 0.23676,0.46091 0.985,-3.47209 1.89729,-6.89368 2.92593,-10.28367 1.86578,-6.15504 3.8067,-12.284791 5.69106,-18.436681 0.23353,-0.770148 0.55594,-1.079467 1.43347,-1.066862 4.21961,0.05996 8.44003,0.02521 12.755,0.02521 0,0.924889 0,1.796042 0,2.749293 -1.85285,0.214617 -3.71216,0.432385 -5.66279,0.659688 0.30625,2.41153 0.59634,4.712519 0.8937,7.013592 0.61816,4.78508 1.24358,9.57024 1.85851,14.35541 0.43553,3.40575 0.87753,6.81472 1.28802,10.22366 0.0945,0.78279 0.46705,1.13946 1.24681,1.1584 0.48968,0.0126 0.97855,0.0789 1.46499,0.16414 2.20273,0.38508 2.20273,0.39139 2.01042,2.81869 -5.04382,0 -10.09734,0 -15.22357,0 0,-0.81752 0,-1.62241 0,-2.56302 1.54336,-0.17991 3.10612,-0.36299 4.77231,-0.55553 -1.12965,-11.05379 -2.25041,-22.03504 -3.39945,-33.259273 -3.71215,11.688213 -7.34189,23.120843 -10.99991,34.648093 -1.01006,0 -1.99507,0.0758 -2.95745,-0.0442 -0.32806,-0.0379 -0.74825,-0.51449 -0.87107,-0.88064 -3.61762,-10.76654 -7.19968,-21.54263 -10.78902,-32.318638 -0.1107,-0.337763 -0.23676,-0.669142 -0.60927,-0.991148 -0.97854,10.905456 -1.96274,21.814066 -2.95421,32.855266"
       style="fill:#231f20;fill-opacity:1;fill-rule:nonzero;stroke:none;stroke-width:0.808045" />
    <path
       id="path9"
       d="m 518.68816,112.72157 c 0,4.66832 0,9.24832 0,13.93246 1.71144,0.18307 3.40268,0.35983 5.11978,0.53975 0,0.91221 0,1.7234 0,2.60405 -5.06887,0 -10.09733,0 -15.34316,0 0,-0.69442 -0.0727,-1.4204 0.0444,-2.11797 0.038,-0.2462 0.51715,-0.54922 0.83309,-0.59972 1.12076,-0.18622 2.25364,-0.27461 3.42773,-0.40086 0,-10.90548 0,-21.71939 0,-32.662665 -1.29368,-0.233605 -2.60352,-0.473514 -3.96104,-0.719725 0,-0.890062 0,-1.729702 0,-2.67665 0.4517,0 0.85249,0.0095 1.25005,0 4.99937,-0.119914 9.99633,-0.303017 14.99247,-0.328228 1.78416,-0.0126 3.5958,0.233525 5.35087,0.580742 5.42522,1.063711 8.1152,4.6242 7.80249,10.151066 -0.28443,5.07873 -2.66413,8.69917 -7.54391,10.7003 2.72392,1.96015 4.04022,4.90192 5.64662,7.62907 0.93167,1.58143 1.87466,3.16276 2.70856,4.79464 0.8832,1.73603 2.10819,2.89128 4.22285,2.91022 0,0.95324 0,1.82757 0,2.79659 -2.39262,0 -4.77555,0.11679 -7.13019,-0.0726 -0.66583,-0.0537 -1.46176,-0.88696 -1.84962,-1.5656 -1.09813,-1.90647 -2.01365,-3.91712 -3.00835,-5.88357 -1.19914,-2.3642 -2.37,-4.74413 -3.61034,-7.08617 -0.95027,-1.78336 -2.27627,-2.88181 -4.52667,-2.56304 -1.40762,0.19886 -2.86291,0.0379 -4.42567,0.0379 z m -0.006,-2.96706 c 2.37646,0 4.63333,0.1326 6.87161,-0.0315 3.1336,-0.23045 5.33068,-1.92234 6.01267,-5.03452 0.39432,-1.8055 0.52361,-3.75297 0.3313,-5.586907 -0.28363,-2.651358 -1.68235,-4.665168 -4.45072,-5.410105 -2.90088,-0.782753 -5.81065,-0.536623 -8.76486,-0.160962 0,5.419558 0,10.738194 0,16.224014"
       style="fill:#231f20;fill-opacity:1;fill-rule:nonzero;stroke:none;stroke-width:0.808045" />
    <path
       id="path10"
       d="m 463.26192,129.75679 c -0.2618,-2.42098 -0.26503,-2.42729 1.94416,-2.78397 0.7232,-0.11678 1.44883,-0.19885 2.24717,-0.30616 0,-10.84551 0,-21.65627 0,-32.64059 -1.23065,-0.211466 -2.53402,-0.438769 -3.898,-0.672375 0,-0.912202 0,-1.789658 0,-2.733455 0.46058,0 0.86784,0.01269 1.27509,0 4.71252,-0.119914 9.42504,-0.378731 14.13756,-0.321925 2.79987,0.03475 5.66924,0.246211 8.37135,0.921656 5.48905,1.366728 9.1406,4.955579 10.72195,10.406729 1.85284,6.3981 1.56275,12.73617 -1.57488,18.69235 -3.39299,6.44861 -8.91678,9.80389 -16.19565,9.86702 -5.64662,0.0473 -11.29728,-0.27145 -17.02875,-0.42928 z M 473.2833,93.590452 c 0,10.914908 -0.006,21.725668 0.0444,32.539608 0.003,0.29986 0.61816,0.82698 0.98178,0.86171 1.79224,0.16413 3.60145,0.32826 5.39047,0.25251 5.60298,-0.23989 9.64321,-2.89444 11.64473,-8.19095 2.18738,-5.77938 2.16799,-11.70082 0.2206,-17.52448 -1.50215,-4.497903 -4.74403,-7.193461 -9.4816,-8.026798 -2.89765,-0.508179 -5.77348,-0.325076 -8.80042,0.0884"
       style="fill:#231f20;fill-opacity:1;fill-rule:nonzero;stroke:none;stroke-width:0.808045" />
    <path
       id="path11"
       d="m 577.5494,129.76311 c 0,-0.81752 0,-1.62556 0,-2.57564 1.1046,-0.13258 2.22536,-0.29671 3.34935,-0.38825 0.61815,-0.0474 0.97208,-0.1736 0.96885,-0.91536 -0.0251,-10.54245 -0.0251,-21.08178 -0.0315,-31.621114 0,-0.03151 -0.0347,-0.06626 -0.13575,-0.246131 -1.20884,-0.208394 -2.52514,-0.432465 -3.88266,-0.66292 0,-0.893213 0,-1.739155 0,-2.581946 0.0727,-0.04735 0.13575,-0.129368 0.20525,-0.129368 6.30679,-0.09785 12.63217,-0.489272 18.9228,-0.211466 9.25454,0.410326 15.28013,5.773079 16.27807,15.529575 0.55512,5.43855 -0.13899,10.63404 -3.00836,15.35286 -3.5255,5.7952 -8.79718,8.80328 -15.5581,8.87587 -5.57066,0.06 -11.14536,-0.20516 -16.71926,-0.32826 -0.11393,-0.003 -0.23029,-0.0568 -0.38867,-0.0978 z m 10.06582,-2.75556 c 2.22859,0.0821 4.4289,0.32826 6.61304,0.21464 5.51087,-0.28409 9.44039,-2.98914 11.39182,-8.20353 2.1995,-5.88046 2.15829,-11.87769 0.11959,-17.77384 -1.43913,-4.166522 -4.51697,-6.742165 -8.84728,-7.666973 -3.07138,-0.653385 -6.16458,-0.451374 -9.27717,0.0063 0,11.060123 0,22.044443 0,33.423403"
       style="fill:#231f20;fill-opacity:1;fill-rule:nonzero;stroke:none;stroke-width:0.808045" />
    <path
       id="path12"
       d="m 456.22304,129.81992 c -4.69393,0 -9.2707,0 -14.02766,0 0,-0.71967 -0.0881,-1.41724 0.0444,-2.06745 0.0566,-0.28093 0.55594,-0.61236 0.89612,-0.66917 1.11107,-0.1957 2.24475,-0.27777 3.46005,-0.41349 -0.77653,-2.47148 -1.4965,-4.83568 -2.28838,-7.17771 -0.0921,-0.26197 -0.59068,-0.53978 -0.90016,-0.54293 -4.63333,-0.0347 -9.26343,-0.0347 -13.89757,0.003 -0.30302,0 -0.77653,0.31247 -0.86784,0.58083 -0.77653,2.31052 -1.4868,4.64308 -2.2601,7.11457 1.4965,0.18307 2.92916,0.35667 4.4095,0.53975 0,0.90273 0,1.74234 0,2.61667 -4.18567,0 -8.30751,0 -12.47703,0 0,-0.87749 0,-1.68553 0,-2.58827 0.71028,-0.13573 1.4262,-0.38824 2.13971,-0.37245 0.94703,0.0189 1.23712,-0.4861 1.50539,-1.24995 4.00871,-11.52724 8.04328,-23.04511 12.07381,-34.566056 0.0663,-0.189325 0.1608,-0.372428 0.29655,-0.672293 1.75184,0 3.54166,-0.0379 5.32825,0.04105 0.28039,0.0095 0.65936,0.495574 0.78299,0.836408 2.95745,8.27616 5.88661,16.561771 8.81901,24.847381 1.0448,2.95131 2.15829,5.88047 3.10208,8.8696 0.38867,1.22469 0.84926,2.07377 2.26657,1.97907 1.53125,-0.10415 1.86578,0.73545 1.63548,2.03906 -0.0412,0.23673 -0.0258,0.48293 -0.0412,0.85223 z m -13.14689,-14.11554 c -2.27869,-7.08615 -4.52586,-14.07768 -6.73263,-20.939757 -2.13647,6.881067 -4.31173,13.885127 -6.49911,20.939757 4.4289,0 8.76567,0 13.23174,0"
       style="fill:#231f20;fill-opacity:1;fill-rule:nonzero;stroke:none;stroke-width:0.808045" />
    <path
       id="path13"
       d="m 160.19733,-71.610574 c 3.55702,2.985727 7.00414,5.880144 10.60882,8.904657 -1.14904,1.410847 -2.16556,2.846743 -3.36793,4.106485 -6.15811,6.454665 -12.86892,12.271782 -20.3999,17.088538 -3.25077,2.083141 -3.29198,2.016881 -6.16135,-0.448465 -0.86461,-0.741785 -1.73326,-1.48357 -2.70533,-2.319897 7.33866,-9.105861 14.63369,-18.155966 22.02569,-27.331318"
       style="fill:#ef2a44;fill-opacity:1;fill-rule:nonzero;stroke:none;stroke-width:0.808045" />
    <path
       id="path14"
       d="m 556.25661,94.032372 c -1.69528,-0.236757 -3.25804,-0.454525 -4.84262,-0.675525 0,-0.946868 0,-1.79281 0,-2.686104 5.16422,0 10.27429,0 15.44821,0 0,0.88384 0,1.729782 0,2.686104 -1.57811,0.221 -3.17885,0.44192 -4.8103,0.672374 0,10.892769 0,21.709909 0,32.612179 1.62822,0.20833 3.23219,0.41034 4.84504,0.6155 0,0.89012 0,1.66659 0,2.52515 -5.123,0 -10.22419,0 -15.40053,0 0,-0.83015 0,-1.6666 0,-2.61037 1.25005,-0.12625 2.50333,-0.27145 3.75903,-0.37877 0.57775,-0.0474 1.01329,-0.0947 1.01329,-0.87433 -0.0186,-10.57717 -0.0121,-21.15755 -0.0121,-31.886208"
       style="fill:#231f20;fill-opacity:1;fill-rule:nonzero;stroke:none;stroke-width:0.808045" />
    <text
       xml:space="preserve"
       style="font-size:87.2792px;text-align:start;writing-mode:lr-tb;direction:ltr;text-anchor:start;fill:#ffffff;stroke-width:7.27325"
       x="-591.25378"
       y="41.485218"
       id="text1"
       inkscape:export-filename="text1.png"
       inkscape:export-xdpi="96"
       inkscape:export-ydpi="96"><tspan
         sodipodi:role="line"
         id="tspan1"
         x="-591.25378"
         y="41.485218"
         style="font-style:normal;font-variant:normal;font-weight:bold;font-stretch:normal;font-family:Roboto;-inkscape-font-specification:'Roboto Bold';fill:#000000;stroke-width:7.27325">Incubated @</tspan></text>
    <path
       id="path1-3"
       d="m 13.38108,-332.3128 c 0,-2.73345 0,-5.39434 0,-8.20359 3.39622,-0.50503 6.80859,-1.01006 10.31874,-1.53084 0,-0.49873 0,-0.9438 0,-1.38564 0,-15.54881 0.0444,-31.09721 -0.025,-46.64562 -0.0226,-4.94927 -0.31595,-9.90178 -1.68558,-14.70884 -1.69851,-5.9658 -5.90601,-9.41615 -11.99786,-10.17652 -9.7127,-1.21207 -18.08647,2.10495 -25.89542,7.41462 -0.31837,0.2206 -0.55513,0.92117 -0.47675,1.32277 1.22823,5.97792 1.29772,12.04795 1.32601,18.10506 0.063,14.80662 0.0186,29.6197 0.0218,44.42648 0,0.48927 0,0.97854 0,1.64769 3.94892,0.51448 7.85663,1.0195 11.81766,1.53722 0,2.74606 0,5.43531 0,8.20352 -13.49677,0 -26.96527,0 -40.50326,0 0,-2.7177 0,-5.41011 0,-8.21621 3.62085,-0.50187 7.24413,-1.00375 10.98457,-1.52453 0,-0.52709 0,-0.96586 0,-1.40463 0,-14.89227 0.0444,-29.78373 -0.0218,-44.67601 -0.0259,-5.56177 -0.0226,-11.15506 -1.39226,-16.60613 -1.92881,-7.67643 -6.59688,-9.99633 -13.00468,-10.44479 -8.64527,-0.60604 -15.95889,2.94855 -23.14241,7.16251 -2.85725,1.67265 -3.86084,3.62974 -3.8261,7.01625 0.19878,19.1127 0.0978,38.23427 0.0978,57.34931 0,0.48927 0,0.97854 0,1.60664 3.71539,0.50502 7.37987,1.0069 11.15183,1.52138 0,2.73661 0,5.45116 0,8.23196 -12.97882,0 -25.93017,0 -38.98495,0 0,-2.71446 0,-5.43216 0,-8.23196 3.34612,-0.50187 6.68496,-1.0006 10.06905,-1.50878 0,-23.37335 0,-46.66444 0,-70.07917 -3.40914,-0.85168 -6.82071,-1.77689 -10.27106,-2.54049 -1.326,-0.29413 -1.88759,-0.72966 -1.78335,-2.21889 0.17049,-2.40555 0.0477,-4.82645 0.0477,-7.34836 9.30141,-1.17086 18.52767,-2.33283 27.94705,-3.51662 0,4.8103 0,9.52605 0,14.51007 1.12965,-0.88319 1.99102,-1.61609 2.90977,-2.26899 7.57866,-5.40097 15.85465,-9.29575 24.99284,-11.13567 5.77913,-1.1652 11.57767,-0.84602 17.23398,0.90582 5.39128,1.66619 8.72123,4.71817 11.84918,10.59589 2.39908,-1.49973 4.7408,-3.11259 7.21907,-4.47253 5.96822,-3.27985 12.23704,-5.82035 18.97936,-7.01383 6.08862,-1.07631 12.15866,-0.92763 18.08971,0.92198 6.80455,2.12112 10.87386,6.98474 13.03215,13.60425 1.55306,4.77231 2.38697,9.71189 2.43383,14.70238 0.1802,17.92244 0.20525,35.84731 0.28444,53.76967 0.003,0.48612 0,0.97215 0,1.56874 4.02729,0.51133 7.98591,1.0132 11.99704,1.52453 0,2.73661 0,5.4291 0,8.2099 -13.21881,0 -26.44408,0 -39.79299,0"
       style="fill:#ef2a44;fill-opacity:1;fill-rule:nonzero;stroke:none;stroke-width:0.808045"
       inkscape:export-filename="../c8f74171/camara_2_incubated_light.png"
       inkscape:export-xdpi="96"
       inkscape:export-ydpi="96" />
    <path
       id="path2-5"
       d="m -201.51448,-356.1915 c -1.23388,3.20067 -2.82815,6.03222 -4.77231,8.66475 -5.71046,7.72378 -13.51617,12.33529 -22.5687,15.034 -8.3964,2.50308 -17.02874,3.39638 -25.73139,2.90395 -27.04123,-1.52769 -51.6736,-20.73468 -59.08806,-47.54561 -1.957,-7.0704 -2.5914,-14.27897 -2.10851,-21.63056 0.74179,-11.25284 3.70254,-21.79217 9.70923,-31.37155 8.8127,-14.05917 21.53634,-22.80869 37.4419,-27.12041 8.01338,-2.17122 16.19807,-2.83786 24.45225,-2.41121 9.32404,0.4824 18.27879,2.51544 26.42227,7.31927 6.69223,3.95215 12.05442,9.1697 15.0563,16.48331 2.62292,6.38841 2.65443,12.76146 -0.76037,18.89452 -2.75543,4.95251 -7.11483,7.5027 -12.74287,7.96975 -3.86003,0.31837 -7.57219,-0.22706 -11.15749,-1.70174 -10.18944,-4.19133 -11.24313,-16.67482 -3.85114,-23.46482 0.90582,-0.8331 1.89083,-1.58135 2.7522,-2.45565 2.95503,-3.01078 2.78776,-6.77627 -0.39432,-9.55756 -2.46535,-2.15586 -5.43249,-3.28874 -8.55073,-4.05235 -4.93312,-1.19994 -9.92037,-1.69528 -14.95854,-0.72966 -6.75768,1.29125 -11.49525,5.25876 -14.57956,11.29081 -2.4112,4.72222 -3.75256,9.8129 -3.9481,15.05954 -0.35393,9.58261 -0.43311,19.17814 -0.47998,28.77368 -0.0444,8.69295 -0.063,17.39155 0.23676,26.07804 0.25857,7.50351 1.43266,14.89873 4.94927,21.68502 3.93276,7.58488 10.30258,11.28419 18.76766,11.41994 9.34989,0.15151 18.07435,-1.97276 25.87037,-7.32921 4.3594,-2.99551 7.87844,-6.78346 10.61529,-11.29397 0.41937,-0.69088 0.86138,-0.94702 1.6573,-0.93086 2.53726,0.0477 5.07533,0.0186 7.76127,0.0186"
       style="fill:#ef2a44;fill-opacity:1;fill-rule:nonzero;stroke:none;stroke-width:0.808045" />
    <path
       id="path3-6"
       d="m -230.72692,-287.8893 c 0,5.25229 0,10.40678 0,15.69694 -2.58575,0.33458 -5.11978,0.77964 -7.6732,0.9564 -3.92387,0.27461 -7.85986,0.54922 -11.78938,0.50187 -24.668,-0.29039 -47.18563,-7.44599 -67.21949,-21.84874 -25.47233,-18.31047 -41.56383,-42.98429 -48.79834,-73.46924 -1.62871,-6.85223 -2.60405,-13.7998 -2.97335,-20.83868 -1.78654,-34.06395 8.18145,-64.18868 30.21013,-90.26753 4.6684,-5.52945 9.91124,-10.49166 15.52021,-15.0563 0.31562,-0.25858 0.647,-0.48887 1.04472,-0.78542 3.48469,3.77195 6.28764,7.96975 8.75913,12.4649 -1.9381,1.7074 -3.87927,3.33319 -5.73211,5.0624 -16.86164,15.73184 -27.66925,34.89786 -32.58063,57.42212 -2.01696,9.25454 -2.88181,18.62301 -2.38308,28.05694 1.61294,30.54491 13.4053,56.44348 36.05271,77.13704 12.98553,11.86501 28.17427,19.76874 45.29141,23.87522 6.04822,1.44883 12.19987,2.26002 18.42101,2.60401 7.81218,0.42931 15.54194,-0.15151 23.22806,-1.50555 0.15757,-0.0284 0.31918,-0.006 0.6222,-0.006"
       style="fill:#ef2a44;fill-opacity:1;fill-rule:nonzero;stroke:none;stroke-width:0.808045" />
    <path
       id="path4-2"
       d="m 147.16669,-332.74211 c -5.27492,0.72918 -10.51429,1.55613 -15.78274,2.12742 -1.87466,0.20201 -3.84387,-0.0789 -5.725,-0.40079 -2.34252,-0.40402 -3.40914,-1.61609 -3.70893,-3.95191 -0.19554,-1.53714 -0.21817,-3.09958 -0.26827,-4.65256 -0.0444,-1.25627 -0.01,-2.51569 -0.01,-3.79716 -2.36758,1.8686 -4.60182,3.76565 -6.97586,5.47321 -4.37152,3.15016 -9.00162,5.83942 -14.39936,6.79267 -9.602,1.70134 -18.67635,0.7291 -26.63074,-5.52695 -4.81353,-3.78771 -7.37018,-8.87896 -8.33661,-14.82262 -0.72885,-4.48546 -0.71592,-8.96445 0.59715,-13.36749 1.89971,-6.36335 6.09832,-10.83911 11.72554,-14.07453 5.93105,-3.40268 12.38006,-5.46077 19.02381,-6.91282 7.12776,-1.55549 14.3525,-2.37323 21.64995,-2.51545 0.65371,-0.0121 1.30742,-0.0913 1.91588,-0.13898 0.0856,-0.11636 0.16726,-0.17939 0.16726,-0.24242 0.0889,-4.87089 0.19636,-9.73775 -0.9341,-14.53915 -1.35994,-5.78884 -4.99614,-9.16 -10.78255,-10.1442 -9.14707,-1.54983 -17.99759,-0.41049 -26.51035,3.27581 -3.17885,1.37934 -6.32537,2.83786 -9.61493,4.3182 -1.36963,-2.83462 -2.75866,-5.71611 -4.20102,-8.70507 1.01329,-0.68522 1.93203,-1.36721 2.90734,-1.95062 8.09581,-4.85151 16.75078,-8.27681 26.05623,-9.91795 4.73757,-0.83956 9.53574,-0.75148 14.3331,-0.3822 3.60146,0.27796 7.13342,0.88723 10.5361,2.0993 7.32655,2.60433 11.57525,7.94793 13.48466,15.33427 1.25893,4.86686 1.68235,9.83795 1.69205,14.8349 0.0347,17.43276 0.0121,34.86634 0.0121,52.29886 0,0.49242 0,0.9817 0,1.61294 3.25723,0 6.47405,0 9.77896,0 0,2.57249 0,5.00616 0,7.87529 z m -26.71317,-46.74695 c -0.54947,0 -0.95349,-0.0218 -1.35428,0.007 -3.67418,0.24323 -7.36695,0.33453 -11.01527,0.783 -4.67535,0.57452 -9.22949,1.72033 -13.45314,3.90447 -3.08997,1.59751 -5.86156,3.59823 -7.95117,6.43285 -3.41803,4.64626 -3.40268,9.81048 -2.26576,15.13469 0.70704,3.31136 2.23425,6.14583 5.0212,8.16909 4.15092,3.01441 8.84163,3.8004 13.76585,2.84399 6.14195,-1.1963 11.38213,-4.38429 16.40978,-7.96053 0.64078,-0.45469 0.86461,-0.93709 0.86219,-1.71686 -0.0291,-8.81577 -0.0194,-17.63558 -0.0194,-26.45459 0,-0.32483 0,-0.64643 0,-1.14257"
       style="fill:#ef2a44;fill-opacity:1;fill-rule:nonzero;stroke:none;stroke-width:0.808045" />
    <path
       id="path5-9"
       d="m -188.05245,-405.8386 c -1.38579,-2.86937 -2.76836,-5.72904 -4.20749,-8.71153 0.97855,-0.65695 1.89729,-1.32924 2.86614,-1.91265 8.08692,-4.87412 16.73219,-8.39316 26.05299,-9.91794 7.82511,-1.27833 15.6785,-1.00683 23.35735,1.17409 8.45943,2.40231 13.29234,8.2162 15.2462,16.63118 1.00359,4.32466 1.45771,8.71477 1.46418,13.14366 0.025,17.76083 0.0129,35.52248 0.0162,53.28355 0,0.48297 0,0.96901 0,1.54353 3.27904,0 6.46436,0 9.74664,0 0,2.52514 0,4.95873 0,7.60378 -2.33283,0.45768 -4.7408,1.05426 -7.18352,1.37942 -3.47864,0.46713 -6.98232,0.80481 -10.48601,1.05732 -1.19913,0.0852 -2.45241,-0.15151 -3.64266,-0.41032 -2.61322,-0.56499 -3.70247,-1.78336 -3.91417,-4.45686 -0.17293,-2.16216 -0.17616,-4.33378 -0.25211,-6.50541 -0.0162,-0.47343 -0.003,-0.95325 -0.003,-1.37933 -2.72068,2.08322 -5.34037,4.22648 -8.09661,6.17395 -4.41192,3.12172 -9.18828,5.51426 -14.61996,6.25605 -10.23308,1.39517 -19.68721,-0.13891 -27.37576,-7.73639 -3.53196,-3.48784 -5.39451,-7.86268 -6.16458,-12.69487 -0.79511,-4.98079 -0.79511,-9.95269 0.95027,-14.77834 2.15909,-5.95933 6.37224,-10.11996 11.81442,-13.11861 6.19933,-3.4245 12.89075,-5.48905 19.79388,-6.8999 6.6696,-1.36317 13.4087,-2.11142 20.21405,-2.24717 0.57129,-0.0129 1.14258,-0.0727 1.7171,-0.12282 0.15757,-0.01 0.30867,-0.0663 0.42584,-0.0953 0,-3.22572 0.0978,-6.41669 -0.038,-9.59877 -0.0792,-1.78013 -0.46058,-3.56348 -0.85895,-5.30886 -1.30015,-5.70641 -5.00261,-8.97011 -10.66862,-9.93976 -9.14384,-1.56519 -18.00082,-0.42261 -26.51358,3.2548 -3.18208,1.3761 -6.32537,2.84028 -9.63998,4.33355 z m 47.87991,26.40691 c -0.35069,-0.0259 -0.58664,-0.0727 -0.8234,-0.0541 -4.44425,0.33454 -8.91435,0.47029 -13.32062,1.06986 -4.58,0.62219 -9.01132,1.96678 -13.03619,4.3594 -3.88832,2.3102 -7.11403,5.22724 -8.67356,9.6521 -1.0949,3.10612 -0.99147,6.27205 -0.52685,9.4509 0.37817,2.61644 1.09167,5.15104 2.75544,7.25002 4.23577,5.34069 10.01168,6.58112 16.32493,5.47959 6.15812,-1.07639 11.39425,-4.34324 16.41948,-7.91948 0.69169,-0.49275 0.90016,-1.0196 0.89693,-1.83087 -0.0259,-8.73336 -0.0162,-17.46751 -0.0162,-26.19844 0,-0.40079 0,-0.79835 0,-1.25894"
       style="fill:#ef2a44;fill-opacity:1;fill-rule:nonzero;stroke:none;stroke-width:0.808045" />
    <path
       id="path6-1"
       d="m 308.00888,-340.5732 c 3.31379,0 6.4983,0 9.76522,0 0,2.52514 0,4.96511 0,7.60702 -3.02047,0.56183 -6.07569,1.24681 -9.16565,1.6792 -2.83139,0.39456 -5.69753,0.57452 -8.55397,0.72602 -1.12722,0.06 -2.29162,-0.11999 -3.40591,-0.3599 -2.85321,-0.61864 -3.92952,-1.90957 -4.14123,-4.81037 -0.0945,-1.26572 -0.16403,-2.5346 -0.19878,-3.80032 -0.0348,-1.26887 -0.006,-2.53774 -0.006,-4.01816 -1.16763,1.01959 -2.16557,1.95385 -3.23218,2.80609 -4.88625,3.88872 -9.93654,7.57858 -16.11323,9.09366 -9.76927,2.39885 -19.16602,1.73286 -27.65373,-4.29904 -5.72258,-4.06867 -8.6073,-9.7944 -9.42504,-16.66286 -0.50826,-4.26405 -0.4921,-8.50629 0.8234,-12.63863 1.81244,-5.67814 5.49551,-9.89209 10.48923,-13.00064 5.8551,-3.64913 12.32592,-5.76702 18.97937,-7.33624 5.81388,-1.37287 11.71665,-2.21243 17.69214,-2.51868 2.36677,-0.11959 4.73434,-0.27716 7.05424,-0.41291 0.0945,-0.13252 0.18019,-0.20201 0.18019,-0.26827 0.0727,-4.95251 0.17373,-9.89855 -1.02621,-14.77268 -1.40762,-5.6943 -5.07857,-8.91355 -10.74135,-9.87593 -9.41534,-1.59751 -18.47757,-0.30302 -27.18264,3.5756 -2.93562,1.30742 -5.85509,2.652 -8.89496,4.03134 -1.38903,-2.8726 -2.78371,-5.76056 -4.20749,-8.70588 3.85357,-2.81523 7.98914,-4.94605 12.27825,-6.78596 5.86802,-2.51545 11.89685,-4.5994 18.26343,-5.30886 7.61664,-0.85249 15.21388,-0.65694 22.59699,1.6977 7.54067,2.41121 12.05684,7.6829 14.08018,15.2268 1.15874,4.33032 1.71144,8.75275 1.72033,13.22205 0.0412,18.08647 0.0226,36.17618 0.0259,54.26225 0,0.48919 0,0.97846 0,1.6476 z m -16.83401,-38.85849 c -0.47917,-0.0259 -0.83956,-0.0792 -1.1959,-0.0509 -4.32143,0.32806 -8.67033,0.46704 -12.95701,1.06096 -4.58,0.63108 -9.01132,1.96274 -13.04589,4.34647 -4.24789,2.51545 -7.78955,5.70965 -8.99515,10.6969 -1.19995,4.96463 -0.66664,9.85735 1.73244,14.40898 0.68846,1.30047 1.73003,2.52514 2.87907,3.45625 4.56707,3.6994 9.85734,4.40644 15.40942,3.05547 5.60541,-1.36043 10.48277,-4.28329 15.13468,-7.61017 0.72967,-0.52402 1.06743,-1.06703 1.0642,-2.00759 -0.0412,-8.69861 -0.0259,-17.39479 -0.0259,-26.09097 0,-0.40079 0,-0.80158 0,-1.2654"
       style="fill:#ef2a44;fill-opacity:1;fill-rule:nonzero;stroke:none;stroke-width:0.808045" />
    <path
       id="path7-2"
       d="m 159.19848,-332.30965 c 0,-2.74606 0,-5.43224 0,-8.20674 4.16709,-0.34084 8.27034,-0.6786 12.43339,-1.02267 0,-23.54659 0,-46.9896 0,-70.57159 -2.69887,-0.68118 -5.45107,-1.36963 -8.19681,-2.07344 -1.21853,-0.31271 -2.8823,-0.29978 -3.51338,-1.09248 -0.63108,-0.79511 -0.25292,-2.41444 -0.27474,-3.67095 -0.025,-1.71709 -0.006,-3.43096 -0.006,-5.27087 9.09697,-1.20561 18.10264,-2.40232 27.24647,-3.61762 0,6.48052 0,12.8059 0,19.21046 1.66377,-1.96031 3.16269,-3.88912 4.82323,-5.66278 5.41309,-5.78237 11.7417,-10.17975 19.46257,-12.28471 4.10649,-1.12076 8.29458,-1.38256 12.50207,-0.442 0.60604,0.13575 0.90582,0.34423 0.90017,1.03511 -0.0226,5.94721 -0.0129,11.89361 -0.0129,17.66386 -2.1494,-0.57128 -4.26406,-1.3163 -6.44578,-1.67023 -4.59535,-0.74825 -9.14384,-0.063 -13.6099,1.03269 -5.20866,1.27832 -9.99956,3.54085 -14.37432,6.64698 -0.40725,0.29008 -0.78299,0.95349 -0.78299,1.44559 -0.038,19.39955 -0.0315,38.79909 -0.0315,58.19832 0,0.28087 0.0412,0.56498 0.0695,0.96585 7.03241,0.44823 14.03978,0.89015 21.09401,1.33837 0,2.73976 0,5.35006 0,8.04886 -17.05379,0 -34.09869,0 -51.28258,0"
       style="fill:#ef2a44;fill-opacity:1;fill-rule:nonzero;stroke:none;stroke-width:0.808045" />
    <path
       id="path8-7"
       d="m 74.30041,-273.02565 c 1.85931,0.19254 3.51661,0.36299 5.20785,0.53975 0,0.90905 0,1.71709 0,2.60089 -4.60505,0 -9.18181,0 -13.82807,0 0,-0.84908 0,-1.65081 0,-2.59773 1.13611,-0.13258 2.29808,-0.31249 3.46893,-0.39141 0.72886,-0.0505 1.02541,-0.23357 1.11753,-1.05739 0.74502,-6.66637 1.56842,-13.32644 2.35464,-19.98651 0.45412,-3.85712 0.88643,-7.71748 1.34459,-11.72611 -1.88759,-0.22415 -3.73721,-0.44507 -5.64339,-0.67229 0,-0.8996 0,-1.74239 0,-2.74299 0.96562,0 1.93446,0 2.90331,0 3.32107,0 6.64455,0.0316 9.96804,-0.0189 0.82744,-0.0126 1.19025,0.18941 1.44236,1.03527 2.81927,9.43772 5.69107,18.85969 8.55397,28.28473 0.0444,0.14836 0.14222,0.28096 0.23676,0.46091 0.985,-3.47209 1.89729,-6.89368 2.92593,-10.28367 1.86578,-6.15504 3.8067,-12.28479 5.69106,-18.43668 0.23353,-0.77015 0.55594,-1.07947 1.43347,-1.06686 4.21961,0.06 8.44003,0.0252 12.755,0.0252 0,0.92489 0,1.79604 0,2.74929 -1.85285,0.21462 -3.71216,0.43239 -5.66279,0.65969 0.30625,2.41153 0.59634,4.71252 0.8937,7.01359 0.61816,4.78508 1.24358,9.57024 1.85851,14.35541 0.43553,3.40575 0.87753,6.81472 1.28802,10.22366 0.0945,0.78279 0.46705,1.13946 1.24681,1.1584 0.48968,0.0126 0.97855,0.0789 1.46499,0.16414 2.20273,0.38508 2.20273,0.39139 2.01042,2.81869 -5.04382,0 -10.09734,0 -15.22357,0 0,-0.81752 0,-1.62241 0,-2.56302 1.54336,-0.17991 3.10612,-0.36299 4.77231,-0.55553 -1.12965,-11.05379 -2.25041,-22.03504 -3.39945,-33.25927 -3.71215,11.68821 -7.34189,23.12084 -10.99991,34.64809 -1.01006,0 -1.99507,0.0758 -2.95745,-0.0442 -0.32806,-0.0379 -0.74825,-0.51449 -0.87107,-0.88064 -3.61762,-10.76654 -7.19968,-21.54263 -10.78902,-32.31864 -0.1107,-0.33776 -0.23676,-0.66914 -0.60927,-0.99115 -0.97854,10.90546 -1.96274,21.81407 -2.95421,32.85527"
       style="fill:#ffffff;fill-opacity:1;fill-rule:nonzero;stroke:none;stroke-width:0.808045" />
    <path
       id="path9-0"
       d="m 222.59204,-286.95811 c 0,4.66832 0,9.24832 0,13.93246 1.71144,0.18307 3.40268,0.35983 5.11978,0.53975 0,0.91221 0,1.7234 0,2.60405 -5.06887,0 -10.09733,0 -15.34316,0 0,-0.69442 -0.0727,-1.4204 0.0444,-2.11797 0.038,-0.2462 0.51715,-0.54922 0.83309,-0.59972 1.12076,-0.18622 2.25364,-0.27461 3.42773,-0.40086 0,-10.90548 0,-21.71939 0,-32.66267 -1.29368,-0.2336 -2.60352,-0.47351 -3.96104,-0.71972 0,-0.89006 0,-1.7297 0,-2.67665 0.4517,0 0.85249,0.01 1.25005,0 4.99937,-0.11991 9.99633,-0.30302 14.99247,-0.32823 1.78416,-0.0126 3.5958,0.23353 5.35087,0.58074 5.42522,1.06371 8.1152,4.6242 7.80249,10.15107 -0.28443,5.07873 -2.66413,8.69917 -7.54391,10.7003 2.72392,1.96015 4.04022,4.90192 5.64662,7.62907 0.93167,1.58143 1.87466,3.16276 2.70856,4.79464 0.8832,1.73603 2.10819,2.89128 4.22285,2.91022 0,0.95324 0,1.82757 0,2.79659 -2.39262,0 -4.77555,0.11679 -7.13019,-0.0726 -0.66583,-0.0537 -1.46176,-0.88696 -1.84962,-1.5656 -1.09813,-1.90647 -2.01365,-3.91712 -3.00835,-5.88357 -1.19914,-2.3642 -2.37,-4.74413 -3.61034,-7.08617 -0.95027,-1.78336 -2.27627,-2.88181 -4.52667,-2.56304 -1.40762,0.19886 -2.86291,0.0379 -4.42567,0.0379 z m -0.006,-2.96706 c 2.37646,0 4.63333,0.1326 6.87161,-0.0315 3.1336,-0.23045 5.33068,-1.92234 6.01267,-5.03452 0.39432,-1.8055 0.52361,-3.75297 0.3313,-5.58691 -0.28363,-2.65136 -1.68235,-4.66516 -4.45072,-5.4101 -2.90088,-0.78276 -5.81065,-0.53663 -8.76486,-0.16096 0,5.41955 0,10.73819 0,16.22401"
       style="fill:#ffffff;fill-opacity:1;fill-rule:nonzero;stroke:none;stroke-width:0.808045" />
    <path
       id="path10-9"
       d="m 167.1658,-269.92289 c -0.2618,-2.42098 -0.26503,-2.42729 1.94416,-2.78397 0.7232,-0.11678 1.44883,-0.19885 2.24717,-0.30616 0,-10.84551 0,-21.65627 0,-32.64059 -1.23065,-0.21147 -2.53402,-0.43877 -3.898,-0.67238 0,-0.9122 0,-1.78965 0,-2.73345 0.46058,0 0.86784,0.0127 1.27509,0 4.71252,-0.11991 9.42504,-0.37873 14.13756,-0.32193 2.79987,0.0348 5.66924,0.24622 8.37135,0.92166 5.48905,1.36673 9.1406,4.95558 10.72195,10.40673 1.85284,6.3981 1.56275,12.73617 -1.57488,18.69235 -3.39299,6.44861 -8.91678,9.80389 -16.19565,9.86702 -5.64662,0.0473 -11.29728,-0.27145 -17.02875,-0.42928 z m 10.02138,-36.16634 c 0,10.91491 -0.006,21.72567 0.0444,32.53961 0.003,0.29986 0.61816,0.82698 0.98178,0.86171 1.79224,0.16413 3.60145,0.32826 5.39047,0.25251 5.60298,-0.23989 9.64321,-2.89444 11.64473,-8.19095 2.18738,-5.77938 2.16799,-11.70082 0.2206,-17.52448 -1.50215,-4.4979 -4.74403,-7.19346 -9.4816,-8.0268 -2.89765,-0.50818 -5.77348,-0.32507 -8.80042,0.0884"
       style="fill:#ffffff;fill-opacity:1;fill-rule:nonzero;stroke:none;stroke-width:0.808045" />
    <path
       id="path11-3"
       d="m 281.45328,-269.91657 c 0,-0.81752 0,-1.62556 0,-2.57564 1.1046,-0.13258 2.22536,-0.29671 3.34935,-0.38825 0.61815,-0.0474 0.97208,-0.1736 0.96885,-0.91536 -0.0251,-10.54245 -0.0251,-21.08178 -0.0315,-31.62111 0,-0.0315 -0.0347,-0.0663 -0.13575,-0.24614 -1.20884,-0.20839 -2.52514,-0.43246 -3.88266,-0.66291 0,-0.89322 0,-1.73916 0,-2.58195 0.0727,-0.0473 0.13575,-0.12937 0.20525,-0.12937 6.30679,-0.0978 12.63217,-0.48927 18.9228,-0.21146 9.25454,0.41032 15.28013,5.77307 16.27807,15.52957 0.55512,5.43855 -0.13899,10.63404 -3.00836,15.35286 -3.5255,5.7952 -8.79718,8.80328 -15.5581,8.87587 -5.57066,0.06 -11.14536,-0.20516 -16.71926,-0.32826 -0.11393,-0.003 -0.23029,-0.0568 -0.38867,-0.0978 z m 10.06582,-2.75556 c 2.22859,0.0821 4.4289,0.32826 6.61304,0.21464 5.51087,-0.28409 9.44039,-2.98914 11.39182,-8.20353 2.1995,-5.88046 2.15829,-11.87769 0.11959,-17.77384 -1.43913,-4.16652 -4.51697,-6.74217 -8.84728,-7.66697 -3.07138,-0.65339 -6.16458,-0.45138 -9.27717,0.006 0,11.06012 0,22.04444 0,33.4234"
       style="fill:#ffffff;fill-opacity:1;fill-rule:nonzero;stroke:none;stroke-width:0.808045" />
    <path
       id="path12-6"
       d="m 160.12692,-269.85976 c -4.69393,0 -9.2707,0 -14.02766,0 0,-0.71967 -0.0881,-1.41724 0.0444,-2.06745 0.0566,-0.28093 0.55594,-0.61236 0.89612,-0.66917 1.11107,-0.1957 2.24475,-0.27777 3.46005,-0.41349 -0.77653,-2.47148 -1.4965,-4.83568 -2.28838,-7.17771 -0.0921,-0.26197 -0.59068,-0.53978 -0.90016,-0.54293 -4.63333,-0.0347 -9.26343,-0.0347 -13.89757,0.003 -0.30302,0 -0.77653,0.31247 -0.86784,0.58083 -0.77653,2.31052 -1.4868,4.64308 -2.2601,7.11457 1.4965,0.18307 2.92916,0.35667 4.4095,0.53975 0,0.90273 0,1.74234 0,2.61667 -4.18567,0 -8.30751,0 -12.47703,0 0,-0.87749 0,-1.68553 0,-2.58827 0.71028,-0.13573 1.4262,-0.38824 2.13971,-0.37245 0.94703,0.0189 1.23712,-0.4861 1.50539,-1.24995 4.00871,-11.52724 8.04328,-23.04511 12.07381,-34.56606 0.0663,-0.18932 0.1608,-0.37242 0.29655,-0.67229 1.75184,0 3.54166,-0.0379 5.32825,0.041 0.28039,0.01 0.65936,0.49558 0.78299,0.83641 2.95745,8.27616 5.88661,16.56177 8.81901,24.84738 1.0448,2.95131 2.15829,5.88047 3.10208,8.8696 0.38867,1.22469 0.84926,2.07377 2.26657,1.97907 1.53125,-0.10415 1.86578,0.73545 1.63548,2.03906 -0.0412,0.23673 -0.0258,0.48293 -0.0412,0.85223 z m -13.14689,-14.11554 c -2.27869,-7.08615 -4.52586,-14.07768 -6.73263,-20.93976 -2.13647,6.88107 -4.31173,13.88513 -6.49911,20.93976 4.4289,0 8.76567,0 13.23174,0"
       style="fill:#ffffff;fill-opacity:1;fill-rule:nonzero;stroke:none;stroke-width:0.808045" />
    <path
       id="path13-0"
       d="m -135.89879,-471.29025 c 3.55702,2.98572 7.00414,5.88014 10.60882,8.90465 -1.14904,1.41085 -2.16556,2.84675 -3.36793,4.10649 -6.15811,6.45466 -12.86892,12.27178 -20.3999,17.08854 -3.25077,2.08314 -3.29198,2.01688 -6.16135,-0.44847 -0.86461,-0.74178 -1.73326,-1.48357 -2.70533,-2.3199 7.33866,-9.10586 14.63369,-18.15596 22.02569,-27.33131"
       style="fill:#ef2a44;fill-opacity:1;fill-rule:nonzero;stroke:none;stroke-width:0.808045" />
    <path
       id="path14-6"
       d="m 260.16049,-305.64731 c -1.69528,-0.23676 -3.25804,-0.45452 -4.84262,-0.67552 0,-0.94687 0,-1.79281 0,-2.68611 5.16422,0 10.27429,0 15.44821,0 0,0.88384 0,1.72979 0,2.68611 -1.57811,0.221 -3.17885,0.44192 -4.8103,0.67237 0,10.89277 0,21.70991 0,32.61218 1.62822,0.20833 3.23219,0.41034 4.84504,0.6155 0,0.89012 0,1.66659 0,2.52515 -5.123,0 -10.22419,0 -15.40053,0 0,-0.83015 0,-1.6666 0,-2.61037 1.25005,-0.12625 2.50333,-0.27145 3.75903,-0.37877 0.57775,-0.0474 1.01329,-0.0947 1.01329,-0.87433 -0.0186,-10.57717 -0.0121,-21.15755 -0.0121,-31.88621"
       style="fill:#ffffff;fill-opacity:1;fill-rule:nonzero;stroke:none;stroke-width:0.808045" />
    <text
       xml:space="preserve"
       style="font-size:87.2792px;text-align:start;writing-mode:lr-tb;direction:ltr;text-anchor:start;fill:#f9f9f9;stroke-width:7.27325"
       x="-887.34991"
       y="-358.19446"
       id="text1-2"
       inkscape:export-filename="text1.png"
       inkscape:export-xdpi="96"
       inkscape:export-ydpi="96"><tspan
         sodipodi:role="line"
         id="tspan1-6"
         x="-887.34991"
         y="-358.19446"
         style="font-style:normal;font-variant:normal;font-weight:bold;font-stretch:normal;font-family:Roboto;-inkscape-font-specification:'Roboto Bold';fill:#f9f9f9;stroke-width:7.27325">Incubated @</tspan></text>
  </g>
</svg>
