<?xml version="1.0" encoding="UTF-8" standalone="no"?>
<svg
   id="Capa_1"
   viewBox="0 0 257.29 63"
   version="1.1"
   sodipodi:docname="Cofinanciado_.svg"
   inkscape:export-filename="Cofinanciado_.png"
   inkscape:export-xdpi="96"
   inkscape:export-ydpi="96"
   inkscape:version="1.4.2 (2aeb623e1d, 2025-05-12)"
   xmlns:inkscape="http://www.inkscape.org/namespaces/inkscape"
   xmlns:sodipodi="http://sodipodi.sourceforge.net/DTD/sodipodi-0.dtd"
   xmlns="http://www.w3.org/2000/svg"
   xmlns:svg="http://www.w3.org/2000/svg">
  <sodipodi:namedview
     id="namedview42"
     pagecolor="#ffffff"
     bordercolor="#000000"
     borderopacity="0.25"
     inkscape:showpageshadow="2"
     inkscape:pageopacity="0.0"
     inkscape:pagecheckerboard="0"
     inkscape:deskcolor="#d1d1d1"
     inkscape:zoom="0.60874557"
     inkscape:cx="-36.961255"
     inkscape:cy="-316.22407"
     inkscape:window-width="3774"
     inkscape:window-height="1531"
     inkscape:window-x="66"
     inkscape:window-y="32"
     inkscape:window-maximized="1"
     inkscape:current-layer="Capa_1" />
  <defs
     id="defs1">
    <style
       id="style1">
      .cls-1 {
        fill: #fff200;
      }

      .cls-2 {
        fill: #fff;
      }

      .cls-3 {
        fill-rule: evenodd;
      }

      .cls-3, .cls-4 {
        fill: #034ea2;
      }
    </style>
  </defs>
  <path
     class="cls-2"
     d="m -1254.5827,-290.45178 h 945.62307 v 643.50356 h -945.62307 z"
     id="path1"
     style="stroke-width:10.9068" />
  <path
     class="cls-4"
     d="m -1237.1317,-273.00084 h 910.72113 v 607.51099 h -910.72113 z"
     id="path2"
     style="stroke-width:10.9068" />
  <path
     class="cls-1"
     d="m -800.85812,-141.02807 18.54163,-13.08821 19.63231,13.08821 -7.63478,-21.81368 19.63231,-14.1789 h -23.99505 l -7.63479,-22.90436 -6.5441,22.90436 h -23.99505 l 18.54163,14.1789 -6.54411,21.81368"
     id="path3"
     style="stroke-width:10.9068" />
  <path
     class="cls-1"
     d="m -900.11036,-113.76097 18.54163,-14.17889 19.63231,14.17889 -7.63479,-22.90437 19.63231,-14.17889 h -23.99504 l -7.63479,-22.90436 -7.63479,22.90436 h -23.99505 l 19.63231,14.17889 -6.5441,22.90437"
     id="path4"
     style="stroke-width:10.9068" />
  <path
     class="cls-1"
     d="m -953.55388,-100.67276 -7.63478,22.904359 h -23.99505 l 19.63231,14.178892 -7.63479,22.904365 19.63231,-14.178892 18.54163,14.178892 -7.63479,-22.904365 19.63232,-14.178892 h -23.99505 l -6.54411,-22.904359"
     id="path5"
     style="stroke-width:10.9068" />
  <path
     class="cls-1"
     d="m -980.82098,44.388208 19.63232,14.178892 -7.63479,-22.904364 19.63231,-14.178892 h -23.99505 l -7.63479,-22.9043642 -7.63478,22.9043642 h -23.99504 l 19.6323,14.178892 -6.5441,22.904364 18.54162,-14.178892"
     id="path6"
     style="stroke-width:10.9068" />
  <path
     class="cls-1"
     d="m -947.00977,121.82677 -6.54411,-23.995046 -7.63478,23.995046 h -23.99505 l 19.63231,13.08821 -7.63479,22.90436 19.63231,-14.17889 18.54163,14.17889 -7.63479,-22.90436 19.63232,-13.08821 h -23.99505"
     id="path7"
     style="stroke-width:10.9068" />
  <path
     class="cls-1"
     d="m -873.93394,193.81192 -7.63479,-22.90437 -6.54411,22.90437 h -23.99504 l 18.54162,14.17889 -6.5441,22.90436 18.54163,-14.17889 19.63231,14.17889 -7.63479,-22.90436 19.63231,-14.17889 h -23.99504"
     id="path8"
     style="stroke-width:10.9068" />
  <path
     class="cls-1"
     d="m -774.6817,221.07902 -7.63479,-23.99505 -6.5441,23.99505 h -23.99505 l 18.54163,13.08821 -6.54411,22.90436 18.54163,-14.17889 19.63231,14.17889 -7.63478,-22.90436 19.63231,-13.08821 h -23.99505"
     id="path9"
     style="stroke-width:10.9068" />
  <path
     class="cls-1"
     d="m -675.42945,193.81192 -7.63479,-22.90437 -6.54411,22.90437 h -23.99504 l 18.54162,14.17889 -6.5441,22.90436 18.54163,-14.17889 19.63231,14.17889 -7.63479,-22.90436 19.63231,-14.17889 h -23.99504"
     id="path10"
     style="stroke-width:10.9068" />
  <path
     class="cls-1"
     d="m -602.35363,121.82677 -7.63478,-23.995046 -7.63479,23.995046 h -23.99505 l 19.63231,13.08821 -7.63479,22.90436 19.63232,-14.17889 19.63231,14.17889 -7.63479,-22.90436 19.63231,-13.08821 h -23.99505"
     id="path11"
     style="stroke-width:10.9068" />
  <path
     class="cls-1"
     d="m -552.18216,21.483844 h -23.99505 l -7.63479,-22.9043642 -6.5441,22.9043642 h -25.08573 l 19.63231,14.178892 -6.54411,22.904364 18.54163,-14.178892 19.63231,14.178892 -7.63478,-22.904364 19.63231,-14.178892"
     id="path12"
     style="stroke-width:10.9068" />
  <path
     class="cls-1"
     d="m -629.62073,-41.775828 19.63232,-13.088208 19.63231,13.088208 -7.63479,-21.813681 19.63231,-14.178892 h -23.99505 l -7.63478,-22.904359 -7.63479,22.904359 h -23.99505 l 19.63231,14.178892 -7.63479,21.813681"
     id="path13"
     style="stroke-width:10.9068" />
  <path
     class="cls-1"
     d="m -681.97356,-173.74859 -7.63479,22.90436 h -23.99504 l 19.63231,14.17889 -7.63479,22.90437 19.63231,-14.17889 18.54163,14.17889 -7.63479,-22.90437 19.63231,-14.17889 h -23.99504 l -6.54411,-22.90436"
     id="path14"
     style="stroke-width:10.9068" />
  <path
     class="cls-4"
     d="m -94.094879,-94.128661 29.448468,9.816156 c -4.362736,16.033055 -11.997524,28.030579 -22.904364,35.992573 -10.143361,7.961993 -23.231565,11.997524 -39.264625,11.997524 -19.63231,0 -35.99257,-6.87131 -49.08078,-20.722996 -12.32473,-13.088209 -18.54163,-31.629837 -18.54163,-55.624886 0,-24.75853 6.2169,-43.95456 18.54163,-57.80625 13.08821,-13.85169 30.21195,-20.723 51.26215,-20.723 18.21442,0 33.047724,5.45342 44.718043,16.36026 6.544104,6.54411 11.670319,15.59678 15.269576,27.2671 l -30.539152,7.63479 c -1.417889,-7.96199 -5.126217,-14.17889 -10.906837,-18.54163 -5.78063,-4.36273 -12.76101,-6.5441 -20.723,-6.5441 -10.90684,0 -19.63231,4.03553 -26.17642,11.99752 -7.30758,7.962 -10.90684,20.723 -10.90684,38.17394 0,18.868836 3.59926,32.393318 10.90684,40.355311 6.54411,7.961994 15.26958,11.997524 26.17642,11.997524 7.96199,0 14.94237,-2.508573 20.723,-7.634788 5.78062,-5.126214 9.816153,-13.088208 11.997521,-23.995048 z"
     id="path15"
     style="stroke-width:10.9068" />
  <path
     class="cls-3"
     d="m -46.104783,-94.128661 c 0,-10.143359 2.508573,-19.632309 7.634788,-28.357779 4.362736,-8.72548 10.90684,-15.26958 19.632312,-19.63232 8.725472,-5.12621 18.21442307,-7.63479 28.3577843,-7.63479 16.6874657,0 30.2119467,5.45343 40.3553087,16.36027 10.90684,10.14336 16.36026,23.66784 16.36026,40.355303 0,16.033055 -5.45342,29.448468 -16.36026,40.355309 -10.143362,10.90684 -23.23157,16.36026 -39.264625,16.36026 -10.14336092,0 -19.6323118,-2.181368 -28.357784,-6.544104 -9.488951,-4.362736 -16.36026,-10.90684 -20.722996,-19.632313 -5.126215,-8.725472 -7.634788,-19.305106 -7.634788,-31.629836 z m 29.448468,1.090684 c 0,10.90684 2.508573,19.305107 7.6347882,25.085732 5.1262149,5.126215 11.6703189,7.634788 19.6323118,7.634788 7.307583,0 13.415414,-2.508573 18.541628,-7.634788 5.126215,-5.780625 7.634788,-14.178892 7.634788,-25.085732 0,-10.906843 -3.272052,-18.541623 -7.634788,-25.085733 -5.126214,-5.12621 -11.234045,-7.63479 -18.541628,-7.63479 -7.9619929,0 -14.5060969,2.50858 -19.6323118,7.63479 -5.1262152,5.78063 -7.6347882,14.17889 -7.6347882,25.085733 z"
     id="path16"
     style="stroke-width:10.9068" />
  <path
     class="cls-4"
     d="m 76.051826,-147.57218 h 16.36026 v -7.63479 c 0,-9.48895 1.090684,-16.36026 3.272052,-20.72299 1.417889,-4.36274 4.689942,-7.96199 9.816152,-10.90684 5.78063,-2.94485 12.32473,-4.36274 19.63232,-4.36274 8.72547,0 16.36026,1.09069 23.99504,4.36274 l -3.27205,19.63231 c -4.36273,-1.41789 -8.72547,-2.18137 -13.08821,-2.18137 -4.36273,0 -7.30758,1.09069 -8.72547,3.27205 -2.18137,2.18137 -3.27205,5.78063 -3.27205,10.90684 v 7.63479 h 21.81368 v 22.90437 h -21.81368 v 86.164034 H 92.412086 v -86.164034 h -16.36026 z m 80.710614,-40.35531 h 28.35779 v 26.17642 h -28.35779 z m 0,41.446 h 28.35779 v 107.977714 h -28.35779 z"
     id="path17"
     style="stroke-width:10.9068" />
  <path
     class="cls-4"
     d="m 313.82094,-38.503776 h -28.35779 v -55.624885 c 0,-11.670319 -0.76347,-19.305109 -2.18136,-22.904359 -0.76348,-3.59926 -2.50858,-6.2169 -5.45342,-7.63479 -2.94485,-2.18137 -6.2169,-3.27205 -9.81616,-3.27205 -5.12621,0 -9.81616,1.41788 -14.17889,4.36273 -3.59926,2.94485 -6.2169,6.54411 -7.63479,10.90684 -1.41789,4.36274 -2.18137,12.761004 -2.18137,25.085733 v 49.080781 H 215.65938 V -147.57218 h 26.17641 v 16.36026 c 9.48896,-12.32473 21.48648,-18.54163 35.99258,-18.54163 6.5441,0 12.32473,1.09069 17.45094,3.27206 5.12622,2.18137 9.05268,5.12621 11.99753,8.72547 2.18136,3.59926 4.03553,7.63479 5.45342,11.99752 0.76347,4.36274 1.09068,10.90684 1.09068,19.63232 z"
     id="path18"
     style="stroke-width:10.9068" />
  <path
     class="cls-3"
     d="m 363.9924,-113.76097 -25.08573,-5.45342 c 2.94485,-10.14336 7.63479,-17.77815 14.17889,-22.90437 7.30759,-5.12621 18.21443,-7.63479 32.72052,-7.63479 12.32473,0 21.81368,1.41789 28.35779,4.36274 5.78062,2.94485 10.14336,6.87131 13.08821,11.99753 2.18136,4.36273 3.27205,12.761 3.27205,25.08573 v 33.811201 c 0,9.488951 0.3272,16.36026 1.09068,20.722997 1.41789,4.362736 3.27205,9.48895 5.45342,15.269576 h -28.35778 c -0.76348,-2.181368 -1.85417,-5.126215 -3.27205,-8.725472 0,-2.181368 0,-3.272052 0,-3.272052 -5.12622,4.362736 -10.57964,7.634788 -16.36026,9.816156 -5.12622,2.944846 -10.90684,4.362736 -17.45095,4.362736 -10.90684,0 -19.63231,-3.272052 -26.17641,-9.816156 -6.54411,-5.780626 -9.81616,-13.415414 -9.81616,-22.904365 0,-5.780625 1.41789,-11.234045 4.36274,-16.36026 2.94484,-4.362736 6.8713,-7.961993 11.99752,-10.90684 5.12621,-2.181368 12.761,-4.362731 22.90436,-6.544101 13.08821,-2.18137 22.57716,-4.36274 28.35779,-6.54411 v -3.27205 c 0,-5.12621 -1.41789,-9.05268 -4.36274,-11.99752 -2.94485,-2.18137 -7.96199,-3.27205 -15.26957,-3.27205 -5.12622,0 -9.05268,1.09068 -11.99753,3.27205 -2.94485,2.18137 -5.45342,5.78062 -7.63479,10.90684 z m 38.17394,22.904361 h 1.09069 z m -17.45094,4.362736 c -7.96199,1.41789 -13.41541,3.272052 -16.36026,5.45342 -3.59926,2.181368 -5.45342,5.45342 -5.45342,9.816156 0,3.599258 1.41789,6.87131 4.36274,9.816156 2.94484,2.944847 6.8713,4.362737 11.99752,4.362737 5.12621,0 9.81616,-1.41789 14.17889,-4.362737 3.59926,-2.944846 5.78063,-6.216898 6.54411,-9.816156 0.76347,-2.181368 1.41788,-6.871309 2.18136,-14.178892 v -5.45342 c -4.36273,1.41789 -10.14336,2.944847 -17.45094,4.362736 z"
     id="path19"
     style="stroke-width:10.9068" />
  <path
     class="cls-4"
     d="m 557.04347,-38.503776 h -28.35778 v -55.624885 c 0,-11.670319 -0.76348,-19.305109 -2.18137,-22.904359 -0.76348,-3.59926 -2.50857,-6.2169 -5.45342,-7.63479 -2.94485,-2.18137 -6.2169,-3.27205 -9.81616,-3.27205 -5.12621,0 -9.48895,1.41788 -13.0882,4.36273 -4.36274,2.94485 -7.30759,6.54411 -8.72548,10.90684 -1.41789,4.36274 -2.18136,12.761004 -2.18136,25.085733 v 49.080781 H 458.88191 V -147.57218 h 26.17642 v 16.36026 c 9.48895,-12.32473 21.48647,-18.54163 35.99257,-18.54163 6.5441,0 12.32473,1.09069 17.45094,3.27206 5.12622,2.18137 9.05268,5.12621 11.99753,8.72547 2.18137,3.59926 4.03553,7.63479 5.45342,11.99752 0.76348,4.36274 1.09068,10.90684 1.09068,19.63232 z"
     id="path20"
     style="stroke-width:10.9068" />
  <path
     class="cls-4"
     d="m 680.29077,-114.85166 -28.35779,4.36274 c -0.76348,-5.12622 -2.50857,-9.05268 -5.45342,-11.99752 -3.59926,-2.94485 -7.96199,-4.36274 -13.08821,-4.36274 -7.30758,0 -13.08821,2.50857 -17.45094,7.63479 -4.36274,4.36273 -6.54411,12.32473 -6.54411,23.995045 0,13.088208 2.18137,22.140886 6.54411,27.2671 4.36273,5.126215 10.14336,7.634788 17.45094,7.634788 5.12622,0 9.48895,-1.417889 13.08821,-4.362736 3.59926,-2.944846 6.2169,-7.961993 7.63479,-15.269576 l 28.35778,4.362736 c -2.94484,13.088208 -8.72547,22.904365 -17.45094,29.448469 -7.96199,6.544104 -18.86883,9.816156 -32.72052,9.816156 -16.03306,0 -28.68499,-5.126215 -38.17394,-15.269576 -9.48895,-10.143362 -14.17889,-23.995049 -14.17889,-41.445993 0,-17.450943 4.68994,-31.302633 14.17889,-41.445993 9.48895,-10.14336 22.14088,-15.26958 38.17394,-15.26958 13.08821,0 23.66784,2.94485 31.62984,8.72548 7.96199,5.78062 13.41541,14.50609 16.36026,26.17641 z"
     id="path21"
     style="stroke-width:10.9068" />
  <path
     class="cls-4"
     d="m 702.10445,-187.92749 h 28.35778 v 26.17642 h -28.35778 z m 0,41.446 h 28.35778 v 107.977714 h -28.35778 z"
     id="path22"
     style="stroke-width:10.9068" />
  <path
     class="cls-3"
     d="m 781.72438,-113.76097 -26.17642,-5.45342 c 2.94485,-10.14336 7.96199,-17.77815 15.26958,-22.90437 7.30758,-5.12621 17.77815,-7.63479 31.62983,-7.63479 13.08821,0 22.57716,1.41789 28.35779,4.36274 6.5441,2.94485 10.90684,6.87131 13.08821,11.99753 2.94484,4.36273 4.36273,12.761 4.36273,25.08573 v 33.811201 c 0,9.488951 0.32721,16.36026 1.09069,20.722997 0.76347,4.362736 2.18136,9.48895 4.36273,15.269576 h -27.2671 c -0.76348,-2.181368 -1.85416,-5.126215 -3.27205,-8.725472 -0.76348,-2.181368 -1.09068,-3.272052 -1.09068,-3.272052 -5.12622,4.362736 -10.14337,7.634788 -15.26958,9.816156 -5.78063,2.944846 -11.99752,4.362736 -18.54163,4.362736 -10.90684,0 -19.63231,-3.272052 -26.17641,-9.816156 -6.54411,-5.780626 -9.81616,-13.415414 -9.81616,-22.904365 0,-5.780625 1.41789,-11.234045 4.36274,-16.36026 2.94484,-4.362736 7.30758,-7.961993 13.0882,-10.90684 5.12622,-2.181368 12.76101,-4.362731 22.90437,-6.544101 13.08821,-2.18137 22.14088,-4.36274 27.2671,-6.54411 v -3.27205 c 0,-5.12621 -1.41789,-9.05268 -4.36274,-11.99752 -2.18137,-2.18137 -7.30758,-3.27205 -15.26957,-3.27205 -5.12622,0 -9.05268,1.09068 -11.99753,3.27205 -2.94485,2.18137 -5.12621,5.78062 -6.5441,10.90684 z m 38.17394,22.904361 z m -17.45095,4.362736 c -7.96199,1.41789 -13.0882,3.272052 -15.26957,5.45342 -3.59926,2.181368 -5.45342,5.45342 -5.45342,9.816156 0,3.599258 1.41789,6.87131 4.36273,9.816156 2.94485,2.944847 6.54411,4.362737 10.90684,4.362737 5.12622,0 10.14337,-1.41789 15.26958,-4.362737 2.94485,-2.944846 5.12621,-6.216898 6.5441,-9.816156 0.76348,-2.181368 1.09069,-6.871309 1.09069,-14.178892 v -5.45342 c -3.59926,1.41789 -9.48895,2.944847 -17.45095,4.362736 z"
     id="path23"
     style="stroke-width:10.9068" />
  <path
     class="cls-3"
     d="m 975.86613,-38.503776 h -27.2671 v -16.36026 c -4.36274,5.780625 -9.48895,10.579634 -15.26958,14.178892 -5.78062,2.944846 -11.99752,4.362736 -18.54162,4.362736 -12.32473,0 -22.90437,-5.126215 -31.62984,-15.269576 -8.72547,-10.143362 -13.08821,-23.995049 -13.08821,-41.445993 0,-18.541623 4.36274,-32.720523 13.08821,-42.536673 7.96199,-9.48895 18.86883,-14.1789 32.72052,-14.1789 11.67032,0 21.81368,5.12622 30.53915,15.26958 v -53.44352 h 29.44847 z m -76.34788,-56.715569 c 0,11.670319 1.41789,19.959518 4.36274,25.085732 4.36273,7.307583 10.90684,10.90684 19.63231,10.90684 6.5441,0 11.99752,-2.944846 16.36026,-8.725472 4.36273,-5.126214 6.5441,-13.415413 6.5441,-25.085732 0,-12.324733 -2.18137,-21.050203 -6.5441,-26.176413 -4.36274,-5.78063 -9.81616,-8.72547 -16.36026,-8.72547 -7.30758,0 -13.08821,2.94484 -17.45095,8.72547 -4.36273,5.12621 -6.5441,13.08821 -6.5441,23.995045 z"
     id="path24"
     style="stroke-width:10.9068" />
  <path
     class="cls-3"
     d="m 996.58913,-94.128661 c 0,-10.143359 2.50857,-19.632309 7.63477,-28.357779 4.3628,-8.72548 10.9069,-15.26958 19.6323,-19.63232 8.7255,-5.12621 18.2144,-7.63479 28.3578,-7.63479 16.6875,0 30.212,5.45343 40.3553,16.36027 10.9069,10.14336 16.3603,23.66784 16.3603,40.355303 0,16.687466 -5.4534,29.448468 -16.3603,40.355309 -10.1433,10.90684 -23.2315,16.36026 -39.2646,16.36026 -10.1434,0 -19.6323,-2.181368 -28.3578,-6.544104 -9.4889,-4.362736 -16.3602,-10.90684 -20.723,-19.632313 -5.1262,-8.725472 -7.63477,-19.305106 -7.63477,-31.629836 z m 29.44847,1.090684 c 0,10.90684 2.5086,19.305107 7.6348,25.085732 5.1262,5.126215 11.6703,7.634788 19.6323,7.634788 7.3076,0 13.4154,-2.508573 18.5416,-7.634788 5.1262,-5.780625 7.6348,-14.178892 7.6348,-25.085732 0,-10.906843 -3.272,-18.541623 -7.6348,-25.085733 -5.1262,-5.12621 -11.234,-7.63479 -18.5416,-7.63479 -7.962,0 -14.5061,2.50858 -19.6323,7.63479 -5.1262,5.78063 -7.6348,14.17889 -7.6348,25.085733 z"
     id="path25"
     style="stroke-width:10.9068" />
  <path
     class="cls-3"
     d="m 1188.5495,-147.57218 h 26.1764 v 16.36026 c 3.5993,-5.78062 8.3983,-10.14336 14.1789,-13.0882 5.7806,-3.59926 12.3247,-5.45343 19.6323,-5.45343 12.3248,0 22.9044,5.12622 31.6299,15.26958 8.7254,9.48895 13.0882,22.90437 13.0882,40.355309 0,17.450944 -4.3628,32.72052 -13.0882,42.536677 -8.7255,10.143361 -19.3051,15.269576 -31.6299,15.269576 -6.5441,0 -11.9975,-1.41789 -16.3602,-4.362736 -5.1262,-2.181368 -10.1434,-6.216899 -15.2696,-11.997524 V 1.8515318 h -28.3578 z m 27.2671,52.352835 c 0,12.32473 2.5086,21.486475 7.6348,27.2671 5.1262,5.780626 10.9068,8.725472 17.4509,8.725472 7.6348,0 11.9976,-3.272052 16.3603,-7.634788 4.3627,-5.780625 6.5441,-14.506097 6.5441,-26.176416 0,-11.670323 -2.1814,-20.395793 -6.5441,-26.176413 -4.3627,-5.12622 -9.8162,-7.63479 -16.3603,-7.63479 -6.5441,0 -13.0882,2.18137 -17.4509,7.63479 -5.1262,5.78062 -7.6348,13.85168 -7.6348,23.995045 z"
     id="path26"
     style="stroke-width:10.9068" />
  <path
     class="cls-3"
     d="m 1309.6154,-94.128661 c 0,-10.143359 2.1814,-19.632309 6.5441,-28.357779 5.1263,-8.72548 11.9976,-15.26958 20.723,-19.63232 8.7255,-5.12621 18.2145,-7.63479 28.3578,-7.63479 16.6875,0 30.212,5.45343 40.3553,16.36027 10.1434,10.14336 15.2696,23.66784 15.2696,40.355303 0,16.033055 -5.1262,29.448468 -15.2696,40.355309 -10.9068,10.90684 -24.3222,16.36026 -40.3553,16.36026 -9.4889,0 -18.8688,-2.181368 -28.3578,-6.544104 -8.7254,-4.362736 -15.2695,-10.90684 -19.6323,-19.632313 -5.1262,-8.725472 -7.6348,-19.305106 -7.6348,-31.629836 z m 29.4485,1.090684 c 0,10.90684 2.5086,19.305107 7.6348,25.085732 5.1262,5.126215 11.234,7.634788 18.5416,7.634788 7.3076,0 13.4154,-2.508573 18.5416,-7.634788 5.1263,-5.780625 7.6348,-14.178892 7.6348,-25.085732 0,-10.906843 -2.1813,-18.541623 -7.6348,-25.085733 -4.3627,-5.12621 -10.5796,-7.63479 -18.5416,-7.63479 -7.3076,0 -13.4154,2.50858 -18.5416,7.63479 -5.1262,5.78063 -7.6348,14.17889 -7.6348,25.085733 z"
     id="path27"
     style="stroke-width:10.9068" />
  <path
     class="cls-4"
     d="m 1471.0367,-38.503776 h -28.3578 V -147.57218 h 26.1764 v 15.26958 c 4.3627,-7.30758 8.3983,-11.99752 11.9975,-14.17889 3.5993,-2.18137 7.962,-3.27206 13.0882,-3.27206 6.5441,0 12.761,1.85417 18.5417,5.45343 l -8.7255,25.08573 c -5.1262,-2.94485 -9.489,-4.36274 -13.0882,-4.36274 -4.3628,0 -7.962,1.09069 -10.9069,3.27205 -2.9448,2.18137 -5.1262,6.2169 -6.5441,11.99753 -1.4179,5.78062 -2.1813,17.778147 -2.1813,35.992569 z"
     id="path28"
     style="stroke-width:10.9068" />
  <path
     class="cls-4"
     d="m -190.07507,61.839152 h 29.44847 V 211.26286 h -29.44847 z"
     id="path29"
     style="stroke-width:10.9068" />
  <path
     class="cls-3"
     d="m -110.45514,136.00566 -26.17642,-4.36273 c 2.94485,-10.14336 7.962,-17.77815 15.26958,-22.90437 7.30758,-5.12621 17.77815,-7.63478 31.629837,-7.63478 13.088208,0 22.577159,1.41789 28.357784,4.36273 6.544104,2.94485 10.90684,6.54411 13.088208,10.90684 2.944847,5.12622 4.362736,13.85169 4.362736,26.17642 v 33.8112 c 0,9.48895 0.327205,16.36026 1.090684,20.723 0.763479,4.36273 2.508573,9.05268 5.45342,14.17889 h -28.357784 c -0.763479,-1.41789 -1.854163,-4.36274 -3.272052,-8.72547 0,-1.41789 -0.327205,-2.50857 -1.090684,-3.27205 -4.362736,5.12621 -9.488951,8.72547 -15.269576,10.90684 -5.780625,2.18137 -11.670319,3.27205 -17.450943,3.27205 -11.67032,0 -20.723,-2.94485 -27.2671,-8.72547 -5.78063,-5.78063 -8.72547,-13.41542 -8.72547,-22.90437 0,-5.78062 1.41789,-11.23404 4.36273,-16.36026 2.94485,-4.36273 6.87131,-7.96199 11.99753,-10.90684 5.12621,-2.94484 12.761,-5.12621 22.904361,-6.5441 13.088208,-2.94485 22.140885,-5.45342 27.2671,-7.63479 v -2.18137 c 0,-5.78062 -1.417889,-9.81615 -4.362736,-11.99752 -2.181368,-2.18137 -7.307583,-3.27205 -15.269576,-3.27205 -5.126215,0 -9.052679,1.09068 -11.997529,3.27205 -2.18136,1.41789 -4.36273,4.68994 -6.5441,9.81615 z m 38.173941,22.90437 v 1.09068 c 0,0 0,0 0,0 z m -17.450944,4.36273 c -7.961993,1.41789 -13.088207,2.94485 -15.269577,4.36274 -3.59926,2.94485 -5.45342,6.2169 -5.45342,9.81616 0,4.36273 1.41789,7.96199 4.36274,10.90684 2.94484,2.94484 6.544101,4.36273 10.906837,4.36273 5.126215,0 10.143361,-1.85416 15.269576,-5.45342 3.599257,-2.18137 5.780625,-5.12621 6.544104,-8.72547 0.763479,-2.94485 1.090684,-7.63479 1.090684,-14.17889 v -5.45342 c -3.599257,0.76348 -9.488951,2.18137 -17.450944,4.36273 z"
     id="path30"
     style="stroke-width:10.9068" />
  <path
     class="cls-4"
     d="m 42.240622,61.839152 h 30.539152 v 80.710618 c 0,13.08821 0.327205,21.48647 1.090684,25.08573 0.763478,6.5441 3.599257,11.67032 8.725472,15.26958 5.126215,3.59925 11.670319,5.45342 19.63231,5.45342 8.72547,0 15.26958,-1.85417 19.63231,-5.45342 4.36274,-3.59926 6.87131,-7.962 7.63479,-13.08821 0.76348,-5.12622 1.09069,-13.41541 1.09069,-25.08573 V 61.839152 h 30.53915 V 140.3684 c 0,18.21442 -0.76348,30.86636 -2.18137,38.17394 -1.41789,7.30758 -4.36274,13.41541 -8.72547,18.54163 -5.12622,5.12621 -11.23405,9.05268 -18.54163,11.99752 -7.30758,3.59926 -16.68747,5.45342 -28.35778,5.45342 -13.851691,0 -24.758531,-1.85416 -32.720524,-5.45342 -7.307583,-2.94484 -13.088208,-7.30758 -17.450944,-13.08821 -3.599258,-5.12621 -6.216899,-10.57963 -7.634788,-16.36026 -2.181368,-8.72547 -3.272052,-21.48647 -3.272052,-38.17394 z"
     id="path31"
     style="stroke-width:10.9068" />
  <path
     class="cls-4"
     d="m 290.91657,211.26286 h -28.35778 v -54.5342 c 0,-12.32473 -0.76348,-19.95952 -2.18137,-22.90436 -0.76348,-3.59926 -2.50857,-6.54411 -5.45342,-8.72548 -2.94484,-1.41788 -6.2169,-2.18136 -9.81615,-2.18136 -5.12622,0 -9.81616,1.41789 -14.1789,4.36273 -3.59925,2.18137 -6.21689,5.45342 -7.63478,9.81616 -1.41789,5.12621 -2.18137,13.41541 -2.18137,25.08573 v 49.08078 H 192.75501 V 103.28514 h 26.17642 v 16.36026 c 9.48895,-12.32472 21.48648,-18.54162 35.99257,-18.54162 6.54411,0 12.32473,1.09068 17.45095,3.27205 5.12621,2.18137 9.05267,5.12621 11.99752,8.72547 2.18137,3.59926 4.03553,7.63479 5.45342,11.99752 0.76348,4.36274 1.09068,10.90684 1.09068,19.63232 z"
     id="path32"
     style="stroke-width:10.9068" />
  <path
     class="cls-4"
     d="m 320.36504,61.839152 h 28.35779 v 27.2671 h -28.35779 z m 0,40.355308 h 28.35779 v 107.97772 h -28.35779 z"
     id="path33"
     style="stroke-width:10.9068" />
  <path
     class="cls-3"
     d="m 371.62719,155.63798 c 0,-9.48895 2.18137,-18.54163 6.54411,-27.2671 5.12621,-8.72548 11.99752,-15.59678 20.72299,-20.723 7.96199,-4.36274 17.45095,-6.5441 28.35779,-6.5441 16.03305,0 29.44846,5.12621 40.3553,15.26957 10.14337,10.90684 15.26958,24.32226 15.26958,40.35531 0,16.03306 -5.12621,30.53915 -15.26958,41.44599 -10.90684,10.14336 -24.32225,15.26958 -40.3553,15.26958 -10.14337,0 -19.63232,-2.18137 -28.35779,-6.54411 -8.72547,-4.36273 -15.59678,-10.90684 -20.72299,-19.63231 -4.36274,-8.72547 -6.54411,-19.3051 -6.54411,-31.62983 z m 29.44847,2.18136 c 0,10.14337 2.50857,18.21443 7.63479,23.99505 5.12621,5.78063 11.23404,8.72547 18.54163,8.72547 7.30758,0 13.41541,-2.94484 18.54162,-8.72547 5.12622,-5.78062 7.63479,-14.17889 7.63479,-25.08573 0,-9.81616 -2.18137,-18.54163 -7.63479,-23.99505 -5.12621,-5.78062 -11.23404,-8.72547 -18.54162,-8.72547 -7.30759,0 -13.41542,2.94485 -18.54163,8.72547 -5.12622,5.78063 -7.63479,14.17889 -7.63479,25.08573 z m 11.99752,-67.622404 14.1789,-30.539152 h 31.62983 l -28.35778,30.539152 z"
     id="path34"
     style="stroke-width:10.9068" />
  <path
     class="cls-4"
     d="M 603.94288,211.26286 H 575.5851 v -54.5342 c 0,-12.32473 -0.76348,-19.95952 -2.18137,-22.90436 -1.41789,-3.59926 -3.59925,-6.54411 -6.5441,-8.72548 -2.18137,-1.41788 -5.45342,-2.18136 -9.81616,-2.18136 -4.36273,0 -8.72547,1.41789 -13.08821,4.36273 -3.59925,2.18137 -6.21689,5.45342 -7.63478,9.81616 -1.41789,5.12621 -2.18137,13.41541 -2.18137,25.08573 v 49.08078 H 505.78132 V 103.28514 h 26.17642 v 16.36026 c 9.48895,-12.32472 21.48648,-18.54162 35.99257,-18.54162 5.78063,0 11.23405,1.09068 16.36026,3.27205 5.78063,2.18137 9.81616,5.12621 11.99753,8.72547 2.94484,3.59926 4.68994,7.63479 5.45342,11.99752 1.41789,4.36274 2.18136,10.90684 2.18136,19.63232 z"
     id="path35"
     style="stroke-width:10.9068" />
  <path
     class="cls-4"
     d="M 691.19761,211.26286 V 61.839152 h 110.15908 v 25.085732 h -80.71062 v 33.811206 h 75.2572 v 25.08573 h -75.2572 v 40.35531 h 83.98267 v 25.08573 z"
     id="path36"
     style="stroke-width:10.9068" />
  <path
     class="cls-4"
     d="M 900.60893,211.26286 V 194.9026 c -3.59925,5.78063 -8.72547,10.57964 -15.26957,14.17889 -6.54411,2.94485 -13.41542,4.36274 -20.723,4.36274 -6.5441,0 -12.761,-1.41789 -18.54163,-4.36274 -5.78062,-2.94484 -10.14336,-7.30758 -13.0882,-13.08821 -2.18137,-5.78062 -3.27206,-13.85168 -3.27206,-23.99504 v -68.7131 h 28.35779 v 50.17147 c 0,14.5061 0.3272,23.66784 1.09068,27.2671 1.41789,3.59926 3.27205,6.5441 5.45342,8.72547 2.94485,1.41789 6.54411,2.18137 10.90684,2.18137 5.12622,0 9.48895,-1.09069 13.08821,-3.27205 4.36274,-2.94485 6.87131,-6.2169 7.63479,-9.81616 1.41789,-4.36274 2.18137,-14.17889 2.18137,-29.44847 v -45.80873 h 29.44846 v 107.97772 z"
     id="path37"
     style="stroke-width:10.9068" />
  <path
     class="cls-4"
     d="M 984.5916,211.26286 H 956.23382 V 103.28514 h 26.17641 v 15.26958 c 4.36274,-7.30758 8.39827,-11.99752 11.99753,-14.17889 3.59926,-2.18137 7.96204,-3.27205 13.08824,-3.27205 6.5441,0 12.761,1.85416 18.5416,5.45342 l -8.7255,25.08573 c -5.1262,-3.59926 -9.4889,-5.45342 -13.0882,-5.45342 -4.36272,0 -7.96198,1.09068 -10.90683,3.27205 -2.94484,2.18137 -5.12621,6.2169 -6.5441,11.99752 -1.41789,5.78063 -2.18137,18.21443 -2.18137,37.08326 z"
     id="path38"
     style="stroke-width:10.9068" />
  <path
     class="cls-3"
     d="m 1031.491,155.63798 c 0,-9.48895 2.5086,-18.54163 7.6348,-27.2671 4.3627,-8.72548 10.9068,-15.59678 19.6323,-20.723 8.7255,-4.36274 18.2144,-6.5441 28.3578,-6.5441 16.6875,0 30.2119,5.12621 40.3553,15.26957 10.9068,10.90684 16.3603,24.32226 16.3603,40.35531 -0.7635,16.68747 -6.2169,30.53915 -16.3603,41.44599 -10.9068,10.14336 -24.3222,15.26958 -40.3553,15.26958 -9.489,0 -18.8688,-2.18137 -28.3578,-6.54411 -8.7255,-4.36273 -15.2696,-10.90684 -19.6323,-19.63231 -5.1262,-8.72547 -7.6348,-19.3051 -7.6348,-31.62983 z m 29.4485,2.18136 c 0,10.14337 2.5086,18.21443 7.6348,23.99505 5.1262,5.78063 11.234,8.72547 18.5416,8.72547 7.962,0 14.5061,-2.94484 19.6323,-8.72547 5.1262,-5.78062 7.6348,-14.17889 7.6348,-25.08573 0,-9.81616 -3.2721,-18.54163 -7.6348,-23.99505 -5.1262,-5.78062 -11.6703,-8.72547 -19.6323,-8.72547 -7.3076,0 -13.4154,2.94485 -18.5416,8.72547 -5.1262,5.78063 -7.6348,14.17889 -7.6348,25.08573 z"
     id="path39"
     style="stroke-width:10.9068" />
  <path
     class="cls-3"
     d="m 1164.5545,103.28514 h 27.2671 v 16.36026 c 2.9448,-5.78062 7.6348,-10.57963 14.1789,-14.17889 5.7806,-2.94484 12.3247,-4.36273 19.6323,-4.36273 12.3247,0 22.9043,4.68994 31.6298,14.17889 8.7255,10.14336 13.0882,23.99505 13.0882,41.44599 0,17.45094 -4.3627,31.62984 -13.0882,42.53668 -8.7255,9.48895 -19.6323,14.17889 -32.7205,14.17889 -5.7806,0 -10.9069,-1.09068 -15.2696,-3.27205 -5.1262,-2.18137 -10.5796,-6.2169 -16.3603,-11.99753 v 54.5342 h -28.3577 z m 28.3577,52.35284 c 0,12.32473 2.5086,21.48647 7.6348,27.2671 4.3628,5.78062 10.1434,8.72547 17.451,8.72547 6.5441,0 11.9975,-3.27205 16.3602,-8.72547 4.3628,-5.12622 6.5441,-13.85169 6.5441,-26.17642 0,-10.90684 -2.1813,-19.30511 -6.5441,-25.08573 -4.3627,-5.78063 -10.1433,-8.72547 -17.4509,-8.72547 -6.5441,0 -11.9975,3.27205 -17.4509,8.72547 -4.3628,5.12621 -6.5442,13.08821 -6.5442,23.99505 z"
     id="path40"
     style="stroke-width:10.9068" />
  <path
     class="cls-3"
     d="m 1355.4242,177.45166 z m 28.3577,4.36273 c -3.5992,10.14336 -9.4889,18.21443 -17.4509,23.99505 -7.3076,5.12622 -17.1237,7.63479 -29.4485,7.63479 -18.8688,0 -32.7205,-5.78063 -41.446,-17.45095 -7.3075,-10.14336 -10.9068,-22.90436 -10.9068,-38.17394 0,-17.45094 4.6899,-31.30263 14.1789,-41.44599 9.4889,-10.14336 21.4865,-15.26957 35.9926,-15.26957 16.033,0 28.685,5.12621 38.1739,15.26957 8.7255,10.90684 13.0882,27.2671 13.0882,49.08078 h -71.9851 c 0,8.72547 2.1813,15.26958 6.5441,19.63231 4.3627,5.12622 10.1433,7.63479 17.4509,7.63479 4.3628,0 7.962,-1.41789 10.9069,-4.36273 2.9448,-2.18137 5.1262,-5.78063 6.5441,-10.90684 z m -26.1764,-33.8112 c -0.7634,-8.72547 -2.9448,-15.26958 -6.5441,-19.63231 -4.3627,-4.36274 -9.4889,-6.54411 -15.2695,-6.54411 -6.5442,0 -11.6704,2.50858 -15.2696,7.63479 -4.3628,4.36274 -6.5441,10.57964 -6.5441,18.54163 0,0 43.6273,0 43.6273,0 z"
     id="path41"
     style="stroke-width:10.9068" />
  <path
     class="cls-3"
     d="m 1430.6814,136.00566 -26.1765,-4.36273 c 2.9449,-10.14336 7.962,-17.77815 15.2696,-22.90437 7.3076,-5.12621 17.7782,-7.63478 31.6299,-7.63478 12.3247,0 21.8136,1.41789 28.3577,4.36273 6.5441,2.94485 10.9069,6.54411 13.0882,10.90684 2.9449,5.12622 4.3628,13.85169 4.3628,26.17642 l -1.0907,33.8112 c 0,9.48895 0.7635,16.36026 2.1814,20.723 0.7634,4.36273 2.1813,9.05268 4.3627,14.17889 h -28.3578 c -0.7635,-1.41789 -1.4179,-4.36274 -2.1813,-8.72547 -0.7635,-1.41789 -1.0907,-2.50857 -1.0907,-3.27205 -5.1262,5.12621 -10.1434,8.72547 -15.2696,10.90684 -5.7806,2.18137 -11.9975,3.27205 -18.5416,3.27205 -10.9069,0 -19.6323,-2.94485 -26.1765,-8.72547 -6.5441,-5.78063 -9.8161,-13.41542 -9.8161,-22.90437 0,-5.78062 1.4179,-11.23404 4.3627,-16.36026 2.9449,-4.36273 7.3076,-7.96199 13.0882,-10.90684 5.1263,-2.94484 12.3248,-5.12621 21.8137,-6.5441 13.8517,-2.94485 23.2316,-5.45342 28.3578,-7.63479 v -2.18137 c 0,-5.78062 -1.4179,-9.81615 -4.3627,-11.99752 -2.9449,-2.18137 -7.962,-3.27205 -15.2696,-3.27205 -5.1262,0 -9.0527,1.09068 -11.9975,3.27205 -2.9449,1.41789 -5.1262,4.68994 -6.5441,9.81615 z m 38.1739,22.90437 v 1.09068 c 0,0 0,0 0,0 z m -17.4509,4.36273 c -7.962,1.41789 -13.0883,2.94485 -15.2696,4.36274 -4.3628,2.94485 -6.5441,6.2169 -6.5441,9.81616 0,4.36273 1.8541,7.96199 5.4534,10.90684 2.9448,2.94484 6.5441,4.36273 10.9068,4.36273 5.1263,0 10.1434,-1.85416 15.2696,-5.45342 2.9449,-2.18137 5.1262,-5.12621 6.5441,-8.72547 0.7635,-2.94485 1.0907,-7.63479 1.0907,-14.17889 v -5.45342 c -3.5993,0.76348 -9.4889,2.18137 -17.4509,4.36273 z"
     id="path42"
     style="stroke-width:10.9068"
     inkscape:export-filename="path42.png"
     inkscape:export-xdpi="96"
     inkscape:export-ydpi="96" />
</svg>
