<?xml version="1.0" encoding="UTF-8" standalone="no"?>
<!-- Created with Inkscape (http://www.inkscape.org/) -->

<svg
   width="224mm"
   height="126mm"
   viewBox="0 0 224 126"
   version="1.1"
   id="svg1"
   inkscape:version="1.4.2 (2aeb623e1d, 2025-05-12)"
   sodipodi:docname="esa.svg"
   xmlns:inkscape="http://www.inkscape.org/namespaces/inkscape"
   xmlns:sodipodi="http://sodipodi.sourceforge.net/DTD/sodipodi-0.dtd"
   xmlns:xlink="http://www.w3.org/1999/xlink"
   xmlns="http://www.w3.org/2000/svg"
   xmlns:svg="http://www.w3.org/2000/svg">
  <sodipodi:namedview
     id="namedview1"
     pagecolor="#ffffff"
     bordercolor="#000000"
     borderopacity="0.25"
     inkscape:showpageshadow="2"
     inkscape:pageopacity="0.0"
     inkscape:pagecheckerboard="0"
     inkscape:deskcolor="#d1d1d1"
     inkscape:document-units="mm"
     inkscape:zoom="0.63370775"
     inkscape:cx="819.77852"
     inkscape:cy="516.01073"
     inkscape:window-width="2485"
     inkscape:window-height="1214"
     inkscape:window-x="1164"
     inkscape:window-y="32"
     inkscape:window-maximized="0"
     inkscape:current-layer="layer1" />
  <defs
     id="defs1"><clipPath
   id="SVGID_2_">
								<use
   xlink:href="#SVGID_1_"
   style="overflow:visible"
   id="use9" />

							</clipPath>
<clipPath
   id="clipPath1">
								<use
   xlink:href="#SVGID_1_"
   style="overflow:visible"
   id="use1" />

							</clipPath>
<clipPath
   id="SVGID_4_">
								<use
   xlink:href="#SVGID_3_"
   style="overflow:visible"
   id="use36" />

							</clipPath>
<clipPath
   id="clipPath2">
								<use
   xlink:href="#SVGID_3_"
   style="overflow:visible"
   id="use2" />

							</clipPath>
<clipPath
   id="clipPath3">
								<use
   xlink:href="#SVGID_3_"
   style="overflow:visible"
   id="use3" />

							</clipPath>
<clipPath
   id="clipPath4">
								<use
   xlink:href="#SVGID_3_"
   style="overflow:visible"
   id="use4" />

							</clipPath>
<clipPath
   id="clipPath5">
								<use
   xlink:href="#SVGID_3_"
   style="overflow:visible"
   id="use5" />

							</clipPath>
<clipPath
   id="clipPath6">
								<use
   xlink:href="#SVGID_3_"
   style="overflow:visible"
   id="use6" />

							</clipPath>
<clipPath
   id="clipPath7">
								<use
   xlink:href="#SVGID_3_"
   style="overflow:visible"
   id="use7" />

							</clipPath>
<clipPath
   id="SVGID_6_">
								<use
   xlink:href="#SVGID_5_"
   style="overflow:visible"
   id="use103" />

							</clipPath>
<clipPath
   id="SVGID_8_">
								<use
   xlink:href="#SVGID_7_"
   style="overflow:visible"
   id="use155" />

							</clipPath>
<clipPath
   id="clipPath8">
								<use
   xlink:href="#SVGID_7_"
   style="overflow:visible"
   id="use8" />

							</clipPath>
<clipPath
   id="clipPath10">
								<use
   xlink:href="#SVGID_7_"
   style="overflow:visible"
   id="use10" />

							</clipPath>
<clipPath
   id="clipPath11">
								<use
   xlink:href="#SVGID_7_"
   style="overflow:visible"
   id="use11" />

							</clipPath>
<clipPath
   id="clipPath12">
								<use
   xlink:href="#SVGID_7_"
   style="overflow:visible"
   id="use12" />

							</clipPath>
<clipPath
   id="clipPath13">
								<use
   xlink:href="#SVGID_7_"
   style="overflow:visible"
   id="use13" />

							</clipPath>
<clipPath
   id="clipPath14">
								<use
   xlink:href="#SVGID_7_"
   style="overflow:visible"
   id="use14" />

							</clipPath>
<clipPath
   id="SVGID_10_">
								<use
   xlink:href="#SVGID_9_"
   style="overflow:visible"
   id="use193" />

							</clipPath>
<clipPath
   id="clipPath15">
								<use
   xlink:href="#SVGID_9_"
   style="overflow:visible"
   id="use15" />

							</clipPath>
<clipPath
   id="SVGID_12_">
								<use
   xlink:href="#SVGID_11_"
   style="overflow:visible"
   id="use226" />

							</clipPath>
<clipPath
   id="SVGID_14_">
								<use
   xlink:href="#SVGID_13_"
   style="overflow:visible"
   id="use249" />

							</clipPath>
<clipPath
   id="clipPath16">
								<use
   xlink:href="#SVGID_13_"
   style="overflow:visible"
   id="use16" />

							</clipPath>
<clipPath
   id="clipPath17">
								<use
   xlink:href="#SVGID_13_"
   style="overflow:visible"
   id="use17" />

							</clipPath>
<clipPath
   id="clipPath18">
								<use
   xlink:href="#SVGID_13_"
   style="overflow:visible"
   id="use18" />

							</clipPath>
<clipPath
   id="clipPath19">
								<use
   xlink:href="#SVGID_13_"
   style="overflow:visible"
   id="use19" />

							</clipPath>
<clipPath
   id="clipPath20">
								<use
   xlink:href="#SVGID_13_"
   style="overflow:visible"
   id="use20" />

							</clipPath>
<clipPath
   id="clipPath21">
								<use
   xlink:href="#SVGID_13_"
   style="overflow:visible"
   id="use21" />

							</clipPath>
<clipPath
   id="clipPath22">
								<use
   xlink:href="#SVGID_13_"
   style="overflow:visible"
   id="use22" />

							</clipPath>
<clipPath
   id="clipPath23">
								<use
   xlink:href="#SVGID_13_"
   style="overflow:visible"
   id="use23" />

							</clipPath>
<clipPath
   id="clipPath24">
								<use
   xlink:href="#SVGID_13_"
   style="overflow:visible"
   id="use24" />

							</clipPath>
<clipPath
   id="clipPath25">
								<use
   xlink:href="#SVGID_13_"
   style="overflow:visible"
   id="use25" />

							</clipPath>
<clipPath
   id="clipPath26">
								<use
   xlink:href="#SVGID_13_"
   style="overflow:visible"
   id="use26" />

							</clipPath>
<clipPath
   id="clipPath27">
								<use
   xlink:href="#SVGID_13_"
   style="overflow:visible"
   id="use27" />

							</clipPath>
<clipPath
   id="clipPath28">
								<use
   xlink:href="#SVGID_13_"
   style="overflow:visible"
   id="use28" />

							</clipPath>
<clipPath
   id="clipPath29">
								<use
   xlink:href="#SVGID_13_"
   style="overflow:visible"
   id="use29" />

							</clipPath>
<clipPath
   id="clipPath30">
								<use
   xlink:href="#SVGID_13_"
   style="overflow:visible"
   id="use30" />

							</clipPath>
<clipPath
   id="clipPath31">
								<use
   xlink:href="#SVGID_13_"
   style="overflow:visible"
   id="use31" />

							</clipPath>
<clipPath
   id="clipPath32">
								<use
   xlink:href="#SVGID_13_"
   style="overflow:visible"
   id="use32" />

							</clipPath>
<clipPath
   id="SVGID_16_">
								<use
   xlink:href="#SVGID_15_"
   style="overflow:visible"
   id="use351" />

							</clipPath>
<clipPath
   id="clipPath33">
								<use
   xlink:href="#SVGID_15_"
   style="overflow:visible"
   id="use33" />

							</clipPath>
<clipPath
   id="SVGID_18_">
								<use
   xlink:href="#SVGID_17_"
   style="overflow:visible"
   id="use354" />

							</clipPath>
<clipPath
   id="clipPath34">
								<use
   xlink:href="#SVGID_17_"
   style="overflow:visible"
   id="use34" />

							</clipPath>
<clipPath
   id="SVGID_20_">
								<use
   xlink:href="#SVGID_19_"
   style="overflow:visible"
   id="use362" />

							</clipPath>
<clipPath
   id="clipPath35">
								<use
   xlink:href="#SVGID_19_"
   style="overflow:visible"
   id="use35" />

							</clipPath>
<clipPath
   id="clipPath37">
								<use
   xlink:href="#SVGID_19_"
   style="overflow:visible"
   id="use37" />

							</clipPath>
<clipPath
   id="clipPath38">
								<use
   xlink:href="#SVGID_19_"
   style="overflow:visible"
   id="use38" />

							</clipPath>
<clipPath
   id="clipPath39">
								<use
   xlink:href="#SVGID_19_"
   style="overflow:visible"
   id="use39" />

							</clipPath>
<clipPath
   id="clipPath40">
								<use
   xlink:href="#SVGID_19_"
   style="overflow:visible"
   id="use40" />

							</clipPath>
<clipPath
   id="clipPath41">
								<use
   xlink:href="#SVGID_19_"
   style="overflow:visible"
   id="use41" />

							</clipPath>
<clipPath
   id="clipPath42">
								<use
   xlink:href="#SVGID_19_"
   style="overflow:visible"
   id="use42" />

							</clipPath>
<clipPath
   id="clipPath43">
								<use
   xlink:href="#SVGID_19_"
   style="overflow:visible"
   id="use43" />

							</clipPath>
<clipPath
   id="clipPath44">
								<use
   xlink:href="#SVGID_19_"
   style="overflow:visible"
   id="use44" />

							</clipPath>
<path
   id="SVGID_1_"
   d="m 304.5,182.3 c 0,-0.9 0.7,-1.7 1.7,-1.7 0.9,0 1.7,0.7 1.7,1.7 0,0.9 -0.7,1.7 -1.7,1.7 -0.9,0 -1.7,-0.8 -1.7,-1.7" />
<path
   id="SVGID_3_"
   d="m 306.2,207.2 c -4.4,0 -8.3,-0.4 -11.3,-1.2 3,-0.8 7,-1.3 11.3,-1.3 4.4,0 8.3,0.5 11.3,1.3 -3,0.8 -6.9,1.2 -11.3,1.2" />
<rect
   id="SVGID_5_"
   x="291.60001"
   y="230.89999"
   width="29.200001"
   height="150.89999" />
<path
   id="SVGID_7_"
   d="m 573.9,207.2 c -4.4,0 -8.3,-0.4 -11.3,-1.2 3,-0.8 7,-1.3 11.3,-1.3 4.4,0 8.3,0.5 11.3,1.3 -3,0.8 -7,1.2 -11.3,1.2" />
<path
   id="SVGID_9_"
   d="m 572.2,184 c 0,-0.9 0.7,-1.7 1.7,-1.7 0.9,0 1.7,0.7 1.7,1.7 0,0.9 -0.7,1.7 -1.7,1.7 -0.9,0 -1.7,-0.8 -1.7,-1.7" />
<rect
   id="SVGID_11_"
   x="559.40002"
   y="230.89999"
   width="29.200001"
   height="150.89999" />
<path
   id="SVGID_13_"
   d="m 439.8,204.2 c -19.9,0 -37.8,-2.4 -51.5,-6.2 13.7,-3.7 31.6,-6 51.5,-6.1 19.9,0 37.9,2.3 51.6,6.1 -13.7,3.7 -31.7,6.1 -51.6,6.2" />
<path
   id="SVGID_15_"
   d="m 431.7,95.6 c 0,-4.4 3.6,-8 8,-8 4.4,0 7.9,3.6 7.9,8 0,4.4 -3.6,7.9 -7.9,7.9 -4.4,0.1 -8,-3.5 -8,-7.9" />
<path
   id="SVGID_17_"
   d="m 431.7,95.6 c 0,-4.4 3.6,-8 8,-8 4.4,0 7.9,3.6 7.9,8 0,4.4 -3.6,7.9 -7.9,7.9 -4.4,0.1 -8,-3.5 -8,-7.9" />
<path
   id="SVGID_19_"
   d="m 440.2,374.7 c 0,24.9 -20,45.1 -44.9,45.1 -24.9,0 -45.1,-20.2 -45.1,-45.1 v -63.2 h 90.1 v 63.2 z" />

	
	

		
	
			
			
			
		
				
			
					
					
					
					
					
				</defs>
  <g
     inkscape:label="Layer 1"
     inkscape:groupmode="layer"
     id="layer1">
    <g
       id="g52">
      <rect
         style="fill:#042a3d;fill-opacity:1;stroke-width:0.363481"
         id="rect1-2"
         width="224"
         height="126"
         x="1.4210855e-14"
         y="0" />
      <g
         id="g51"
         transform="matrix(1.239376,0,0,1.239376,-202.13018,-222.16751)">
        <g
           id="group-R5"
           transform="matrix(0.23801925,0,0,0.23801925,124.48219,149.12436)"
           style="fill:#ffffff;fill-opacity:1">
          <path
             id="path2-9"
             d="m 5099.66,2631.72 c -73,13.5 -168.8,20.61 -199.95,64.84 -46.8,66.44 11.66,163.1 164.78,154.06 138.61,-8.17 157.51,-115.14 159.42,-156.74 h 199.95 c 2.73,78.34 -29.72,159.41 -78.39,210.75 -62.07,64.83 -208.02,132.45 -388.99,105.34 -97.33,-13.45 -227.01,-70.18 -270.29,-197.24 -37.84,-118.85 0,-226.91 72.95,-283.69 91.9,-70.28 264.35,-91.33 335.09,-105.45 85.53,-17.08 149.04,-28.51 138.48,-119.5 -11.09,-95.62 -159.31,-122.84 -257.38,-91.19 -69.91,22.57 -100,78.39 -113.5,154.01 h -210.7 c 0,-95.84 57.01,-196.96 114.74,-243.38 85.61,-68.84 182.9,-93.06 295.31,-93.06 147.64,0 269.81,38.05 343.8,147.31 38.78,57.29 81.06,189.13 13.45,307.99 -59.41,102.71 -194.52,124.34 -318.77,145.95"
             style="fill:#ffffff;fill-opacity:1;fill-rule:nonzero;stroke:none"
             transform="matrix(0.13333333,0,0,-0.13333333,0,680.32)" />
          <path
             id="path3-1"
             d="m 4402.46,2883.01 c -85.83,98.09 -236.11,154.06 -389.05,129.74 -286.96,-45.63 -357.21,-317.54 -370.2,-405.37 -24.31,-164.42 24.34,-440.42 313.47,-548.54 135.02,-51.29 305.31,-32.4 434.99,62.16 72.95,54.12 145.91,175.64 151.3,251.36 h -240.48 c -8.06,-32.45 -27,-75.72 -70.23,-108.12 -97.33,-70.24 -208.07,-24.34 -256.74,10.83 -72.95,54.01 -99.95,143.15 -99.95,270.19 0,175.91 80.86,280.09 220.51,280.09 126.37,0 204.5,-108.73 198.35,-199.02 h -340.52 v -170.24 h 589.06 c 14.38,160.26 -60.09,335.01 -140.51,426.92"
             style="fill:#ffffff;fill-opacity:1;fill-rule:nonzero;stroke:none"
             transform="matrix(0.13333333,0,0,-0.13333333,0,680.32)" />
          <path
             id="path4-2"
             d="m 6154.35,2327.13 c -19.62,-56.44 -72.59,-97.87 -172.9,-111.06 -132.35,-17.38 -222.76,64.78 -165.53,170.57 57.46,106.23 269.08,68.56 349.26,145.89 0,-21.6 3.49,-164.15 -10.83,-205.4 z m 243.24,-35.11 c 0,50.44 0,247.61 0,291.86 0,44.25 -5.35,150.74 -18.9,221.57 -9.75,51 -53.72,128.35 -137.91,170.32 -73.37,36.57 -129.81,43.15 -249.28,43.15 -179.57,0 -372.85,-62.45 -381.12,-321.53 h 216.12 c 0,93.75 64.95,149.11 164.39,149.11 97.3,0 179.82,-52.4 160.84,-138.34 -18.99,-85.94 -177.68,-89.14 -279.09,-102.67 -117.6,-15.69 -275.63,-70.23 -313.46,-235.08 -13.51,-64.85 -2.72,-183.74 97.24,-262.08 67.6,-51.34 139.42,-73 235.12,-73 122.09,0 224.72,53.16 281.8,105.4 2.67,-13.5 16.16,-64.83 27,-78.4 h 226.96 c -35.16,70.29 -29.71,179.24 -29.71,229.69"
             style="fill:#ffffff;fill-opacity:1;fill-rule:nonzero;stroke:none"
             transform="matrix(0.13333333,0,0,-0.13333333,0,680.32)" />
          <path
             id="path5-7"
             d="m 2108.89,2444.22 c -53.58,0 -97,43.43 -97,96.99 0,53.57 43.42,97 97,97 53.57,0 96.99,-43.43 96.99,-97 0,-53.56 -43.42,-96.99 -96.99,-96.99 z m 752.51,-435.11 c -382.95,132.21 -453.8,486.46 -358.35,734.47 95.3,248 429.12,363.76 660.76,197.59 231.74,-166.24 207.14,-485.08 207.14,-485.08 h -594.04 v 170.24 h 344.76 c 0,0 9.61,66.38 -47.75,129.5 -76.5,84.19 -186.19,83.22 -257.51,42.21 -88.88,-51.11 -149.86,-233.44 -102.24,-393.75 47.62,-160.32 193.19,-224.02 333.25,-224.02 202.87,0 353.85,140.24 354.16,369.83 0.78,380.46 -255.78,727.34 -641.34,825.18 -455.12,115.43 -917.64,-159.92 -1033.15,-615.04 -115.43,-455.11 159.88,-917.69 615.01,-1033.15 324.88,-82.4 653.51,34.28 857.02,273.34 -96.35,-28.46 -210.82,-35.11 -337.72,8.68"
             style="fill:#ffffff;fill-opacity:1;fill-rule:nonzero;stroke:none"
             transform="matrix(0.13333333,0,0,-0.13333333,0,680.32)" />
        </g>
      </g>
    </g>
  </g>
</svg>
