<?xml version="1.0" encoding="UTF-8" standalone="no"?>
<svg
   id="Capa_1"
   data-name="Capa 1"
   viewBox="0 0 592900 26244"
   version="1.1"
   sodipodi:docname="fondos_europeos_claro.svg"
   inkscape:version="1.4.2 (2aeb623e1d, 2025-05-12)"
   width="592900"
   height="26244"
   xmlns:inkscape="http://www.inkscape.org/namespaces/inkscape"
   xmlns:sodipodi="http://sodipodi.sourceforge.net/DTD/sodipodi-0.dtd"
   xmlns="http://www.w3.org/2000/svg"
   xmlns:svg="http://www.w3.org/2000/svg"
   xmlns:rdf="http://www.w3.org/1999/02/22-rdf-syntax-ns#"
   xmlns:cc="http://creativecommons.org/ns#"
   xmlns:dc="http://purl.org/dc/elements/1.1/">
  <metadata
     id="metadata55">
    <rdf:RDF>
      <cc:Work
         rdf:about="">
        <dc:format>image/svg+xml</dc:format>
        <dc:type
           rdf:resource="http://purl.org/dc/dcmitype/StillImage" />
      </cc:Work>
    </rdf:RDF>
  </metadata>
  <sodipodi:namedview
     pagecolor="#ffffff"
     bordercolor="#666666"
     borderopacity="1"
     objecttolerance="10"
     gridtolerance="10"
     guidetolerance="10"
     inkscape:pageopacity="0"
     inkscape:pageshadow="2"
     inkscape:window-width="3774"
     inkscape:window-height="1531"
     id="namedview53"
     showgrid="false"
     inkscape:zoom="1.2819754"
     inkscape:cx="578.40423"
     inkscape:cy="165.75981"
     inkscape:window-x="66"
     inkscape:window-y="32"
     inkscape:window-maximized="1"
     inkscape:current-layer="Capa_1"
     inkscape:showpageshadow="2"
     inkscape:pagecheckerboard="0"
     inkscape:deskcolor="#d1d1d1">
    <inkscape:page
       x="0"
       y="0"
       width="592900"
       height="26244"
       id="page2"
       margin="0"
       bleed="0" />
  </sodipodi:namedview>
  <defs
     id="defs4">
    <style
       id="style2">
      .cls-1 {
        fill: #a69256;
      }

      .cls-2 {
        fill: #12123a;
      }
    </style>
  </defs>
  <g
     id="g34"
     style="fill:#ffffff">
    <path
       class="cls-2"
       d="M 252.13,111.15 V 63.24 h 27.61 v 5.11 H 258.2 v 16.21 h 18.26 v 5.11 H 258.2 v 21.47 h -6.06 z"
       id="path6"
       style="fill:#ffffff" />
    <path
       class="cls-2"
       d="m 299.53,112.03 c -2.87,0 -5.56,-0.73 -8.07,-2.19 -2.51,-1.46 -4.53,-3.58 -6.06,-6.35 -1.53,-2.78 -2.3,-6.11 -2.3,-10.01 0,-3.9 0.77,-7.38 2.3,-10.15 1.53,-2.78 3.55,-4.89 6.06,-6.35 2.51,-1.46 5.2,-2.19 8.07,-2.19 2.87,0 5.62,0.73 8.11,2.19 2.48,1.46 4.49,3.58 6.03,6.35 1.53,2.78 2.3,6.16 2.3,10.15 0,3.99 -0.77,7.23 -2.3,10.01 -1.53,2.78 -3.54,4.89 -6.03,6.35 -2.48,1.46 -5.19,2.19 -8.11,2.19 z m 0,-4.97 c 3.07,0 5.54,-1.25 7.41,-3.76 1.87,-2.51 2.81,-5.78 2.81,-9.82 0,-4.04 -0.94,-7.4 -2.81,-9.93 -1.87,-2.53 -4.35,-3.8 -7.41,-3.8 -3.06,0 -5.48,1.27 -7.38,3.8 -1.9,2.53 -2.85,5.84 -2.85,9.93 0,4.09 0.95,7.32 2.85,9.82 1.9,2.51 4.36,3.76 7.38,3.76 z"
       id="path8"
       style="fill:#ffffff" />
    <path
       class="cls-2"
       d="m 323.79,111.15 v -35.5 h 4.97 l 0.51,5.11 h 0.22 c 1.7,-1.7 3.51,-3.13 5.4,-4.27 1.9,-1.14 4.07,-1.72 6.5,-1.72 3.75,0 6.49,1.18 8.22,3.54 1.73,2.36 2.59,5.81 2.59,10.33 v 22.49 h -5.99 V 89.44 c 0,-3.31 -0.54,-5.72 -1.61,-7.23 -1.07,-1.51 -2.78,-2.26 -5.11,-2.26 -1.8,0 -3.42,0.46 -4.86,1.39 -1.44,0.93 -3.06,2.29 -4.86,4.09 v 25.71 h -5.99 z"
       id="path10"
       style="fill:#ffffff" />
    <path
       class="cls-2"
       d="m 374.65,112.03 c -4.43,0 -7.99,-1.62 -10.66,-4.86 -2.68,-3.24 -4.02,-7.8 -4.02,-13.69 0,-3.85 0.72,-7.17 2.15,-9.97 1.44,-2.8 3.33,-4.95 5.7,-6.46 2.36,-1.51 4.88,-2.26 7.56,-2.26 2.05,0 3.82,0.37 5.33,1.1 1.51,0.73 3.04,1.73 4.6,2.99 l -0.29,-6.06 V 59.16 h 6.06 v 52 h -4.97 L 385.6,107 h -0.22 c -1.36,1.36 -2.97,2.54 -4.82,3.54 -1.85,1 -3.82,1.5 -5.92,1.5 z m 1.31,-5.04 c 3.12,0 6.14,-1.63 9.06,-4.89 V 83.55 c -1.51,-1.36 -2.96,-2.32 -4.35,-2.88 -1.39,-0.56 -2.81,-0.84 -4.27,-0.84 -1.9,0 -3.62,0.57 -5.15,1.72 -1.53,1.14 -2.76,2.73 -3.69,4.75 -0.93,2.02 -1.39,4.39 -1.39,7.12 0,4.24 0.85,7.56 2.56,9.97 1.7,2.41 4.11,3.62 7.23,3.62 z"
       id="path12"
       style="fill:#ffffff" />
    <path
       class="cls-2"
       d="m 415.47,112.03 c -2.87,0 -5.56,-0.73 -8.07,-2.19 -2.51,-1.46 -4.53,-3.58 -6.06,-6.35 -1.53,-2.78 -2.3,-6.11 -2.3,-10.01 0,-3.9 0.77,-7.38 2.3,-10.15 1.53,-2.78 3.55,-4.89 6.06,-6.35 2.51,-1.46 5.2,-2.19 8.07,-2.19 2.87,0 5.62,0.73 8.11,2.19 2.48,1.46 4.49,3.58 6.03,6.35 1.53,2.78 2.3,6.16 2.3,10.15 0,3.99 -0.77,7.23 -2.3,10.01 -1.53,2.78 -3.54,4.89 -6.03,6.35 -2.48,1.46 -5.19,2.19 -8.11,2.19 z m 0,-4.97 c 3.07,0 5.54,-1.25 7.41,-3.76 1.87,-2.51 2.81,-5.78 2.81,-9.82 0,-4.04 -0.94,-7.4 -2.81,-9.93 -1.87,-2.53 -4.35,-3.8 -7.41,-3.8 -3.06,0 -5.48,1.27 -7.38,3.8 -1.9,2.53 -2.85,5.84 -2.85,9.93 0,4.09 0.95,7.32 2.85,9.82 1.9,2.51 4.36,3.76 7.38,3.76 z"
       id="path14"
       style="fill:#ffffff" />
    <path
       class="cls-2"
       d="m 448.81,112.03 c -2.53,0 -4.94,-0.47 -7.23,-1.42 -2.29,-0.95 -4.29,-2.11 -5.99,-3.47 l 2.99,-4.02 c 1.56,1.22 3.17,2.23 4.82,3.03 1.65,0.8 3.53,1.2 5.62,1.2 2.34,0 4.09,-0.55 5.26,-1.64 1.17,-1.1 1.75,-2.4 1.75,-3.91 0,-1.22 -0.4,-2.24 -1.2,-3.07 -0.8,-0.83 -1.83,-1.52 -3.07,-2.08 -1.24,-0.56 -2.52,-1.08 -3.83,-1.57 -1.66,-0.63 -3.29,-1.35 -4.89,-2.15 -1.61,-0.8 -2.92,-1.85 -3.94,-3.14 -1.02,-1.29 -1.53,-2.93 -1.53,-4.93 0,-2.87 1.08,-5.27 3.25,-7.19 2.17,-1.92 5.17,-2.89 9.02,-2.89 2.19,0 4.24,0.39 6.13,1.17 1.9,0.78 3.53,1.73 4.89,2.85 l -2.92,3.8 c -1.22,-0.92 -2.48,-1.68 -3.8,-2.26 -1.31,-0.58 -2.75,-0.88 -4.31,-0.88 -2.24,0 -3.88,0.51 -4.93,1.53 -1.05,1.02 -1.57,2.22 -1.57,3.58 0,1.12 0.37,2.03 1.1,2.74 0.73,0.71 1.68,1.31 2.85,1.83 1.17,0.51 2.41,1.03 3.73,1.57 1.7,0.63 3.38,1.35 5.04,2.15 1.65,0.8 3.03,1.88 4.13,3.21 1.1,1.34 1.64,3.13 1.64,5.37 0,1.9 -0.5,3.65 -1.5,5.26 -1,1.61 -2.46,2.9 -4.38,3.87 -1.92,0.97 -4.3,1.46 -7.12,1.46 z"
       id="path16"
       style="fill:#ffffff" />
    <path
       class="cls-2"
       d="M 486.06,111.15 V 63.24 h 27.61 v 5.11 H 492.13 V 83.4 h 18.19 v 5.19 h -18.19 v 17.38 h 22.28 v 5.19 h -28.34 z"
       id="path18"
       style="fill:#ffffff" />
    <path
       class="cls-2"
       d="m 531.79,112.03 c -3.75,0 -6.5,-1.18 -8.25,-3.54 -1.75,-2.36 -2.63,-5.81 -2.63,-10.33 V 75.67 h 6.06 v 21.69 c 0,3.31 0.52,5.72 1.57,7.23 1.05,1.51 2.74,2.26 5.08,2.26 1.85,0 3.49,-0.47 4.93,-1.42 1.44,-0.95 2.98,-2.47 4.64,-4.56 v -25.2 h 5.99 v 35.5 h -4.97 l -0.51,-5.55 h -0.22 c -1.66,1.95 -3.41,3.51 -5.26,4.67 -1.85,1.17 -3.99,1.75 -6.43,1.75 z"
       id="path20"
       style="fill:#ffffff" />
    <path
       class="cls-2"
       d="m 559.17,111.15 v -35.5 h 4.97 l 0.51,6.43 h 0.22 c 1.22,-2.24 2.7,-4.02 4.46,-5.33 1.75,-1.31 3.63,-1.97 5.62,-1.97 1.41,0 2.68,0.24 3.8,0.73 l -1.17,5.26 c -0.58,-0.19 -1.12,-0.34 -1.61,-0.44 -0.49,-0.1 -1.1,-0.15 -1.83,-0.15 -1.51,0 -3.08,0.61 -4.71,1.83 -1.63,1.22 -3.06,3.34 -4.27,6.35 v 22.79 z"
       id="path22"
       style="fill:#ffffff" />
    <path
       class="cls-2"
       d="m 596.92,112.03 c -2.87,0 -5.56,-0.73 -8.07,-2.19 -2.51,-1.46 -4.53,-3.58 -6.06,-6.35 -1.53,-2.78 -2.3,-6.11 -2.3,-10.01 0,-3.9 0.77,-7.38 2.3,-10.15 1.53,-2.78 3.55,-4.89 6.06,-6.35 2.51,-1.46 5.2,-2.19 8.07,-2.19 2.87,0 5.62,0.73 8.11,2.19 2.48,1.46 4.49,3.58 6.03,6.35 1.53,2.78 2.3,6.16 2.3,10.15 0,3.99 -0.77,7.23 -2.3,10.01 -1.53,2.78 -3.54,4.89 -6.03,6.35 -2.48,1.46 -5.19,2.19 -8.11,2.19 z m 0,-4.97 c 3.07,0 5.54,-1.25 7.41,-3.76 1.87,-2.51 2.81,-5.78 2.81,-9.82 0,-4.04 -0.94,-7.4 -2.81,-9.93 -1.87,-2.53 -4.35,-3.8 -7.41,-3.8 -3.06,0 -5.48,1.27 -7.38,3.8 -1.9,2.53 -2.85,5.84 -2.85,9.93 0,4.09 0.95,7.32 2.85,9.82 1.9,2.51 4.36,3.76 7.38,3.76 z"
       id="path24"
       style="fill:#ffffff" />
    <path
       class="cls-2"
       d="M 621.17,126.12 V 75.65 h 4.97 l 0.51,4.09 h 0.22 c 1.61,-1.36 3.37,-2.53 5.3,-3.51 1.92,-0.97 3.93,-1.46 6.03,-1.46 4.58,0 8.06,1.64 10.44,4.93 2.39,3.29 3.58,7.68 3.58,13.18 0,3.99 -0.72,7.43 -2.15,10.3 -1.44,2.87 -3.31,5.06 -5.62,6.57 -2.31,1.51 -4.83,2.26 -7.56,2.26 -1.66,0 -3.3,-0.37 -4.93,-1.1 -1.63,-0.73 -3.28,-1.73 -4.93,-2.99 l 0.15,6.21 v 11.98 h -5.99 z m 14.68,-19.14 c 2.92,0 5.34,-1.25 7.27,-3.76 1.92,-2.51 2.88,-5.95 2.88,-10.33 0,-3.89 -0.72,-7.05 -2.15,-9.46 -1.44,-2.41 -3.83,-3.62 -7.19,-3.62 -1.51,0 -3.03,0.41 -4.56,1.24 -1.53,0.83 -3.18,2.02 -4.93,3.58 v 18.62 c 1.61,1.36 3.16,2.33 4.67,2.88 1.51,0.56 2.85,0.84 4.02,0.84 z"
       id="path26"
       style="fill:#ffffff" />
    <path
       class="cls-2"
       d="m 675.2,112.03 c -3.17,0 -6.04,-0.74 -8.62,-2.23 -2.58,-1.48 -4.63,-3.62 -6.13,-6.39 -1.51,-2.78 -2.26,-6.09 -2.26,-9.93 0,-3.84 0.77,-7.23 2.3,-10.01 1.53,-2.78 3.52,-4.92 5.95,-6.43 2.43,-1.51 4.99,-2.26 7.67,-2.26 4.53,0 8.02,1.51 10.48,4.53 2.46,3.02 3.69,7.06 3.69,12.12 0,0.63 -0.01,1.25 -0.04,1.86 -0.02,0.61 -0.09,1.13 -0.18,1.57 H 664.1 c 0.24,3.75 1.42,6.74 3.54,8.98 2.12,2.24 4.88,3.36 8.29,3.36 1.7,0 3.27,-0.26 4.71,-0.77 1.44,-0.51 2.81,-1.18 4.13,-2.01 l 2.12,3.94 c -1.51,0.97 -3.23,1.83 -5.15,2.56 -1.92,0.73 -4.1,1.1 -6.54,1.1 z M 664.03,90.56 h 18.99 c 0,-3.6 -0.77,-6.34 -2.3,-8.22 -1.53,-1.87 -3.69,-2.81 -6.46,-2.81 -2.48,0 -4.71,0.96 -6.68,2.88 -1.97,1.92 -3.15,4.64 -3.54,8.14 z"
       id="path28"
       style="fill:#ffffff" />
    <path
       class="cls-2"
       d="m 710.16,112.03 c -2.87,0 -5.56,-0.73 -8.07,-2.19 -2.51,-1.46 -4.53,-3.58 -6.06,-6.35 -1.53,-2.78 -2.3,-6.11 -2.3,-10.01 0,-3.9 0.77,-7.38 2.3,-10.15 1.53,-2.78 3.55,-4.89 6.06,-6.35 2.51,-1.46 5.2,-2.19 8.07,-2.19 2.87,0 5.62,0.73 8.11,2.19 2.48,1.46 4.49,3.58 6.03,6.35 1.53,2.78 2.3,6.16 2.3,10.15 0,3.99 -0.77,7.23 -2.3,10.01 -1.53,2.78 -3.54,4.89 -6.03,6.35 -2.48,1.46 -5.19,2.19 -8.11,2.19 z m 0,-4.97 c 3.07,0 5.54,-1.25 7.41,-3.76 1.87,-2.51 2.81,-5.78 2.81,-9.82 0,-4.04 -0.94,-7.4 -2.81,-9.93 -1.87,-2.53 -4.35,-3.8 -7.41,-3.8 -3.06,0 -5.48,1.27 -7.38,3.8 -1.9,2.53 -2.85,5.84 -2.85,9.93 0,4.09 0.95,7.32 2.85,9.82 1.9,2.51 4.36,3.76 7.38,3.76 z"
       id="path30"
       style="fill:#ffffff" />
    <path
       class="cls-2"
       d="m 743.51,112.03 c -2.53,0 -4.94,-0.47 -7.23,-1.42 -2.29,-0.95 -4.29,-2.11 -5.99,-3.47 l 2.99,-4.02 c 1.56,1.22 3.17,2.23 4.82,3.03 1.65,0.8 3.53,1.2 5.62,1.2 2.34,0 4.09,-0.55 5.26,-1.64 1.17,-1.1 1.75,-2.4 1.75,-3.91 0,-1.22 -0.4,-2.24 -1.2,-3.07 -0.8,-0.83 -1.83,-1.52 -3.07,-2.08 -1.24,-0.56 -2.52,-1.08 -3.83,-1.57 -1.66,-0.63 -3.29,-1.35 -4.89,-2.15 -1.61,-0.8 -2.92,-1.85 -3.94,-3.14 -1.02,-1.29 -1.53,-2.93 -1.53,-4.93 0,-2.87 1.08,-5.27 3.25,-7.19 2.17,-1.92 5.17,-2.89 9.02,-2.89 2.19,0 4.24,0.39 6.13,1.17 1.9,0.78 3.53,1.73 4.89,2.85 l -2.92,3.8 c -1.22,-0.92 -2.48,-1.68 -3.8,-2.26 -1.31,-0.58 -2.75,-0.88 -4.31,-0.88 -2.24,0 -3.88,0.51 -4.93,1.53 -1.05,1.02 -1.57,2.22 -1.57,3.58 0,1.12 0.37,2.03 1.1,2.74 0.73,0.71 1.68,1.31 2.85,1.83 1.17,0.51 2.41,1.03 3.73,1.57 1.7,0.63 3.38,1.35 5.04,2.15 1.65,0.8 3.03,1.88 4.13,3.21 1.1,1.34 1.64,3.13 1.64,5.37 0,1.9 -0.5,3.65 -1.5,5.26 -1,1.61 -2.46,2.9 -4.38,3.87 -1.92,0.97 -4.3,1.46 -7.12,1.46 z"
       id="path32"
       style="fill:#ffffff" />
  </g>
  <g
     id="g42"
     style="fill:#ffffff">
    <path
       class="cls-2"
       d="m 212.72,53.69 h -83.95 c -2.04,0 -3.53,1.91 -3.04,3.89 l 2.84,11.38 c 0.49,1.98 -1,3.89 -3.04,3.89 H 67.38 c -0.72,0 -1.35,-0.49 -1.52,-1.18 L 61.85,55.64 c -0.25,-0.99 0.5,-1.95 1.52,-1.95 h 52.57 c 2.04,0 3.53,-1.92 3.04,-3.89 l -2.85,-11.38 c -0.49,-1.98 1,-3.89 3.04,-3.89 h 89.53 c 0.72,0 1.35,0.49 1.52,1.19 l 4.01,16.03 c 0.25,0.99 -0.5,1.95 -1.52,1.95 z"
       id="path36"
       style="fill:#ffffff" />
    <path
       class="cls-2"
       d="m 212.69,92.02 h -64.78 c -2.04,0 -3.53,1.91 -3.04,3.89 l 2.84,11.38 c 0.49,1.98 -1,3.89 -3.04,3.89 H 67.39 c -0.72,0 -1.35,-0.49 -1.52,-1.18 L 61.86,93.97 c -0.25,-0.99 0.5,-1.95 1.52,-1.95 h 71.71 c 2.04,0 3.53,-1.92 3.04,-3.89 l -2.85,-11.38 c -0.49,-1.98 1,-3.89 3.04,-3.89 h 70.36 c 0.72,0 1.35,0.49 1.52,1.19 l 4.01,16.03 c 0.25,0.99 -0.5,1.95 -1.52,1.95 z"
       id="path38"
       style="fill:#ffffff" />
    <path
       class="cls-2"
       d="m 212.69,130.34 h -45.62 c -2.04,0 -3.53,1.91 -3.04,3.89 l 2.64,10.55 c 0.6,2.4 -1.22,4.72 -3.69,4.72 H 67.39 c -0.72,0 -1.35,-0.49 -1.52,-1.18 l -4.01,-16.03 c -0.25,-0.99 0.5,-1.95 1.52,-1.95 h 90.88 c 2.04,0 3.53,-1.92 3.04,-3.89 l -2.85,-11.38 c -0.49,-1.98 1,-3.89 3.04,-3.89 h 51.2 c 0.72,0 1.35,0.49 1.52,1.19 l 4.01,16.03 c 0.25,0.99 -0.5,1.95 -1.52,1.95 z"
       id="path40"
       style="fill:#ffffff" />
  </g>
  <polygon
     class="cls-1"
     points="46.21,53.61 33.76,53.64 29.96,41.79 26.06,53.63 13.49,53.56 23.67,60.96 19.72,72.96 29.91,65.48 40.08,72.9 36.14,60.96 "
     id="polygon44" />
  <polygon
     class="cls-1"
     points="59.18,21.95 49.23,21.98 46.18,12.49 43.07,21.97 33.01,21.91 41.15,27.83 37.99,37.43 46.14,31.45 54.28,37.38 51.13,27.83 "
     id="polygon46" />
  <polygon
     class="cls-1"
     points="89.58,21.98 81.61,22 79.18,14.41 76.69,21.99 68.64,21.95 75.15,26.68 72.62,34.36 79.15,29.58 85.66,34.32 83.13,26.68 "
     id="polygon48" />
</svg>
