<?xml version="1.0" encoding="UTF-8" standalone="no"?>
<!-- Generator: Adobe Illustrator 20.1.0, SVG Export Plug-In . SVG Version: 6.00 Build 0)  -->

<svg
   xmlns:dc="http://purl.org/dc/elements/1.1/"
   xmlns:cc="http://creativecommons.org/ns#"
   xmlns:rdf="http://www.w3.org/1999/02/22-rdf-syntax-ns#"
   xmlns:svg="http://www.w3.org/2000/svg"
   xmlns="http://www.w3.org/2000/svg"
   xmlns:sodipodi="http://sodipodi.sourceforge.net/DTD/sodipodi-0.dtd"
   xmlns:inkscape="http://www.inkscape.org/namespaces/inkscape"
   version="1.1"
   id="Capa_1"
   x="0px"
   y="0px"
   viewBox="0 0 427.39998 577.59999"
   xml:space="preserve"
   sodipodi:docname="icm_logoComMad.svg"
   width="427.39999"
   height="577.59998"
   inkscape:version="0.92.3 (2405546, 2018-03-11)"><metadata
   id="metadata142"><rdf:RDF><cc:Work
       rdf:about=""><dc:format>image/svg+xml</dc:format><dc:type
         rdf:resource="http://purl.org/dc/dcmitype/StillImage" /></cc:Work></rdf:RDF></metadata><defs
   id="defs140" /><sodipodi:namedview
   pagecolor="#ffffff"
   bordercolor="#666666"
   borderopacity="1"
   objecttolerance="10"
   gridtolerance="10"
   guidetolerance="10"
   inkscape:pageopacity="0"
   inkscape:pageshadow="2"
   inkscape:window-width="1920"
   inkscape:window-height="1017"
   id="namedview138"
   showgrid="false"
   inkscape:zoom="1.2548091"
   inkscape:cx="213.70001"
   inkscape:cy="288.80001"
   inkscape:window-x="1912"
   inkscape:window-y="-8"
   inkscape:window-maximized="1"
   inkscape:current-layer="Capa_1" />
<style
   type="text/css"
   id="style77">
	.st0{fill:#DE0029;}
	.st1{fill:#FFFFFF;}
	.st2{fill:#1D1D1B;}
</style>
<g
   id="g135"
   transform="translate(-46.4,-49.099998)">
	<g
   id="g97">
		<rect
   x="49"
   y="49.099998"
   class="st0"
   width="422.89999"
   height="422.89999"
   id="rect79"
   style="fill:#de0029" />
		<g
   id="g95">
			<polygon
   class="st1"
   points="92,218.5 114.7,234.7 106.5,260.8 128.5,244.8 150.9,260.5 142.3,234.4 164.7,217.8 137.2,218.2 128.5,191.5 120,218.2 "
   id="polygon81"
   style="fill:#ffffff" />
			<polygon
   class="st1"
   points="180.1,218.5 202.8,234.7 194.6,260.8 216.6,244.8 238.9,260.5 230.4,234.4 252.8,217.8 225.2,218.2 216.6,191.5 208.1,218.2 "
   id="polygon83"
   style="fill:#ffffff" />
			<polygon
   class="st1"
   points="268.5,218.5 291.2,234.7 283,260.8 305,244.8 327.4,260.5 318.8,234.4 341.2,217.8 313.8,218.2 305,191.5 296.5,218.2 "
   id="polygon85"
   style="fill:#ffffff" />
			<polygon
   class="st1"
   points="224,279.3 246.7,295.5 238.5,321.6 260.5,305.6 282.9,321.3 274.4,295.2 296.7,278.7 269.2,279 260.5,252.3 252,279 "
   id="polygon87"
   style="fill:#ffffff" />
			<polygon
   class="st1"
   points="135.8,279.3 158.5,295.5 150.3,321.6 172.3,305.6 194.6,321.3 186.1,295.2 208.4,278.7 181,279 172.3,252.3 163.8,279 "
   id="polygon89"
   style="fill:#ffffff" />
			<polygon
   class="st1"
   points="312.6,279.3 335.3,295.5 327.1,321.6 349.1,305.6 371.5,321.3 362.9,295.2 385.3,278.7 357.9,279 349.1,252.3 340.6,279 "
   id="polygon91"
   style="fill:#ffffff" />
			<polygon
   class="st1"
   points="356.9,218.5 379.6,234.7 371.4,260.8 393.4,244.8 415.7,260.5 407.2,234.4 429.5,217.8 402.1,218.2 393.4,191.5 384.8,218.2 "
   id="polygon93"
   style="fill:#ffffff" />
		</g>
	</g>
	<g
   id="g133">
		<path
   class="st2"
   d="m 81.4,519 c -0.3,-1.9 -1.8,-7.8 -8.5,-7.8 -7.6,0 -10.1,7.4 -10.1,14.5 0,7.1 2.4,14.5 10.1,14.5 5.5,0 7.6,-3.8 8.6,-8.8 h 16 c 0,10.6 -8.6,22 -24.1,22 -17.1,0 -26.8,-12 -26.8,-27.6 0,-16.6 10.5,-27.6 26.8,-27.6 14.5,0.1 22.5,7.7 23.9,20.9 H 81.4 Z"
   id="path99"
   inkscape:connector-curvature="0"
   style="fill:#1d1d1b" />
		<path
   class="st2"
   d="m 123.3,553.1 c -14.4,0 -20.9,-9.5 -20.9,-20.2 0,-10.7 6.5,-20.1 20.9,-20.1 14.4,0 20.9,9.5 20.9,20.1 0,10.6 -6.5,20.2 -20.9,20.2 m 0,-29.7 c -5.5,0 -6.3,5.4 -6.3,9.5 0,4.1 0.7,9.5 6.3,9.5 5.5,0 6.3,-5.5 6.3,-9.5 0,-4.1 -0.8,-9.5 -6.3,-9.5"
   id="path101"
   inkscape:connector-curvature="0"
   style="fill:#1d1d1b" />
		<path
   class="st2"
   d="m 150.5,513.7 h 14.1 v 5.1 h 0.1 c 3,-4.4 7.2,-6.1 12.6,-6.1 4.1,0 8.6,2.1 10.3,6 0.6,-0.4 3.5,-6 13.1,-6 9.8,0 13.2,6.8 13.2,13 V 552 h -14.6 v -20.8 c 0,-3.6 -0.4,-6.9 -4.8,-6.9 -3.7,0 -5,2.9 -5,6.9 V 552 h -14.6 v -20.8 c 0,-3.6 -0.4,-6.9 -4.8,-6.9 -3.7,0 -5,2.9 -5,6.9 V 552 h -14.6 z"
   id="path103"
   inkscape:connector-curvature="0"
   style="fill:#1d1d1b" />
		<path
   class="st2"
   d="m 261.6,552.1 h -14.1 v -4.9 h -0.1 c -2.7,3.8 -6.6,5.8 -12.5,5.8 -6.9,0 -13.2,-4.2 -13.2,-13 v -26.3 h 14.6 v 20.1 c 0,4.4 0.5,7.5 4.8,7.5 2.5,0 5.8,-1.3 5.8,-7.4 v -20.2 h 14.6 v 38.4 z"
   id="path105"
   inkscape:connector-curvature="0"
   style="fill:#1d1d1b" />
		<path
   class="st2"
   d="m 269.6,513.7 h 14.1 v 4.9 h 0.1 c 2.7,-3.8 6.7,-5.8 12.5,-5.8 6.9,0 13.2,4.2 13.2,13 v 26.3 H 294.9 V 532 c 0,-4.4 -0.5,-7.5 -4.8,-7.5 -2.5,0 -5.8,1.3 -5.8,7.4 v 20.2 h -14.6 v -38.4 z"
   id="path107"
   inkscape:connector-curvature="0"
   style="fill:#1d1d1b" />
		<path
   class="st2"
   d="m 332.4,509.6 h -14.6 v -10.3 h 14.6 z m -14.6,4.2 h 14.6 v 38.4 h -14.6 z"
   id="path109"
   inkscape:connector-curvature="0"
   style="fill:#1d1d1b" />
		<path
   class="st2"
   d="m 380.7,552.1 h -14.1 v -4.2 h -0.1 c -1.9,2.4 -4.1,5.2 -11.2,5.2 -10.9,0 -16.1,-10.7 -16.1,-20.3 0,-9 3.5,-20 16.3,-20 4.4,0 8.3,1.9 10.5,5.2 h 0.1 v -18.6 h 14.6 z m -20.6,-28.7 c -5.2,0 -6.4,4.9 -6.4,9.5 0,4.6 1.2,9.5 6.4,9.5 5.2,0 6.4,-5 6.4,-9.5 0.1,-4.5 -1.1,-9.5 -6.4,-9.5"
   id="path111"
   inkscape:connector-curvature="0"
   style="fill:#1d1d1b" />
		<path
   class="st2"
   d="m 426.1,543.5 c 0,2.9 0.1,6.1 1.8,8.6 H 413 c -0.4,-1 -0.6,-2.6 -0.5,-3.6 h -0.1 c -3.1,3.5 -7.6,4.6 -12.3,4.6 -7.4,0 -13.5,-3.5 -13.5,-11.6 0,-12.1 14.2,-11.7 21.7,-13.1 2,-0.4 4,-1 4,-3.4 0,-2.6 -2.4,-3.6 -4.8,-3.6 -4.5,0 -5.4,2.3 -5.5,3.9 h -13.6 c 0.4,-10.8 10.6,-12.6 19.7,-12.6 18.3,0 18.2,7.6 18.2,15 v 15.8 z M 412,534.9 c -1.8,0.9 -3.8,1.4 -5.8,1.9 -3.3,0.7 -5,1.6 -5,4.1 0,1.8 1.9,3.5 4.6,3.5 3.3,0 5.9,-2 6.1,-6 v -3.5 z"
   id="path113"
   inkscape:connector-curvature="0"
   style="fill:#1d1d1b" />
		<path
   class="st2"
   d="m 473.8,552.1 h -14.1 v -4.2 h -0.1 c -1.9,2.4 -4.1,5.2 -11.2,5.2 -10.9,0 -16.1,-10.7 -16.1,-20.3 0,-9 3.5,-20 16.3,-20 4.4,0 8.3,1.9 10.5,5.2 h 0.1 v -18.6 h 14.6 z m -20.6,-28.7 c -5.2,0 -6.4,4.9 -6.4,9.5 0,4.6 1.2,9.5 6.4,9.5 5.2,0 6.4,-5 6.4,-9.5 0,-4.5 -1.2,-9.5 -6.4,-9.5"
   id="path115"
   inkscape:connector-curvature="0"
   style="fill:#1d1d1b" />
		<path
   class="st2"
   d="M 93,625.6 H 77.2 v -4.7 H 77 c -2.1,2.7 -4.5,5.8 -12.6,5.8 -12.2,0 -18,-12 -18,-22.7 0,-10.1 3.9,-22.3 18.3,-22.3 4.9,0 9.3,2.2 11.7,5.8 h 0.2 V 566.7 H 93 Z M 70,593.5 c -5.9,0 -7.2,5.5 -7.2,10.6 0,5.1 1.3,10.7 7.2,10.7 5.9,0 7.2,-5.5 7.2,-10.7 0,-5 -1.3,-10.6 -7.2,-10.6"
   id="path117"
   inkscape:connector-curvature="0"
   style="fill:#1d1d1b" />
		<path
   class="st2"
   d="m 115.8,607.8 c 0.4,4.9 3.2,8.4 8.3,8.4 2.7,0 5.5,-1 6.9,-3.1 h 15.3 c -3.3,9.3 -12.3,13.6 -22.1,13.6 -13.7,0 -24.1,-8.1 -24.1,-22.4 0,-12.5 9.1,-22.7 22.7,-22.7 17,0 24.4,9.5 24.4,26.2 z m 15.7,-8.5 c 0,-4 -3,-7.2 -7.2,-7.2 -4.9,0 -7.7,2.6 -8.4,7.2 z"
   id="path119"
   inkscape:connector-curvature="0"
   style="fill:#1d1d1b" />
		<polygon
   class="st2"
   points="216.1,601.3 216.3,601.3 224.7,566.6 250.6,566.6 250.6,625.6 233.4,625.6 233.4,587.7 233.3,587.7 223,625.6 209.4,625.6 199.2,587.7 199,587.7 199,625.6 181.8,625.6 181.8,566.6 207.7,566.6 "
   id="polygon121"
   style="fill:#1d1d1b" />
		<path
   class="st2"
   d="m 301.6,616 c 0,3.2 0.2,6.9 2,9.6 h -16.7 c -0.4,-1.2 -0.7,-2.9 -0.6,-4 h -0.2 c -3.5,4 -8.5,5.1 -13.8,5.1 -8.3,0 -15.1,-4 -15.1,-13 0,-13.6 15.9,-13.1 24.2,-14.6 2.2,-0.4 4.5,-1.1 4.5,-3.8 0,-2.9 -2.7,-4 -5.4,-4 -5,0 -6,2.6 -6.1,4.4 h -15.2 c 0.5,-12.1 11.9,-14.1 22.1,-14.1 20.5,0 20.3,8.5 20.3,16.8 z m -15.7,-9.6 c -2,1 -4.2,1.6 -6.5,2.1 -3.6,0.8 -5.5,1.7 -5.5,4.6 0,2 2.1,4 5.1,4 3.7,0 6.6,-2.2 6.9,-6.7 z"
   id="path123"
   inkscape:connector-curvature="0"
   style="fill:#1d1d1b" />
		<path
   class="st2"
   d="m 354.9,625.6 h -15.8 v -4.7 h -0.2 c -2.1,2.7 -4.5,5.8 -12.6,5.8 -12.2,0 -18,-12 -18,-22.7 0,-10.1 3.9,-22.3 18.3,-22.3 4.9,0 9.3,2.2 11.7,5.8 h 0.2 v -20.8 h 16.4 z m -23,-32.1 c -5.9,0 -7.2,5.5 -7.2,10.6 0,5.1 1.3,10.7 7.2,10.7 5.9,0 7.2,-5.5 7.2,-10.7 0,-5 -1.3,-10.6 -7.2,-10.6"
   id="path125"
   inkscape:connector-curvature="0"
   style="fill:#1d1d1b" />
		<path
   class="st2"
   d="m 363.8,582.7 h 15.7 v 6.9 h 0.2 c 2.6,-5.1 6.1,-7.9 12.1,-7.9 1.7,0 3.2,0.2 4.8,0.7 v 14.5 c -1.7,-0.6 -3.1,-1.1 -6.5,-1.1 -6.4,0 -9.9,3.8 -9.9,13 v 17 h -16.4 z"
   id="path127"
   inkscape:connector-curvature="0"
   style="fill:#1d1d1b" />
		<path
   class="st2"
   d="m 417.3,578.1 h -16.4 v -11.5 h 16.4 z m -16.4,4.6 h 16.4 v 42.9 h -16.4 z"
   id="path129"
   inkscape:connector-curvature="0"
   style="fill:#1d1d1b" />
		<path
   class="st2"
   d="m 471.3,625.6 h -15.8 v -4.7 h -0.2 c -2.1,2.7 -4.5,5.8 -12.6,5.8 -12.2,0 -18,-12 -18,-22.7 0,-10.1 3.9,-22.3 18.3,-22.3 4.9,0 9.3,2.2 11.7,5.8 h 0.2 v -20.8 h 16.4 z m -23,-32.1 c -5.9,0 -7.2,5.5 -7.2,10.6 0,5.1 1.3,10.7 7.2,10.7 5.9,0 7.2,-5.5 7.2,-10.7 0,-5 -1.4,-10.6 -7.2,-10.6"
   id="path131"
   inkscape:connector-curvature="0"
   style="fill:#1d1d1b" />
	</g>
</g>
</svg>