<?xml version="1.0" encoding="UTF-8" standalone="no"?>
<svg
   version="1.1"
   width="501"
   height="574"
   id="svg600"
   sodipodi:docname="logo.svg"
   inkscape:version="1.4.2 (2aeb623e1d, 2025-05-12)"
   xmlns:inkscape="http://www.inkscape.org/namespaces/inkscape"
   xmlns:sodipodi="http://sodipodi.sourceforge.net/DTD/sodipodi-0.dtd"
   xmlns="http://www.w3.org/2000/svg"
   xmlns:svg="http://www.w3.org/2000/svg">
  <defs
     id="defs600" />
  <sodipodi:namedview
     id="namedview600"
     pagecolor="#ffffff"
     bordercolor="#000000"
     borderopacity="0.25"
     inkscape:showpageshadow="2"
     inkscape:pageopacity="0.0"
     inkscape:pagecheckerboard="0"
     inkscape:deskcolor="#d1d1d1"
     inkscape:zoom="1.2359188"
     inkscape:cx="734.27152"
     inkscape:cy="579.73063"
     inkscape:window-width="1854"
     inkscape:window-height="1131"
     inkscape:window-x="0"
     inkscape:window-y="0"
     inkscape:window-maximized="1"
     inkscape:current-layer="svg600" />
  <g
     id="g600"
     transform="matrix(0.97947576,0,0,0.97947576,-386.63486,-271.42575)">
    <path
       d="m 0,0 c 4.7006455,2.3845508 9.2115003,5.0277179 13.71875,7.7578125 1.991741,1.1921524 3.983927,2.3835615 5.976562,3.5742185 0.958096,0.574116 1.916192,1.148233 2.903321,1.739746 3.143815,1.873049 6.311288,3.694366 9.495117,5.498535 6.153559,3.493351 12.26599,7.054362 18.375,10.625 17.828957,10.413921 35.703333,20.742696 53.69507,30.873047 6.2769,3.540845 12.50589,7.153319 18.70556,10.827393 5.58384,3.303629 11.21109,6.527382 16.84937,9.73706 6.25478,3.561948 12.49165,7.148964 18.6875,10.8125 16.57855,9.795328 33.28123,19.381728 50.07666,28.800048 1.30783,0.73513 1.30783,0.73513 2.64209,1.48511 0.74572,0.41774 1.49145,0.83547 2.25977,1.26587 2.40497,1.38874 4.78304,2.81005 7.15954,4.24656 6.3864,3.83599 12.84194,7.55037 19.29944,11.26491 1.20708,0.69523 2.41411,1.39054 3.62109,2.08594 2.91751,1.68049 5.83549,3.36016 8.75391,5.03906 0.29757,37.31743 0.52663,74.63469 0.66385,111.95307 0.0163,4.40594 0.0331,8.81189 0.0503,13.21783 0.003,0.87714 0.007,1.75429 0.0103,2.65801 0.0566,14.20192 0.15907,28.40315 0.27855,42.60466 0.12158,14.57264 0.19378,29.14491 0.22016,43.71804 0.0178,8.99255 0.0742,17.98316 0.17976,26.97512 0.0687,6.16661 0.0895,12.33222 0.0726,18.49918 -0.008,3.55869 0.004,7.11399 0.0742,10.67208 0.38777,20.79217 0.38777,20.79217 -2.80981,25.59462 -3.41589,3.28673 -7.25532,4.65449 -11.73986,6.10739 -1.81395,1.00004 -3.60984,2.03483 -5.37109,3.125 -1.68755,0.96054 -3.37636,1.91886 -5.06641,2.875 -0.90903,0.51708 -1.81806,1.03415 -2.75464,1.5669 -2.60151,1.47966 -5.20446,2.95675 -7.80786,4.4331 -14.91099,8.46545 -29.70117,17.13849 -44.49609,25.80469 -1.05849,0.61923 -2.11697,1.23847 -3.20752,1.87646 -2.00569,1.17343 -4.01063,2.34814 -6.01465,3.52442 -5.52881,3.23325 -11.1068,6.35076 -16.73853,9.40088 -3.52009,1.92883 -6.97141,3.96249 -10.41821,6.01855 -6.42705,3.80576 -12.8869,7.54931 -19.375,11.25 -0.87656,0.50008 -1.75312,1.00015 -2.65625,1.51538 -3.60975,2.05779 -7.22075,4.11337 -10.83301,6.16675 -12.889659,7.31741 -12.889659,7.31741 -25.63574,14.88037 -7.082469,4.29871 -14.29693,8.35229 -21.518555,12.41162 -8.121038,4.57321 -16.176575,9.25211 -24.218261,13.96314 -7.760954,4.54264 -15.557761,9.01936 -23.3789067,13.45752 -1.2208227,0.69404 -1.2208227,0.69404 -2.4663086,1.4021 -0.7113208,0.40315 -1.4226416,0.80631 -2.1555175,1.22168 -1.6653287,0.97623 -3.2812809,2.03566 -4.8874512,3.10644 -3.5190201,-0.34956 -6.1990392,-1.4438 -9.265625,-3.15234 -1.197136,-0.66177 -1.197136,-0.66177 -2.418457,-1.33692 -1.270129,-0.71688 -1.270129,-0.71688 -2.565918,-1.44824 -0.89187,-0.49725 -1.78374,-0.99451 -2.702637,-1.50683 -6.837762,-3.82973 -13.600471,-7.77964 -20.340332,-11.77832 -5.687909,-3.36819 -11.416779,-6.66503 -17.144531,-9.96485 -1.106821,-0.63776 -2.213643,-1.27552 -3.354004,-1.93261 -2.271049,-1.3083 -4.542208,-2.61641 -6.813476,-3.92432 -5.46672,-3.14889 -10.930776,-6.30239 -16.39502,-9.45557 -6.58172,-3.79741 -13.163641,-7.59448 -19.74609,-11.39062 -12.01057,-6.927 -24.01702,-13.86095 -36.01368,-20.81201 -2.26175,-1.30983 -4.52431,-2.61825 -6.7871,-3.92627 -7.76468,-4.48964 -15.52131,-8.9924 -23.2649,-13.51831 -9.39152,-5.48881 -18.80466,-10.93501 -28.25854,-16.31568 -7.63689,-4.35325 -15.22316,-8.79094 -22.80811,-13.23388 -8.16234,-4.76986 -16.38159,-9.43393 -24.63672,-14.04126 -0.89477,-0.50153 -1.78954,-1.00306 -2.71142,-1.51978 -1.1691,-0.65186 -1.1691,-0.65186 -2.36182,-1.31689 -1.19375,-0.70552 -1.19375,-0.70552 -2.41162,-1.4253 -1.53729,-0.67391 -1.53729,-0.67391 -3.10563,-1.36143 -3.2841,-2.99385 -3.34939,-3.50527 -3.63266,-7.72227 -0.0253,-2.18609 -0.017,-4.37271 0.0168,-6.55869 -0.008,-1.80598 -0.008,-1.80598 -0.0155,-3.64843 -0.008,-3.34381 0.0106,-6.68552 0.0407,-10.02908 0.0259,-3.6046 0.0171,-7.20913 0.0126,-10.8138 -0.003,-6.24576 0.0157,-12.49115 0.0494,-18.73682 0.0487,-9.03015 0.0644,-18.06012 0.0719,-27.09038 0.0131,-14.65051 0.0531,-29.30081 0.10981,-43.95121 0.0551,-14.23241 0.0975,-28.46477 0.12305,-42.69726 0.002,-0.87713 0.003,-1.75425 0.005,-2.65796 0.008,-4.40023 0.0154,-8.80047 0.0229,-13.2007 0.0622,-36.5108 0.1679,-73.02137 0.30194,-109.53197 0.65157,-0.36729 1.30314,-0.73459 1.97446,-1.11302 2.99593,-1.68942 5.99121,-3.37999 8.98648,-5.07057 1.02472,-0.57762 2.04945,-1.15524 3.10522,-1.75037 5.88527,-3.32293 11.7449,-6.6823 17.55884,-10.12854 6.11404,-3.61986 12.2624,-7.17274 18.4375,-10.6875 8.86433,-5.04643 17.6812,-10.17083 26.48657,-15.31933 5.13657,-3.001854 10.27923,-5.989773 15.45093,-8.930668 6.07008,-3.451903 12.09782,-6.973789 18.125,-10.5 8.92771,-5.221012 17.88922,-10.379888 26.875,-15.5 9.71755,-5.53772 19.401413,-11.129719 29.055908,-16.776855 15.970219,-9.338394 32.008975,-18.557709 48.082031,-27.717773 8.925136,-5.095901 17.795754,-10.284733 26.666748,-15.4741215 1.351099,-0.7792383 1.351099,-0.7792383 2.729493,-1.5742188 1.524544,-0.9008399 3.0305114,-1.8351172 4.5019528,-2.8203124 C -4.9553279,0.44326522 -3.3606023,-0.44367503 0,0 Z"
       fill="#171716"
       transform="translate(651.78125,277.36719)"
       id="path2" />
    <path
       d="m 0,0 c 4.7006455,2.3845508 9.2115003,5.0277179 13.71875,7.7578125 1.991741,1.1921524 3.983927,2.3835615 5.976562,3.5742185 0.958096,0.574116 1.916192,1.148233 2.903321,1.739746 3.143815,1.873049 6.311288,3.694366 9.495117,5.498535 6.153559,3.493351 12.26599,7.054362 18.375,10.625 17.828957,10.413921 35.703333,20.742696 53.69507,30.873047 6.2769,3.540845 12.50589,7.153319 18.70556,10.827393 5.58384,3.303629 11.21111,6.527345 16.84937,9.73706 6.73247,3.834522 13.44619,7.697653 20.125,11.625 0.70447,0.41379 1.40895,0.827579 2.13477,1.253907 2.79384,1.648008 5.54058,3.321324 8.24023,5.121093 -0.33,0.99 -0.66,1.979998 -1,2.999998 1.32,0.66 2.64,1.32 4,2 -0.66,0.99 -1.32,1.98 -2,3 -2.08057,0.38032 -2.08057,0.38032 -4.70006,0.38768 -0.99128,0.01 -1.98257,0.0198 -3.00389,0.03 -1.09148,-0.005 -2.18297,-0.009 -3.30752,-0.0136 -1.1464,0.007 -2.29279,0.0137 -3.47393,0.0208 -3.80577,0.0184 -7.61114,0.0144 -11.41694,0.009 -2.63555,0.005 -5.27109,0.01 -7.90664,0.0159 -5.53075,0.01 -11.06139,0.007 -16.59214,-0.003 -6.39624,-0.0115 -12.79206,0.003 -19.18825,0.0294 -6.148848,0.0248 -12.297504,0.0273 -18.446399,0.0209 -2.618358,-1.6e-4 -5.236724,0.006 -7.855052,0.0183 -3.656424,0.0148 -7.311916,0.004 -10.96831,-0.0129 -1.089459,0.01 -2.178918,0.0193 -3.301391,0.0293 -1.491156,-0.0148 -1.491156,-0.0148 -3.012436,-0.0298 -0.86481,-2.1e-4 -1.72962,-4.2e-4 -2.620635,-6.4e-4 -2.206407,-0.50057 -2.206407,-0.50057 -4.008097,-2.40689 -1.19831,-2.09368 -1.19831,-2.09368 -1.19831,-4.09368 6.75,-3.999998 6.75,-3.999998 9,-3.999998 -2.30331,-2.530292 -4.671148,-4.093419 -7.65625,-5.75 C 50.631797,90.362354 49.701094,89.841895 48.742187,89.305664 47.744453,88.753623 46.746719,88.201582 45.71875,87.632812 43.624562,86.46172 41.530818,85.289833 39.4375,84.117187 38.389492,83.531309 37.341484,82.94543 36.261719,82.341797 31.894448,79.889062 27.553245,77.392896 23.21875,74.882812 22.451597,74.441711 21.684443,74.00061 20.894043,73.546143 17.173323,71.396136 13.501426,69.197157 9.8828125,66.878906 9.1996094,66.447393 8.5164062,66.015879 7.8125,65.571289 6.5392742,64.76226 5.2753893,63.938255 4.0234375,63.09668 0.69743217,60.993113 0.69743217,60.993113 -3.1132813,61.074219 c -0.8804296,0.514336 -1.7608593,1.028672 -2.6679687,1.558593 -0.6496875,0.356023 -1.299375,0.712046 -1.96875,1.078858 -2.467403,1.358186 -4.905773,2.76084 -7.34375,4.171142 -0.909192,0.522876 -1.818384,1.045752 -2.755127,1.584473 -20.602079,11.826798 -20.602079,11.826798 -40.947266,24.085938 -1.985107,1.079589 -1.985107,1.079589 -3.985107,1.079589 0,0.66 0,1.32 0,2 1.256836,0.363516 1.256836,0.363516 2.539063,0.734375 3.903799,1.427575 7.301932,3.366613 10.835937,5.515623 1.490487,0.89129 2.981399,1.78188 4.472656,2.67188 0.812271,0.48662 1.624541,0.97324 2.461426,1.47461 5.148242,3.06783 10.327259,6.08311 15.503418,9.10351 1.043979,0.61134 2.087959,1.22268 3.163574,1.85254 0.983716,0.5746 1.967432,1.1492 2.980957,1.74121 0.876321,0.5124 1.752642,1.02481 2.655518,1.55274 2.33461,1.36696 2.33461,1.36696 4.655762,2.40234 1.731689,0.95117 1.731689,0.95117 2.481689,3.07617 0.0825,0.61875 0.165,1.2375 0.25,1.875 -2.875,0.625 -2.875,0.625 -6,1 -0.66,-0.66 -1.32,-1.32 -2,-2 -0.33,0.99 -0.66,1.98 -1,3 -23.76,0 -47.52,0 -72,0 0,0.66 0,1.32 0,2 29.04,0.33 58.08,0.66 88,1 0.33,0.66 0.66,1.32 1,2 -12.24018,0.20959 -24.479926,0.36898 -36.721542,0.46631 -5.685918,0.0467 -11.370597,0.11003 -17.055802,0.21265 -5.498504,0.0986 -10.995826,0.15177 -16.495147,0.17494 -2.085862,0.0165 -4.171668,0.0487 -6.257019,0.0977 -11.697313,0.26368 -20.651681,-0.12123 -30.49184,-6.97049 -1.96407,-1.41122 -1.96407,-1.41122 -4.97865,-2.98108 -2.75153,0.47005 -2.75153,0.47005 -5,2 -1.15371,0.62133 -2.30742,1.24266 -3.49609,1.88281 -1.31568,0.74409 -2.62939,1.49167 -3.94141,2.24219 -1.06541,0.60485 -1.06541,0.60485 -2.15234,1.22193 -1.45509,0.82676 -2.90936,1.65496 -4.3628,2.48462 -1.78594,1.01926 -3.57462,2.03372 -5.36377,3.04736 -6.29365,3.57541 -12.55206,7.20802 -18.80029,10.86206 -9.77109,5.71341 -19.55366,11.40688 -29.36761,17.04639 -1.25726,0.72325 -2.51366,1.44802 -3.76917,2.17431 -1.75426,1.01432 -3.51203,2.02257 -5.26996,3.03052 -1.51473,0.87181 -1.51473,0.87181 -3.06006,1.76123 -2.4165,1.24658 -2.4165,1.24658 -4.4165,1.24658 -0.31023,13.10891 -0.51688,26.21504 -0.59328,39.32751 -0.0387,6.09001 -0.11232,12.17531 -0.26732,18.26356 -0.14844,5.88222 -0.2031,11.7587 -0.19425,17.64272 -0.0128,2.23818 -0.0588,4.47643 -0.13922,6.7132 -0.77722,11.82354 -0.77722,11.82354 4.05616,22.05605 4.56989,3.5179 9.55388,5.88073 14.87548,8.04233 3.07073,1.2957 5.79399,2.92258 8.62962,4.66948 0.91354,0.53447 1.82708,1.06895 2.76831,1.61963 1.35605,0.79349 1.35605,0.79349 2.7395,1.60302 11.89758,6.95022 23.85465,13.79309 35.8335,20.60205 17.75194,10.09201 17.75194,10.09201 25.6665,14.89795 6.11621,3.71224 12.326133,7.24387 18.5625,10.75 13.813044,7.76698 27.500082,15.74679 41.140625,23.8125 0.774243,0.45738 1.548486,0.91475 2.346191,1.38599 1.409736,0.83374 2.818371,1.66934 4.225586,2.50732 3.712895,2.19809 7.467264,4.22501 11.350098,6.10669 0,3.63 0,7.26 0,11 2.64,0 5.28,0 8,0 0,-1.65 0,-3.3 0,-5 0.66,0 1.32,0 2,0 0,0.99 0,1.98 0,3 0.643242,0.12375 1.286484,0.2475 1.949219,0.375 6.90978,1.57713 12.0982238,4.24646 18.0156247,8.08594 5.3123007,3.41234 10.8440476,6.44927 16.3476563,9.53906 1.045752,0.5883 2.091504,1.17659 3.168945,1.78272 2.50501,1.40787 5.011152,2.81368 7.518555,4.21728 0.323834,4.26772 0.558197,8.5288 0.714111,12.80518 0.06501,1.45016 0.153473,2.89948 0.266602,4.34668 0.372383,4.88985 0.416379,9.11236 -0.980713,13.84814 -3.908647,3.7895 -8.032658,5.7538 -13,8 -1.2577424,0.76519 -2.5032579,1.55215 -3.71875,2.38281 -0.9178125,0.57493 -1.835625,1.14985 -2.78125,1.74219 -0.9384375,0.60071 -1.876875,1.20141 -2.84375,1.82031 -2.65625,1.05469 -2.65625,1.05469 -5.0742188,0.46875 -0.8520703,-0.46664 -1.7041406,-0.93328 -2.5820312,-1.41406 -1.0376953,-0.55172 -2.0753906,-1.10343 -3.1445313,-1.67187 -1.2247557,-0.68899 -2.4472617,-1.38199 -3.6679687,-2.07813 -0.677241,-0.38341 -1.354482,-0.76683 -2.052246,-1.16186 -7.512481,-4.27091 -14.968247,-8.64021 -22.42749,-13.00318 -5.22175,-3.05409 -10.448781,-6.09544 -15.707764,-9.08496 -6.070083,-3.4519 -12.097894,-6.97366 -18.125,-10.5 -9.599865,-5.61642 -19.247398,-11.14381 -28.914581,-16.643 -8.506889,-4.84278 -16.952769,-9.77477 -25.307099,-14.87702 -4.84202,-2.94604 -9.76426,-5.69503 -14.74976,-8.39062 -5.14389,-2.81567 -10.20633,-5.77217 -15.27856,-8.71436 -2.29407,-1.32717 -4.5883,-2.65406 -6.88281,-3.98047 -1.13341,-0.65532 -2.26682,-1.31065 -3.43457,-1.98584 -7.14321,-4.12205 -14.30838,-8.20574 -21.47263,-12.29109 -3.38432,-1.93103 -6.76743,-3.86417 -10.15042,-5.79753 -0.64496,-0.36857 -1.28993,-0.73715 -1.95444,-1.11689 -1.57672,-0.90104 -3.15343,-1.80211 -4.73013,-2.70318 -0.40455,9.03239 -0.68112,18.05751 -0.80053,27.0982 -0.0594,4.20034 -0.16046,8.39049 -0.36182,12.58662 -1.55259,17.92727 -1.55259,17.92727 4.34738,34.06283 5.37895,4.40842 11.31961,6.90001 17.84897,9.14038 4.78647,1.79447 9.03902,4.41839 13.4035,7.04947 1.73234,0.99575 3.46649,1.98833 5.20313,2.97656 6.70838,3.85423 13.38732,7.7587 20.06616,11.66382 8.50041,4.96792 17.02693,9.88959 25.55908,14.80274 7.46916,4.30416 14.91837,8.64135 22.35913,12.99438 7.042488,4.11868 14.106448,8.18772 21.232178,12.1604 7.034285,3.93608 13.979698,8.02387 20.936523,12.09473 7.502621,4.38641 15.031331,8.72405 22.587891,13.01685 4.344547,2.47056 8.671748,4.96543 12.973877,7.50927 0.864558,0.50894 1.729116,1.01788 2.619873,1.54224 1.636522,0.9652 3.269729,1.93606 4.898926,2.91357 0.732429,0.43095 1.464858,0.8619 2.219482,1.30591 0.9542285,0.56884 0.9542285,0.56884 1.9277344,1.14917 2.3993536,1.13129 4.3266987,1.70901 6.9785156,1.93286 2.3225268,-0.91888 2.3225268,-0.91888 4.5351562,-2.48828 0.8715674,-0.55897 1.7431348,-1.11794 2.6411133,-1.69385 0.9318311,-0.59989 1.8636621,-1.19979 2.8237305,-1.81787 1.991826,-1.17191 3.990819,-2.33171 5.996094,-3.48047 1.564277,-0.90105 1.564277,-0.90105 3.160156,-1.82031 1.082812,-0.62262 2.165625,-1.24523 3.28125,-1.88672 1.740784,-1.00234 3.481375,-2.00502 5.221954,-3.00772 1.721327,-0.99157 3.442801,-1.98289 5.164276,-2.97421 4.229037,-2.4373 8.453087,-4.88314 12.67627,-7.33057 1.49218,-0.86329 2.984368,-1.72657 4.476562,-2.58984 3.342585,-1.93456 6.681868,-3.87472 10.019593,-5.81766 2.371441,-1.37955 4.744522,-2.75626 7.117859,-4.13254 1.724427,-1.00123 3.446831,-2.00595 5.169189,-3.01074 1.058965,-0.61359 2.11793,-1.22719 3.208984,-1.85937 0.942144,-0.54794 1.884288,-1.09587 2.854981,-1.6604 2.652832,-1.42945 2.652832,-1.42945 7.652832,-3.42945 0,-33.66 0,-67.32 0,-102 0.33,0 0.66,0 1,0 0.33,6.6 0.66,13.2 1,20 16.17,0 32.34,0 49,0 0,-57.75 0,-115.5 0,-175 0.33,0 0.66,0 1,0 0,74.58 0,149.16 0,226 15.05796,-8.60454 30.06285,-17.20635 45,-26 5.28,-2.97 10.56,-5.94 16,-9 0.33,-77.22 0.66,-154.44 1,-234 -1.98,-0.66 -3.96,-1.32 -6,-2 -1.83212,-0.95292 -3.63706,-1.95958 -5.41406,-3.01172 -1.00934,-0.59361 -2.01867,-1.18722 -3.0586,-1.79882 -1.04027,-0.6194 -2.08054,-1.23879 -3.15234,-1.87696 -1.01707,-0.60006 -2.03414,-1.20011 -3.08203,-1.81836 -2.051,-1.21006 -4.10081,-2.42213 -6.14942,-3.63623 -5.0345,-2.9755 -10.08882,-5.91692 -15.14355,-8.85791 3.22035,-3.22035 5.75863,-4.86481 10.35245,-5.36508 1.27668,0.004 2.55337,0.008 3.86874,0.0121 1.06188,-0.003 1.06188,-0.003 2.14522,-0.007 1.52995,-0.003 3.05992,4.9e-4 4.58985,0.01 2.42105,0.0138 4.84128,0.007 7.26234,-0.005 6.88031,-0.0309 13.76043,-0.026 20.64077,-0.006 4.21404,0.0109 8.42746,-0.002 12.6414,-0.0299 1.60519,-0.005 3.21043,-0.001 4.81556,0.0124 2.24111,0.019 4.48019,0.008 6.72127,-0.0103 1.91264,0.004 1.91264,0.004 3.86392,0.007 3.2889,-0.29408 3.2889,-0.29408 4.90863,-3.09479 0.39265,-0.833 0.7853,-1.66601 1.18985,-2.52426 0.66,-0.33 1.32,-0.66 2,-1 2.16406,0.9961 2.16406,0.9961 4.625,2.4375 0.81727,0.47309 1.63453,0.94617 2.47656,1.4336 0.62649,0.37254 1.25297,0.74507 1.89844,1.1289 0.29757,37.31743 0.52663,74.63469 0.66385,111.95307 0.0163,4.40594 0.0331,8.81189 0.0503,13.21783 0.003,0.87714 0.007,1.75429 0.0103,2.65801 0.0566,14.20192 0.15907,28.40315 0.27855,42.60466 0.12158,14.57264 0.19378,29.14491 0.22016,43.71804 0.0178,8.99255 0.0742,17.98316 0.17976,26.97512 0.0687,6.16661 0.0895,12.33222 0.0726,18.49918 -0.008,3.55869 0.004,7.11399 0.0742,10.67208 0.38777,20.79217 0.38777,20.79217 -2.80981,25.59462 -3.41589,3.28673 -7.25532,4.65449 -11.73986,6.10739 -1.81395,1.00004 -3.60984,2.03483 -5.37109,3.125 -1.68755,0.96054 -3.37636,1.91886 -5.06641,2.875 -0.90903,0.51708 -1.81806,1.03415 -2.75464,1.5669 -2.60151,1.47966 -5.20446,2.95675 -7.80786,4.4331 -14.91099,8.46545 -29.70117,17.13849 -44.49609,25.80469 -1.05849,0.61923 -2.11697,1.23847 -3.20752,1.87646 -2.00569,1.17343 -4.01063,2.34814 -6.01465,3.52442 -5.52881,3.23325 -11.1068,6.35076 -16.73853,9.40088 -3.52009,1.92883 -6.97141,3.96249 -10.41821,6.01855 -6.42705,3.80576 -12.8869,7.54931 -19.375,11.25 -0.87656,0.50008 -1.75312,1.00015 -2.65625,1.51538 -3.60975,2.05779 -7.22075,4.11337 -10.83301,6.16675 -12.889659,7.31741 -12.889659,7.31741 -25.63574,14.88037 -7.082469,4.29871 -14.29693,8.35229 -21.518555,12.41162 -8.121038,4.57321 -16.176575,9.25211 -24.218261,13.96314 -7.760954,4.54264 -15.557761,9.01936 -23.3789067,13.45752 -1.2208227,0.69404 -1.2208227,0.69404 -2.4663086,1.4021 -0.7113208,0.40315 -1.4226416,0.80631 -2.1555175,1.22168 -1.6653287,0.97623 -3.2812809,2.03566 -4.8874512,3.10644 -3.5190201,-0.34956 -6.1990392,-1.4438 -9.265625,-3.15234 -1.197136,-0.66177 -1.197136,-0.66177 -2.418457,-1.33692 -1.270129,-0.71688 -1.270129,-0.71688 -2.565918,-1.44824 -0.89187,-0.49725 -1.78374,-0.99451 -2.702637,-1.50683 -6.837762,-3.82973 -13.600471,-7.77964 -20.340332,-11.77832 -5.687909,-3.36819 -11.416779,-6.66503 -17.144531,-9.96485 -1.106821,-0.63776 -2.213643,-1.27552 -3.354004,-1.93261 -2.271049,-1.3083 -4.542208,-2.61641 -6.813476,-3.92432 -5.46672,-3.14889 -10.930776,-6.30239 -16.39502,-9.45557 -6.58172,-3.79741 -13.163641,-7.59448 -19.74609,-11.39062 -12.01057,-6.927 -24.01702,-13.86095 -36.01368,-20.81201 -2.26175,-1.30983 -4.52431,-2.61825 -6.7871,-3.92627 -7.76468,-4.48964 -15.52131,-8.9924 -23.2649,-13.51831 -9.39152,-5.48881 -18.80466,-10.93501 -28.25854,-16.31568 -7.63689,-4.35325 -15.22316,-8.79094 -22.80811,-13.23388 -8.16234,-4.76986 -16.38159,-9.43393 -24.63672,-14.04126 -0.89477,-0.50153 -1.78954,-1.00306 -2.71142,-1.51978 -1.1691,-0.65186 -1.1691,-0.65186 -2.36182,-1.31689 -1.19375,-0.70552 -1.19375,-0.70552 -2.41162,-1.4253 -1.53729,-0.67391 -1.53729,-0.67391 -3.10563,-1.36143 -3.2841,-2.99385 -3.34939,-3.50527 -3.63266,-7.72227 -0.0253,-2.18609 -0.017,-4.37271 0.0168,-6.55869 -0.008,-1.80598 -0.008,-1.80598 -0.0155,-3.64843 -0.008,-3.34381 0.0106,-6.68552 0.0407,-10.02908 0.0259,-3.6046 0.0171,-7.20913 0.0126,-10.8138 -0.003,-6.24576 0.0157,-12.49115 0.0494,-18.73682 0.0487,-9.03015 0.0644,-18.06012 0.0719,-27.09038 0.0131,-14.65051 0.0531,-29.30081 0.10981,-43.95121 0.0551,-14.23241 0.0975,-28.46477 0.12305,-42.69726 0.002,-0.87713 0.003,-1.75425 0.005,-2.65796 0.008,-4.40023 0.0154,-8.80047 0.0229,-13.2007 0.0622,-36.5108 0.1679,-73.02137 0.30194,-109.53197 0.65157,-0.36729 1.30314,-0.73459 1.97446,-1.11302 2.99593,-1.68942 5.99121,-3.37999 8.98648,-5.07057 1.02472,-0.57762 2.04945,-1.15524 3.10522,-1.75037 5.88527,-3.32293 11.7449,-6.6823 17.55884,-10.12854 6.11404,-3.61986 12.2624,-7.17274 18.4375,-10.6875 8.86433,-5.04643 17.6812,-10.17083 26.48657,-15.31933 5.13657,-3.001854 10.27923,-5.989773 15.45093,-8.930668 6.07008,-3.451903 12.09782,-6.973789 18.125,-10.5 8.92771,-5.221012 17.88922,-10.379888 26.875,-15.5 9.71755,-5.53772 19.401413,-11.129719 29.055908,-16.776855 15.970219,-9.338394 32.008975,-18.557709 48.082031,-27.717773 8.925136,-5.095901 17.795754,-10.284733 26.666748,-15.4741215 1.351099,-0.7792383 1.351099,-0.7792383 2.729493,-1.5742188 1.524544,-0.9008399 3.0305114,-1.8351172 4.5019528,-2.8203124 C -4.9553279,0.44326522 -3.3606023,-0.44367503 0,0 Z"
       fill="#1c1c1b"
       transform="translate(651.78125,277.36719)"
       id="path4" />
    <path
       d="m 0,0 2.5498047,1.3657227 2.8874512,1.508789 3.1555175,1.756836 1.7227326,0.9572143 c 1.200064,0.66763 2.399326,1.3367044 3.597824,2.0071411 1.799416,1.0062856 3.601487,2.0076707 5.404053,3.0083009 5.966631,3.320502 11.878782,6.712346 17.718506,10.251465 4.942733,2.969384 9.952917,5.823617 14.951416,8.697754 1.740783,1.002344 3.481374,2.005022 5.221954,3.007721 1.721326,0.991576 3.4428,1.982896 5.164276,2.974212 4.229035,2.437303 8.453287,4.882797 12.67627,7.330567 5.198331,3.012592 10.39969,6.019823 15.605468,9.019531 10.856957,6.2563 21.703607,12.528457 32.519527,18.855469 7.04251,4.118647 14.10645,8.187714 21.23218,12.1604 7.02398,3.930306 13.95955,8.011542 20.90576,12.077148 7.82145,4.573617 15.67455,9.088959 23.5503,13.568359 l 2.44848,1.39331 2.12378,1.20581 2.1145,1.21997 2.59668,1.14762 c 2.40332,1.85238 2.40332,1.85238 3.0046,4.90858 l -0.0336,3.80196 0.002,2.09982 c -0.003,2.28954 -0.0424,4.57705 -0.0815,6.86624 -0.009,1.58754 -0.0165,3.17509 -0.0214,4.76265 -0.0191,4.17775 -0.0682,8.35463 -0.12352,12.53203 -0.0512,4.26298 -0.074,8.5261 -0.0992,12.78931 -0.0536,8.36433 -0.13896,16.72795 -0.24415,25.09179 -3.50117,-1.14167 -6.72361,-2.23474 -9.89843,-4.10937 l -2.1648,-1.26612 -2.31177,-1.37451 -2.46997,-1.44873 c -1.77482,-1.04123 -3.54829,-2.08479 -5.32055,-3.13037 -4.99871,-2.9467 -10.01071,-5.87062 -15.02198,-8.7959 l -3.11669,-1.82129 c -6.14796,-3.58704 -12.32277,-7.11685 -18.54029,-10.58154 -7.15689,-4.00346 -14.21977,-8.16793 -21.29638,-12.31103 -5.73803,-3.35472 -11.4921,-6.67292 -17.29664,-9.91114 C 95.671053,127.46178 88.333806,123.1416 80.996094,118.80811 67.479093,110.8382 53.908787,102.97143 40.230957,95.280762 30.987779,90.073024 21.828447,84.724936 12.674805,79.361816 L 9.9833984,77.802734 C 8.477617,76.913586 6.9866808,75.998037 5.5224609,75.041992 2.8384625,73.326318 0.93252863,72.37841 -2.2783203,72.271973 c -4.6659862,1.60896 -8.7090087,4.048075 -12.9218747,6.59375 -1.703013,1.010606 -3.406132,2.021032 -5.109375,3.03125 l -2.264649,1.361328 c -1.266421,0.74759 -2.560617,1.449742 -3.875976,2.107422 l -1,30.999997 5,2 c 1.573732,0.82056 3.132014,1.67125 4.675781,2.54688 l 2.719971,1.53857 2.916748,1.66455 3.0749509,1.74658 c 9.19063659,5.23383 18.3244309,10.56366 27.4523921,15.90577 9.584844,5.60582 19.212216,11.13807 28.833985,16.68017 3.396709,1.95815 6.791396,3.91975 10.185547,5.88233 13.813296,7.99097 13.813296,7.99097 27.703125,15.84765 6.627364,3.70474 13.173609,7.53751 19.710935,11.39844 14.69629,8.6793 29.44925,17.25249 44.32862,25.6145 l 2.72216,1.53003 2.37769,1.33277 c 1.65699,0.94581 3.29303,1.92866 4.91455,2.93408 2.49873,1.44426 14.38689,8.29965 17.22652,8.70531 l -9.84298,-3.32763 2.03125,0.74219 c 3.64929,1.54615 7.02596,3.42699 10.46875,5.38281 l 1.91407,1.07032 c 1.34732,0.76084 2.67885,1.55024 3.99434,2.36489 2.63252,1.5488 2.63252,1.5488 5.83932,2.63959 3.95783,1.74363 7.14688,3.27355 9.75227,6.8002 2.43691,7.28878 1.50592,15.53115 1.26954,23.09375 -0.0243,2.27538 -0.0428,4.55083 -0.0557,6.8263 -0.0495,5.97279 -0.17707,11.94143 -0.32116,17.91259 -0.13328,6.09949 -0.19242,12.19965 -0.25787,18.30018 -0.13918,11.95754 -0.36088,23.91202 -0.63477,35.86718 l -2.37789,1.35668 c -2.97323,1.69667 -5.94618,3.39383 -8.91895,5.09131 -1.27508,0.72795 -2.55026,1.45572 -3.82556,2.18328 -10.31141,5.88299 -20.57716,11.84079 -30.82291,17.83748 -4.33996,2.53655 -8.68989,5.05533 -13.04687,7.5625 l -1.77689,1.02281 c -2.83374,1.63067 -5.66858,3.25938 -8.50485,4.88564 l -3.10108,1.78296 -2.93359,1.68017 c -3.05625,1.81368 -5.987,3.77467 -8.875,5.84498 -2.60524,1.07886 -4.14967,0.55681 -6.81641,-0.24781 -2.1621,-1.02466 -2.1621,-1.02466 -4.34375,-2.30078 l -2.49462,-1.4436 -2.66163,-1.56812 c -1.893104,-1.09916 -3.786337,-2.19812 -5.679683,-3.29687 l -2.928711,-1.70899 c -4.48892,-2.61057 -9.003747,-5.17524 -13.516601,-7.74414 C 67.327843,374.25287 56.769829,368.13609 46.21582,362.01123 37.281948,356.82779 28.336206,351.66709 19.362305,346.55322 11.796849,342.23943 4.2580957,337.88191 -3.2626953,333.49072 l -3.0361328,-1.7727 c -5.0457029,-2.94818 -10.0882239,-5.9017 -15.1279299,-8.86011 -11.184808,-6.55693 -22.430799,-12.98195 -33.76001,-19.28613 -24.295914,-13.56105 -24.295914,-13.56105 -34.263427,-20.20606 -0.360764,-2.93594 -0.360764,-2.93594 -0.340576,-6.74463 l -0.0013,-2.09938 c 0.0021,-2.29447 0.02545,-4.58821 0.04894,-6.88255 0.0056,-1.58897 0.0099,-3.17796 0.01286,-4.76694 0.01146,-4.18572 0.04094,-8.37113 0.07411,-12.55673 0.03067,-4.26967 0.04439,-8.53939 0.05951,-12.80914 0.03219,-8.38035 0.08341,-16.76045 0.146485,-25.14063 2.957785,1.16861 5.800775,2.34631 8.582031,3.89063 l 2.036377,1.12842 2.194092,1.23095 2.352295,1.31299 c 7.624718,4.27821 15.170818,8.68995 22.714843,13.1084 10.654596,6.2387 21.37619,12.3577 32.10962,18.45947 6.682027,3.79896 13.3332519,7.64255 19.94824169,11.55664 6.66150371,3.93902 13.37998531,7.76847 20.12500031,11.5625 13.567811,7.63579 27.019425,15.46962 40.417968,23.39844 8.973407,5.30824 18.011252,10.48701 27.113038,15.57275 4.404894,2.47089 8.769193,4.96641 13.03149,7.67725 l 2.07569,1.3103 c 1.24248,0.79338 2.4755,1.60186 3.69629,2.42823 2.50205,1.59475 3.95534,2.49235 6.93115,1.89819 l 2.67187,-1.53516 2.02686,-1.08423 c 2.38314,-1.2763 4.74125,-2.59167 7.09814,-3.91577 l 2.45704,-1.36718 c 3.21561,-1.7965 6.35098,-3.58816 9.41796,-5.63282 0.51255,-3.20011 0.51255,-3.20011 0.51172,-6.97656 l 0.0544,-2.07651 c 0.0542,-2.19058 0.088,-4.38094 0.12138,-6.57193 0.0332,-1.4844 0.0677,-2.96878 0.10352,-4.45312 0.085,-3.64042 0.15181,-7.28091 0.20898,-10.92188 l -2.11352,-0.7915 c -3.15887,-1.32254 -6.07621,-2.88165 -9.07007,-4.54443 l -1.75148,-0.97159 c -1.21686,-0.676 -2.43291,-1.35346 -3.64818,-2.03232 -1.84302,-1.02889 -3.68923,-2.05188 -5.53589,-3.07422 -1.18834,-0.66111 -2.3765,-1.32255 -3.56445,-1.98437 l -3.23608,-1.80225 c -2.12584,-1.24177 -4.20542,-2.56502 -6.24073,-3.9502 -3.20374,-2.08625 -6.148941,-2.92645 -9.839596,-3.84912 l -2,-1 v -3 h -2 v 5 h -8 v -11 l -2.484375,-0.70703 c -4.242994,-1.56048 -7.891436,-3.67313 -11.765625,-5.98047 -1.698934,-0.99788 -3.398169,-1.99525 -5.097657,-2.99218 l -2.7583,-1.62403 c -5.175996,-3.03381 -10.381166,-6.01703 -15.581543,-9.00879 -8.557619,-4.93127 -17.098673,-9.88983 -25.625,-14.875 -8.228965,-4.81089 -16.4867384,-9.56716 -24.7705081,-14.28296 -6.5187919,-3.71654 -13.0034609,-7.48905 -19.4794919,-11.27954 -8.926216,-5.22403 -17.889426,-10.37911 -26.875,-15.5 -7.832635,-4.46555 -15.661313,-8.93657 -23.4375,-13.5 l -1.978272,-1.15722 c -1.724012,-1.01676 -3.435806,-2.05415 -5.146728,-3.09278 l -3.164948,-1.51239 c -3.092306,-2.71333 -3.262722,-3.0061 -3.556579,-6.84094 -0.01739,-1.82132 -0.0014,-3.64313 0.04037,-5.46405 l -0.0027,-3.01651 c 0.0042,-3.29054 0.05086,-6.57905 0.09787,-9.86923 0.01119,-2.28114 0.01973,-4.56229 0.02573,-6.84345 0.02291,-6.00421 0.08185,-12.00755 0.148223,-18.01141 0.06138,-6.126386 0.08878,-12.252913 0.119019,-18.379517 0.06435,-12.021216 0.166757,-24.041786 0.292969,-36.0625 l 2.093582,-1.168122 c 17.876847,-9.963545 17.876847,-9.963545 35.593918,-20.206878 2.003632,-1.174946 4.007537,-2.349429 6.011718,-3.523438 l 2.790528,-1.635742 c 4.199055,-2.451967 8.424653,-4.855086 12.662597,-7.239258 3.325848,-1.895966 6.586131,-3.892653 9.851563,-5.8906248 l 3.267578,-1.9726563 c 2.165245,-1.3081422 4.321842,-2.6307261 6.46875,-3.96875 L -7.6962891,1.9516602 -4.9987793,0.296875 C -2.4501953,-0.63427734 -2.4501953,-0.63427734 0,0 Z"
       fill="#fdfdfd"
       id="path5"
       transform="translate(537.4502,403.63428)"
       sodipodi:nodetypes="cccccccccsccccccccccccccccccccccccccccccccccccccccccccccccccscccccccccccccccccscccccccccccccccccscccccccccccccccccccccccccccccccccccccccccccccccccccccccccccccccccccccccccccccccccc" />
    <path
       d="M 0,0 C 1.6632094,0.86797515 3.299788,1.7888303 4.90625,2.7578125 5.8071435,3.2965601 6.7080371,3.8353076 7.6362305,4.3903809 8.5812744,4.9628052 9.5263184,5.5352295 10.5,6.125 c 1.991741,1.1921524 3.983927,2.3835614 5.976562,3.5742188 0.958096,0.5741162 1.916192,1.1482322 2.903321,1.7397462 3.143815,1.873048 6.311288,3.694365 9.495117,5.498535 6.153559,3.493351 12.26599,7.054361 18.375,10.625 17.828957,10.41392 35.703333,20.742695 53.69507,30.873047 6.2769,3.540844 12.50589,7.153319 18.70556,10.827392 5.58384,3.30363 11.21111,6.527346 16.84937,9.737061 6.73247,3.834522 13.44619,7.697653 20.125,11.625 0.70447,0.413789 1.40895,0.827578 2.13477,1.253906 C 161.55361,93.526915 164.30035,95.20023 167,97 c -0.33,0.99 -0.66,1.98 -1,3 1.32,0.66 2.64,1.32 4,2 -0.66,0.99 -1.32,1.98 -2,3 -2.08057,0.38032 -2.08057,0.38032 -4.70006,0.38768 -0.99128,0.01 -1.98257,0.0198 -3.00389,0.03 -1.09148,-0.004 -2.18297,-0.009 -3.30752,-0.0136 -1.1464,0.007 -2.29279,0.0137 -3.47393,0.0208 -3.80577,0.0184 -7.61114,0.0144 -11.41694,0.009 -2.63555,0.005 -5.27109,0.01 -7.90664,0.0159 -5.53075,0.01 -11.06139,0.007 -16.59214,-0.003 -6.39624,-0.0115 -12.79206,0.003 -19.188247,0.0294 -6.148851,0.0248 -12.297507,0.0273 -18.446402,0.0209 -2.618358,-1.5e-4 -5.236724,0.006 -7.855052,0.0183 -3.656424,0.0148 -7.311916,0.004 -10.96831,-0.0129 -1.089459,0.01 -2.178918,0.0193 -3.301391,0.0293 -1.491156,-0.0148 -1.491156,-0.0148 -3.012436,-0.0298 -0.86481,-2.1e-4 -1.72962,-4.2e-4 -2.620635,-6.4e-4 C 50,105 50,105 48.19831,103.09367 47,101 47,101 47,99 53.75,95 53.75,95 56,95 53.69669,92.469707 51.328852,90.90658 48.34375,89.25 47.413047,88.729541 46.482344,88.209082 45.523437,87.672852 44.525703,87.120811 43.527969,86.56877 42.5,86 40.405812,84.828908 38.312068,83.657021 36.21875,82.484375 35.170742,81.898496 34.122734,81.312617 33.042969,80.708984 28.675698,78.256249 24.334495,75.760084 20,73.25 19.232847,72.808899 18.465693,72.367798 17.675293,71.91333 13.954573,69.763324 10.282676,67.564345 6.6640625,65.246094 5.9808594,64.81458 5.2976562,64.383066 4.59375,63.938477 3.3205242,63.129448 2.0566394,62.305442 0.8046875,61.463867 -2.5213178,59.360301 -2.5213178,59.360301 -6.3320312,59.441406 -7.2124609,59.955742 -8.0928906,60.470078 -9,61 c -0.6496875,0.356023 -1.299375,0.712046 -1.96875,1.078857 -2.467403,1.358187 -4.905773,2.76084 -7.34375,4.171143 -0.909192,0.522876 -1.818384,1.045752 -2.755127,1.584473 C -41.669706,79.661271 -41.669706,79.661271 -62.014893,91.92041 -64,93 -64,93 -66,93 c 0,0.66 0,1.32 0,2 1.256836,0.363516 1.256836,0.363516 2.539063,0.734375 3.903799,1.427575 7.301932,3.366609 10.835937,5.515625 1.490487,0.89129 2.981399,1.78187 4.472656,2.67188 0.812271,0.48662 1.624541,0.97324 2.461426,1.4746 5.148242,3.06784 10.327259,6.08312 15.503418,9.10352 1.043979,0.61134 2.087959,1.22268 3.163574,1.85254 0.983716,0.5746 1.967432,1.1492 2.980957,1.74121 0.876321,0.5124 1.752642,1.0248 2.655518,1.55273 2.33461,1.36697 2.33461,1.36697 4.655762,2.40235 C -15,123 -15,123 -14.25,125.125 c 0.0825,0.61875 0.165,1.2375 0.25,1.875 -2.875,0.625 -2.875,0.625 -6,1 -0.66,-0.66 -1.32,-1.32 -2,-2 -0.33,0.99 -0.66,1.98 -1,3 -23.76,0 -47.52,0 -72,0 0,0.66 0,1.32 0,2 29.04,0.33 58.08,0.66 88,1 0.33,0.66 0.66,1.32 1,2 -12.24018,0.20959 -24.479926,0.36898 -36.721542,0.46631 -5.685918,0.0467 -11.370597,0.11002 -17.055802,0.21265 -5.498504,0.0986 -10.995826,0.15177 -16.495147,0.17494 -2.085862,0.0165 -4.171668,0.0487 -6.257019,0.0977 -11.697313,0.26367 -20.65168,-0.12123 -30.49184,-6.97049 -1.96407,-1.41123 -1.96407,-1.41123 -4.97865,-2.98108 -2.75153,0.47004 -2.75153,0.47004 -5,2 -1.15371,0.62133 -2.30742,1.24266 -3.49609,1.88281 -1.31568,0.74409 -2.62939,1.49167 -3.94141,2.24219 -1.06541,0.60485 -1.06541,0.60485 -2.15234,1.22192 -1.45509,0.82677 -2.90936,1.65497 -4.3628,2.48462 -1.78594,1.01927 -3.57462,2.03373 -5.36377,3.04737 -6.29365,3.57541 -12.55206,7.20802 -18.80029,10.86206 -9.77109,5.71341 -19.55366,11.40688 -29.36761,17.04638 -1.25726,0.72326 -2.51366,1.44803 -3.76917,2.17432 -1.75426,1.01432 -3.51203,2.02256 -5.26996,3.03052 -1.51473,0.87181 -1.51473,0.87181 -3.06006,1.76123 C -205,174 -205,174 -207,174 c 0,15.18 0,30.36 0,46 -6.79936,0.0229 -13.59858,0.0428 -20.39795,0.0549 -2.31446,0.005 -4.62891,0.0119 -6.94336,0.0205 -3.32113,0.0121 -6.64223,0.0178 -9.96338,0.0222 -1.55943,0.008 -1.55943,0.008 -3.15036,0.0156 -0.96084,7e-5 -1.92169,1.5e-4 -2.91165,2.3e-4 -0.84827,0.002 -1.69655,0.004 -2.57053,0.007 C -255,220 -255,220 -257,219 c 0,70.95 0,141.9 0,215 -0.33,0 -0.66,0 -1,0 -0.29757,-36.80785 -0.52663,-73.61552 -0.66385,-110.42434 -0.0163,-4.34586 -0.0331,-8.69172 -0.0503,-13.03757 -0.003,-0.86518 -0.007,-1.73036 -0.0103,-2.62176 -0.0566,-14.00793 -0.15906,-28.01516 -0.27855,-42.02268 -0.12158,-14.37375 -0.19378,-28.74714 -0.22016,-43.12139 -0.0178,-8.86972 -0.0742,-17.73748 -0.17976,-26.60661 -0.0687,-6.08251 -0.0895,-12.16401 -0.0726,-18.24688 0.008,-3.5101 -0.004,-7.01677 -0.0741,-10.52626 -0.34872,-20.54198 -0.34872,-20.54198 2.79464,-25.2619 3.41597,-3.2879 7.28519,-4.64057 11.75503,-6.13061 2.12679,-1.16805 4.23615,-2.36946 6.3125,-3.625 1.1805,-0.67013 2.36141,-1.33954 3.54297,-2.00781 5.11667,-2.90966 10.18978,-5.89372 15.26953,-8.86719 14.17022,-8.28583 28.43095,-16.41021 42.69336,-24.53598 6.66882,-3.800408 13.33055,-7.60922 19.93164,-11.52652 11.69518,-6.906862 23.47962,-13.659948 35.25,-20.4375 4.37551,-2.519953 8.75054,-5.04072 13.125,-7.5625 1.07476,-0.619475 2.14951,-1.23895 3.25684,-1.877197 7.283886,-4.202456 14.54805,-8.437666 21.80566,-12.685303 8.796055,-5.145775 17.642942,-10.193938 26.522461,-15.194092 5.928423,-3.340207 11.83877,-6.708791 17.727539,-10.118408 0.746367,-0.429097 1.492734,-0.858193 2.261719,-1.300293 4.578409,-2.642656 9.102515,-5.359909 13.605469,-8.1293945 1.07967,-0.6542798 2.15934,-1.3085596 3.271728,-1.982666 2.120112,-1.2858228 4.230481,-2.5878822 6.32959,-3.9077149 0.965588,-0.5814477 1.931177,-1.1628955 2.926025,-1.76196285 0.853118,-0.52698486 1.7062356,-1.05396973 2.5852053,-1.59692385 C -5.0374884,-2.3292683 -3.3749358,-1.501475 0,0 Z"
       fill="#0e0f0e"
       transform="translate(655,279)"
       id="path6" />
    <path
       d="m 0,0 c 1.2626367,0.75023437 1.2626367,0.75023437 2.5507813,1.515625 1.1932279,0.6316886 2.3873256,1.2617355 3.5820312,1.890625 1.412293,0.7826147 2.8223024,1.5693592 4.2304685,2.359375 0.771182,0.4303857 1.542364,0.8607715 2.336914,1.3041992 8.832825,4.9556358 17.564836,10.0848398 26.303711,15.2036128 5.209818,3.050372 10.446432,6.048636 15.695313,9.03125 6.59172,3.766171 13.131458,7.623749 19.679687,11.464844 1.496602,0.875918 1.496602,0.875918 3.023438,1.769531 1.343122,0.787698 1.343122,0.787698 2.713379,1.591309 2.11704,1.20434 4.252691,2.306451 6.435058,3.385254 0.548328,29.570652 0.972646,59.141065 1.225568,88.715735 0.03002,3.49695 0.06108,6.99388 0.09279,10.49081 0.0063,0.69613 0.01259,1.39226 0.01908,2.10949 0.104241,11.25033 0.293347,22.49771 0.51423,33.74629 0.225007,11.55555 0.356061,23.10903 0.406457,34.66672 0.03123,6.48792 0.104306,12.96913 0.279398,19.45489 1.057848,40.72072 1.057848,40.72072 -4.883961,48.3207 -5.539435,5.16536 -11.572292,7.73532 -18.820038,9.67067 -3.985393,1.15995 -7.023289,3.03697 -10.51321,5.26219 -3.12284,1.79707 -6.246844,3.59211 -9.371094,5.38672 -5.716571,3.29007 -11.388178,6.63112 -16.992676,10.10938 -1.956543,1.0664 -1.956543,1.0664 -3.956543,1.0664 0,-76.88999 0,-153.78 0,-232.999995 -1.65,-0.66 -3.3,-1.32 -5,-2 C 17.889796,82.614 16.247199,81.677955 14.621094,80.714844 13.672424,80.156357 12.723755,79.597871 11.746338,79.022461 10.733054,78.42208 9.7197705,77.821699 8.6757813,77.203125 0.3637833,72.313044 -7.9791635,67.48956 -16.386719,62.765625 -24.425419,58.242838 -32.416895,53.653563 -40.34375,48.9375 c -2.956315,-1.756055 -5.935737,-3.465184 -8.929687,-5.15625 -0.792291,-0.452219 -1.584581,-0.904438 -2.400879,-1.370361 -1.527157,-0.87077 -3.059228,-1.73299 -4.59668,-2.58545 -1.776621,-1.019881 -3.485882,-2.155464 -5.178223,-3.309814 0,-0.99 0,-1.98 0,-3 1.401856,-0.783105 1.401856,-0.783105 2.832032,-1.582031 14.598209,-8.172961 29.069241,-16.561759 43.474365,-25.0700686 1.279495,-0.7552608 2.562019,-1.5054206 3.8479,-2.2497559 1.255927,-0.7472432 2.4916031,-1.5293657 3.7070314,-2.3408203 C -3.1093323,-0.61492377 -3.1093323,-0.61492377 0,0 Z"
       fill="#fdfdfd"
       transform="translate(765.44922,403.48437)"
       id="path7" />
    <path
       d="M 0,0 C 1.313702,0.6433848 2.625929,1.2897821 3.9375,1.9375 5.0338477,2.4769727 5.0338477,2.4769727 6.1523437,3.0273438 8,4 8,4 9,5 c 0.096959,1.5586325 0.1237166,3.1216748 0.1230478,4.6833201 0.00199,1.0191429 0.00398,2.0382849 0.00603,3.0883109 -0.00291,1.133244 -0.00583,2.266488 -0.00883,3.434073 8.544e-4,1.193251 0.00171,2.386503 0.00259,3.615914 0.00137,3.327022 -0.00178,6.653986 -0.00678,9.981001 -0.0043,3.582156 -0.00286,7.16431 -0.0021,10.746469 5.254e-4,6.211288 -0.00262,12.422566 -0.00824,18.633852 -0.00811,8.980578 -0.01073,17.961152 -0.011988,26.941734 -0.00219,14.568876 -0.00885,29.137746 -0.018303,43.706626 -0.00917,14.15592 -0.016254,28.31185 -0.020508,42.46777 -2.627e-4,0.87194 -5.254e-4,1.74388 -7.961e-4,2.64224 -0.0013,4.37408 -0.00257,8.74816 -0.00381,13.12224 C 9.0399496,224.3757 9.0223301,260.68785 9,297 c -0.66,0 -1.32,0 -2,0 0,-0.66 0,-1.32 0,-2 -1.32,-0.33 -2.64,-0.66 -4,-1 0,-5.28 0,-10.56 0,-16 -17.16,0 -34.32,0 -52,0 0.33,-1.32 0.66,-2.64 1,-4 2.64,-0.33 5.28,-0.66 8,-1 -1.32,-0.33 -2.64,-0.66 -4,-1 0.33,-0.99 0.66,-1.98 1,-3 0.09336,-1.33875 0.133639,-2.68162 0.138665,-4.02361 0.0055,-0.82109 0.01095,-1.64217 0.01659,-2.48814 9.79e-4,-0.90175 0.002,-1.80349 0.003,-2.73256 0.0049,-0.95811 0.0099,-1.91623 0.01496,-2.90338 0.01541,-3.22445 0.02375,-6.44888 0.03214,-9.67335 0.0096,-2.30584 0.01959,-4.61167 0.03,-6.9175 0.02709,-6.27234 0.04808,-12.54468 0.068,-18.81705 0.02184,-6.55036 0.04924,-13.10069 0.07606,-19.65103 0.04444,-10.99842 0.08511,-21.99684 0.123307,-32.99528 0.03936,-11.32912 0.08078,-22.65822 0.125,-33.98731 0.0027,-0.69817 0.0054,-1.39634 0.0083,-2.11566 0.01368,-3.50246 0.0274,-7.00492 0.04114,-10.50738 C -42.208956,93.125186 -42.102219,64.062603 -42,35 c -0.934439,-0.301102 -1.868879,-0.602204 -2.831635,-0.91243 -3.148764,-1.080842 -5.722814,-2.406157 -8.582427,-4.099289 -1.009336,-0.593613 -2.018672,-1.187226 -3.058594,-1.798828 -1.040274,-0.619394 -2.080547,-1.238789 -3.152344,-1.876953 -1.01707,-0.600059 -2.034141,-1.200117 -3.082031,-1.818359 -2.050995,-1.210062 -4.100806,-2.422132 -6.149414,-3.636231 C -73.89095,17.882407 -78.945274,14.940983 -84,12 c 3.220348,-3.2203477 5.758632,-4.8648149 10.352448,-5.3650818 1.276685,0.00398 2.55337,0.00796 3.868743,0.012054 1.061883,-0.00324 1.061883,-0.00324 2.145218,-0.00655 1.52995,-0.00308 3.059925,4.903e-4 4.589848,0.010014 2.421052,0.013769 4.841288,0.00728 7.26234,-0.00484 6.880315,-0.03093 13.760437,-0.026033 20.640778,-0.00595 4.214034,0.0109 8.427451,-0.00223 12.641399,-0.029896 1.605183,-0.00545 3.210427,-0.00136 4.81556,0.012398 2.24111,0.018993 4.48019,0.00769 6.721264,-0.010334 1.9126411,0.00358 1.9126411,0.00358 3.8639218,0.00723 3.288132,-0.3004099 3.288132,-0.3004099 4.9711303,-3.0947876 C -1.7553244,2.6912552 -1.3832989,1.8582489 -1,1 -0.67,0.67 -0.34,0.34 0,0 Z"
       fill="#191919"
       transform="translate(894,418)"
       id="path8" />
    <path
       d="m 0,0 c 2.5977556,1.2427728 5.1090516,2.5580408 7.6147461,3.9772949 0.9445605,0.533833 1.8891211,1.067666 2.8623049,1.6176758 0.996767,0.5683154 1.993535,1.1366309 3.020508,1.722168 1.032861,0.5863623 2.065722,1.1727246 3.129882,1.7768554 6.201364,3.5324349 12.366155,7.1157429 18.459717,10.8310549 3.525308,2.144723 7.082117,4.2204 10.672119,6.255371 0.878819,0.499995 1.757637,0.99999 2.663086,1.515137 1.732788,0.983153 3.469034,1.960243 5.208985,2.930664 0.77956,0.443276 1.559121,0.886552 2.362304,1.343261 1.050788,0.589626 1.050788,0.589626 2.122803,1.191163 0.745521,0.541527 0.745521,0.541527 1.506104,1.093994 0,0.66 0,1.32 0,2 -6.75,4 -6.75,4 -9,4 0.691771,2.670026 0.691771,2.670026 3,5 3.702193,0.789808 7.401238,0.629676 11.172607,0.567627 1.727039,0.0011 1.727039,0.0011 3.488968,0.0022 3.815106,-0.0035 7.629,-0.04242 11.443893,-0.08156 2.641295,-0.0093 5.282598,-0.01644 7.923905,-0.02144 6.247486,-0.01554 12.494538,-0.05658 18.741828,-0.106747 7.11233,-0.05587 14.22468,-0.08337 21.33717,-0.108477 14.63077,-0.05227 29.26119,-0.140231 43.89163,-0.251618 -0.66,-0.66 -1.32,-1.32 -2,-2 -0.33,-0.99 -0.66,-1.98 -1,-3 1.63452,-0.688477 1.63452,-0.688477 4,-1 2.7229,1.180664 2.7229,1.180664 5.84765,3.015625 0.56416,0.326611 1.12831,0.653222 1.70955,0.989731 1.84208,1.070067 3.67348,2.157132 5.5053,3.244644 1.27618,0.745701 2.55304,1.490242 3.83056,2.233642 2.54376,1.482446 5.08363,2.97122 7.62012,4.466065 3.69548,2.176571 7.41046,4.318256 11.12988,6.453613 2.97455,1.711452 5.93745,3.442605 8.90137,5.172363 2.82798,1.640329 5.66742,3.260055 8.50635,4.881348 2.04582,1.180556 4.0914,2.361539 6.13672,3.542969 1.46445,0.828907 1.46445,0.828907 2.95849,1.67456 0.89413,0.519895 1.78826,1.03979 2.70948,1.57544 0.80075,0.458906 1.6015,0.917812 2.42651,1.390625 0.85042,0.67289 0.85042,0.67289 1.71802,1.359375 0,3.720521 -0.64121,5.134645 -3,8 -3.09848,0.619049 -3.09848,0.619049 -6.9624,0.611816 -1.05663,0.0085 -1.05663,0.0085 -2.1346,0.01717 -2.33019,0.01351 -4.65882,-0.0075 -6.98894,-0.02742 -1.62042,0.0055 -3.24084,0.01362 -4.86124,0.02426 -4.26929,0.02291 -8.53808,0.01866 -12.8074,0.0062 -6.82631,-0.01828 -13.65232,-0.0083 -20.47856,0.02586 -2.38268,0.0061 -4.7647,-0.0072 -7.14732,-0.02199 -1.46612,0.0029 -2.93224,0.0066 -4.39835,0.01108 -1.27669,-0.004 -2.55337,-0.008 -3.86874,-0.01205 -3.59953,0.391989 -5.3833,1.385164 -8.35245,3.365082 -3.98353,-0.220217 -6.92784,-1.862987 -10.35938,-3.808594 -1.02577,-0.578145 -2.05154,-1.156289 -3.10839,-1.751953 -1.08314,-0.619395 -2.16627,-1.238789 -3.28223,-1.876953 -1.1115,-0.62584 -2.22299,-1.25168 -3.36817,-1.896485 -5.09649,-2.881587 -10.15591,-5.803017 -15.13183,-8.888672 -0.76989,-0.473166 -1.53979,-0.946333 -2.33301,-1.433837 -1.41074,-0.874639 -2.81184,-1.765075 -4.20117,-2.67334 -3.57965,-2.260681 -3.57965,-2.260681 -7.66895,-2.193604 -0.84047,0.502735 -1.68093,1.005469 -2.54687,1.523438 -1.22828,0.655312 -2.45755,1.308773 -3.6875,1.960937 -1.43916,0.80172 -2.87656,1.606601 -4.3125,2.414063 -0.771666,0.429016 -1.543331,0.858032 -2.33838,1.300048 -4.491543,2.507085 -8.944403,5.070778 -13.372559,7.688233 -0.943594,0.553169 -1.887187,1.106338 -2.859375,1.676269 -1.84739,1.085471 -3.688752,2.181278 -5.523437,3.288086 -0.843047,0.493872 -1.686094,0.987745 -2.554688,1.496582 -0.744272,0.444324 -1.488545,0.888648 -2.255371,1.346436 -2.53311,1.00221 -3.55928,0.671642 -6.096191,-0.170654 -0.99,0 -1.98,0 -3,0 -0.66,-0.33 -1.32,-0.66 -2,-1 -1.574823,-0.09467 -3.153628,-0.126301 -4.731293,-0.126984 -0.998253,-0.0028 -1.996506,-0.0056 -3.025009,-0.0085 -1.648895,0.003 -1.648895,0.003 -3.331101,0.0061 -1.731812,-0.0026 -1.731812,-0.0026 -3.498611,-0.0053 -3.833323,-0.0044 -7.6666,-0.0015 -11.499924,0.0019 -2.655569,-6.73e-4 -5.311137,-0.0016 -7.966705,-0.0029 -5.573604,-0.0018 -11.147194,5.82e-4 -16.7207949,0.0053 -6.4426512,0.0054 -12.8852708,0.0037 -19.3279213,-0.0018 -5.5295718,-0.0045 -11.0591338,-0.0052 -16.5887058,-0.0026 -3.303283,0.0016 -6.606548,0.0014 -9.909831,-0.0015 -3.684659,-0.0025 -7.369258,0.0013 -11.053913,0.0069 -1.095215,-0.002 -2.190429,-0.004 -3.318832,-0.0061 -1.003893,0.0028 -2.007786,0.0056 -3.042099,0.0085 -0.871263,3.77e-4 -1.742525,7.54e-4 -2.640189,0.0011 -2.247614,0.120611 -4.189483,0.497629 -6.345071,1.125841 0,0.66 0,1.32 0,2 -0.9075,-0.33 -1.815,-0.66 -2.75,-1 -3.320458,-1.196058 -3.320458,-1.196058 -7.25,-1 -5.456932,-1.38789 -9.967822,-4.129053 -14.75,-7 -0.766993,-0.451172 -1.533985,-0.902344 -2.324219,-1.367188 -5.648049,-3.35508 -5.648049,-3.35508 -7.925781,-5.632812 4.567982,-1.15235 9.059719,-1.134158 13.737548,-1.113526 0.882788,-1.2e-4 1.765575,-2.41e-4 2.675113,-3.65e-4 2.848149,7.44e-4 5.696232,0.0084 8.54437,0.01623 1.762166,0.0015 3.524332,0.0025 5.286499,0.0031 6.522996,0.0052 13.045984,0.0192 19.56897,0.03211 14.581875,0.02063 29.16375,0.04125 44.1874996,0.0625 -29.6999996,-0.33 -59.3999996,-0.66 -89.9999996,-1 0.99,-0.495 0.99,-0.495 2,-1 0,-0.66 0,-1.32 0,-2 35.64,-0.495 35.64,-0.495 72,-1 0.33,-0.66 0.66,-1.32 1,-2 1.98,0.495 1.98,0.495 4,1 0.33,-0.66 0.66,-1.32 1,-2 0.66,0 1.32,0 2,0 0,-0.66 0,-1.32 0,-2 -0.884861,-0.271509 -1.769722,-0.543018 -2.681397,-0.822754 -3.083081,-1.093697 -5.613122,-2.346512 -8.41626,-4.013184 -0.957129,-0.564448 -1.914257,-1.128896 -2.90039,-1.710449 -1.01127,-0.603442 -2.022539,-1.206885 -3.064453,-1.828613 -2.136219,-1.261264 -4.272949,-2.521663 -6.410157,-3.78125 -1.080395,-0.638086 -2.160791,-1.276172 -3.273925,-1.933594 -5.060217,-2.970969 -10.154517,-5.881228 -15.253418,-8.785156 -0.907581,-0.517398 -1.815162,-1.034795 -2.750245,-1.567871 -2.082699,-1.186685 -4.165906,-2.372466 -6.249755,-3.557129 0,-0.66 0,-1.32 0,-2 1.869873,-1.321778 1.869873,-1.321778 4.511718,-2.835938 1.462885,-0.845585 1.462885,-0.845585 2.955323,-1.708252 1.062751,-0.604167 2.125503,-1.208335 3.220459,-1.83081 1.626031,-0.936222 1.626031,-0.936222 3.284912,-1.891358 3.337957,-1.919331 6.681823,-3.827959 10.027588,-5.733642 2.813743,-1.605795 5.627378,-3.21178 8.440673,-4.81836 1.737578,-0.99022 3.476983,-1.977241 5.218262,-2.960937 3.992951,-2.263429 7.936548,-4.5673968 11.805908,-7.0371096 C -12.226252,5.0048657 -11.539907,4.571499 -10.832764,4.125 -9.5716445,3.3217825 -8.3198917,2.503571 -7.0803223,1.6674805 -2.9815249,-0.93475001 -2.9815249,-0.93475001 0,0 Z"
       fill="#101010"
       transform="translate(651.37744,337.74536)"
       id="path9" />
    <path
       d="M 0,0 C 1.313702,0.6433848 2.625929,1.2897821 3.9375,1.9375 5.0338477,2.4769727 5.0338477,2.4769727 6.1523437,3.0273438 8,4 8,4 9,5 c 0.095912,1.5688763 0.12188,3.1420779 0.1202545,4.7138825 0.00206,1.5292305 0.00206,1.5292305 0.00417,3.0893555 -0.00539,1.691766 -0.00539,1.691766 -0.010895,3.417709 1.46e-4,1.180328 2.92e-4,2.360656 4.425e-4,3.576752 -5.79e-4,3.245722 -0.00561,6.491402 -0.012574,9.737115 -0.00623,3.388616 -0.00684,6.777233 -0.00803,10.165854 -0.00311,6.42089 -0.011326,12.841763 -0.02135,19.262645 C 9.060856,66.271538 9.055346,73.579764 9.050323,80.887996 9.0398597,95.92534 9.0222607,110.96267 9,126 c -0.33,0 -0.66,0 -1,0 -0.495,-3.465 -0.495,-3.465 -1,-7 -0.33,2.31 -0.66,4.62 -1,7 -0.66,0 -1.32,0 -2,0 0,3.3 0,6.6 0,10 -0.33,0 -0.66,0 -1,0 0,-3.3 0,-6.6 0,-10 -14.85,0 -29.7,0 -45,0 0,-30.03 0,-60.06 0,-91 -1.98,-0.66 -3.96,-1.32 -6,-2 -1.83212,-0.952922 -3.63706,-1.959584 -5.414062,-3.011719 -1.009336,-0.593613 -2.018672,-1.187226 -3.058594,-1.798828 -1.040274,-0.619394 -2.080547,-1.238789 -3.152344,-1.876953 -1.01707,-0.600059 -2.034141,-1.200117 -3.082031,-1.818359 -2.050995,-1.210062 -4.100806,-2.422132 -6.149414,-3.636231 C -73.89095,17.882407 -78.945274,14.940983 -84,12 c 3.220348,-3.2203477 5.758632,-4.8648149 10.352448,-5.3650818 1.276685,0.00398 2.55337,0.00796 3.868743,0.012054 1.061883,-0.00324 1.061883,-0.00324 2.145218,-0.00655 1.52995,-0.00308 3.059925,4.903e-4 4.589848,0.010014 2.421052,0.013769 4.841288,0.00728 7.26234,-0.00484 6.880315,-0.03093 13.760437,-0.026033 20.640778,-0.00595 4.214034,0.0109 8.427451,-0.00223 12.641399,-0.029896 1.605183,-0.00545 3.210427,-0.00136 4.81556,0.012398 2.24111,0.018993 4.48019,0.00769 6.721264,-0.010334 1.9126411,0.00358 1.9126411,0.00358 3.8639218,0.00723 3.288132,-0.3004099 3.288132,-0.3004099 4.9711303,-3.0947876 C -1.7553244,2.6912552 -1.3832989,1.8582489 -1,1 -0.67,0.67 -0.34,0.34 0,0 Z"
       fill="#131313"
       transform="translate(894,418)"
       id="path10" />
    <path
       d="M 0,0 C 2.390625,1.109375 2.390625,1.109375 5.25,2.75 6.2309766,3.3042969 7.2119531,3.8585937 8.2226563,4.4296875 9.1391797,4.9478906 10.055703,5.4660937 11,6 c 1.986523,1.0328411 3.986559,2.0204881 6,3 0,3.63 0,7.26 0,11 2.64,0 5.28,0 8,0 0,-1.65 0,-3.3 0,-5 0.66,0 1.32,0 2,0 0,0.99 0,1.98 0,3 0.643242,0.12375 1.286484,0.2475 1.949219,0.375 6.90978,1.577125 12.098224,4.246457 18.015625,8.085937 5.3123,3.412343 10.844047,6.449274 16.347656,9.539063 1.045752,0.588296 2.091504,1.176592 3.168945,1.782715 C 68.986455,39.190588 71.492597,40.596394 74,42 c 0.323834,4.267717 0.558197,8.5288 0.714111,12.805176 0.06501,1.450159 0.153473,2.899478 0.266602,4.346679 C 75.353096,64.041706 75.397092,68.264217 74,73 c -3.908647,3.789502 -8.032658,5.753795 -13,8 -1.257742,0.765191 -2.503258,1.552143 -3.71875,2.382812 C 56.363438,83.957734 55.445625,84.532656 54.5,85.125 53.561562,85.725703 52.623125,86.326406 51.65625,86.945312 49,88 49,88 46.582031,87.414062 45.729961,86.947422 44.877891,86.480781 44,86 42.962305,85.448281 41.924609,84.896563 40.855469,84.328125 39.630713,83.639136 38.408207,82.946138 37.1875,82.25 36.510259,81.866584 35.833018,81.483169 35.135254,81.088135 27.622773,76.817227 20.167007,72.447925 12.707764,68.084961 7.4860143,65.030863 2.2589831,61.98952 -3,59 -9.3222132,55.406077 -15.597861,51.734491 -21.875,48.0625 -31.196943,42.611114 -40.561441,37.246728 -50,32 c 0.495,-1.485 0.495,-1.485 1,-3 -0.33,-0.66 -0.66,-1.32 -1,-2 1.32,0.33 2.64,0.66 4,1 0,0.66 0,1.32 0,2 0.66,0 1.32,0 2,0 -0.33,-0.99 -0.66,-1.98 -1,-3 14.19,0 28.38,0 43,0 0.33,-1.65 0.66,-3.3 1,-5 C -1.639375,21.613281 -2.27875,21.226562 -2.9375,20.828125 -5.5670461,18.497391 -5.6911037,17.205777 -6,13.75 -6.3311095,8.2020769 -5.3404815,5.3903472 -2,1 -1.34,0.67 -0.68,0.34 0,0 Z"
       fill="#1c1c1b"
       transform="translate(602,644)"
       id="path11" />
    <path
       d="m 0,0 c 2.5977556,1.2427728 5.1090516,2.5580408 7.6147461,3.9772949 0.9445605,0.533833 1.8891211,1.067666 2.8623049,1.6176758 0.996767,0.5683154 1.993535,1.1366309 3.020508,1.722168 1.032861,0.5863623 2.065722,1.1727246 3.129882,1.7768554 6.201364,3.5324349 12.366155,7.1157429 18.459717,10.8310549 3.525308,2.144723 7.082117,4.2204 10.672119,6.255371 0.878819,0.499995 1.757637,0.99999 2.663086,1.515137 1.732788,0.983153 3.469034,1.960243 5.208985,2.930664 0.77956,0.443276 1.559121,0.886552 2.362304,1.343261 0.700525,0.393084 1.40105,0.786167 2.122803,1.191163 0.497014,0.361018 0.994028,0.722036 1.506104,1.093994 0,0.66 0,1.32 0,2 -0.586766,0.330966 -1.173531,0.661933 -1.778077,1.002929 -10.750203,6.065449 -21.496439,12.137996 -32.221923,18.247071 -0.860691,0.488474 -1.721382,0.976948 -2.608155,1.480224 -4.000728,2.281914 -7.962512,4.601197 -11.860595,7.054932 -0.685782,0.428291 -1.3715629,0.856582 -2.0781254,1.297851 -1.2583937,0.792159 -2.5091496,1.59665 -3.75,2.416016 -2.5310654,1.592265 -4.0960599,2.569856 -7.1259766,2.226074 -2.5371192,-0.713835 -4.5453793,-1.597457 -6.8427734,-2.877441 -1.1977405,-0.662135 -1.1977405,-0.662135 -2.4196776,-1.337647 -1.269525,-0.716517 -1.269525,-0.716517 -2.564697,-1.447509 -0.888245,-0.495081 -1.77649,-0.990161 -2.691651,-1.500244 -6.220499,-3.483236 -12.384281,-7.058279 -18.51416,-10.698243 -9.111696,-5.408489 -18.333754,-10.626095 -27.544189,-15.864013 0,-0.66 0,-1.32 0,-2 1.869873,-1.321778 1.869873,-1.321778 4.511718,-2.835938 0.975257,-0.563723 1.950513,-1.127446 2.955323,-1.708252 1.062751,-0.604167 2.125503,-1.208335 3.220459,-1.83081 1.084021,-0.624148 2.168042,-1.248296 3.284912,-1.891358 3.337957,-1.919331 6.681823,-3.827959 10.027588,-5.733642 2.813743,-1.605795 5.627378,-3.21178 8.440673,-4.81836 1.737578,-0.99022 3.476983,-1.977241 5.218262,-2.960937 3.992951,-2.263429 7.936548,-4.5673968 11.805908,-7.0371096 C -12.226252,5.0048657 -11.539907,4.571499 -10.832764,4.125 -9.5716445,3.3217825 -8.3198917,2.503571 -7.0803223,1.6674805 -2.9815249,-0.93475001 -2.9815249,-0.93475001 0,0 Z"
       fill="#fcfcfc"
       transform="translate(651.37744,337.74536)"
       id="path12" />
    <path
       d="m 0,0 c 2,1 2,1 3,3 0.8622166,0.010308 1.7244333,0.020615 2.6127777,0.031235 8.1083533,0.097801 16.2166313,0.2002904 24.3248583,0.3081046 4.168954,0.055267 8.337915,0.108693 12.506944,0.1579752 4.020059,0.047588 8.04003,0.099928 12.059984,0.1556263 1.53704,0.020449 3.074105,0.039158 4.611187,0.056133 2.145669,0.023988 4.29117,0.05405 6.436739,0.085604 1.223557,0.015544 2.447114,0.031089 3.707749,0.047104 C 72,4 72,4 73,5 73.66,4.34 74.32,3.68 75,3 75.99,3.495 75.99,3.495 77,4 77.33,3.01 77.66,2.02 78,1 79.434104,0.75045995 80.872601,0.52607358 82.3125,0.3125 83.113008,0.18488281 83.913516,0.05726563 84.738281,-0.07421875 87,0 87,0 88.78125,1.3125 90.431151,3.5969784 90.222934,5.250486 90,8 90.99,8.495 90.99,8.495 92,9 91.475352,9.2449219 90.950703,9.4898438 90.410156,9.7421875 84.08517,12.794178 78.065406,16.258963 72.033447,19.842041 66.055074,23.390499 60.037887,26.86633 54,30.3125 53.140437,30.803713 52.280874,31.294927 51.395264,31.801025 45.951191,34.905671 40.485102,37.968454 35,41 c -0.33,-0.66 -0.66,-1.32 -1,-2 0.66,0 1.32,0 2,0 0,-0.66 0,-1.32 0,-2 1.32,-0.33 2.64,-0.66 4,-1 0,-0.66 0,-1.32 0,-2 C 28.83888,33.846265 17.677702,33.698084 6.5164137,33.557036 1.3340621,33.491371 -3.8482494,33.423776 -9.0305176,33.351807 -14.029533,33.282453 -19.02859,33.218121 -24.027716,33.157305 c -1.909439,-0.02412 -3.818855,-0.05006 -5.728244,-0.07784 -2.669609,-0.03853 -5.339222,-0.07063 -8.008933,-0.101195 -1.190066,-0.01942 -1.190066,-0.01942 -2.404174,-0.03923 C -43.393285,32.907853 -45.916547,32.972182 -49,34 c -1.666216,0.03875 -3.333942,0.04503 -5,0 -0.33,-0.66 -0.66,-1.32 -1,-2 0.748704,-0.427083 1.497407,-0.854165 2.268799,-1.294189 C -34.472367,20.290954 -34.472367,20.290954 -16.25,9.8125 -15.520632,9.3925073 -14.791265,8.9725147 -14.039795,8.5397949 -9.8182289,6.0963543 -5.7078575,3.5433103 -1.6552734,0.8269043 -1.1090332,0.55402588 -0.56279297,0.28114746 0,0 Z"
       fill="#201f1e"
       transform="translate(715,765)"
       id="path13" />
    <path
       d="M 0,0 C 2.390625,1.109375 2.390625,1.109375 5.25,2.75 L 8.2226563,4.4296875 11,6 c 1.986523,1.0328411 3.986559,2.0204881 6,3 L 44.888429,25.155844 25,20 v -5 h 2 v 3 l 1.949219,0.375 c 7.746401,1.76808 13.541967,5.115799 20.151367,9.427734 2.125018,1.339472 4.288217,2.592609 6.469726,3.837891 l 2.351075,1.345459 c 1.53208,0.872698 3.067495,1.739572 4.606445,2.600098 l 2.112793,1.214599 1.891602,1.067627 C 68,39 68,39 69,42 l -1.942429,-0.985809 c -4.06521,-1.348423 -7.724592,-1.277966 -11.978714,-1.241242 l -2.691833,-8.85e-4 c -2.927286,0.0014 -5.854314,0.01694 -8.781555,0.03262 -2.033095,0.0037 -4.066192,0.0066 -6.099289,0.0086 -5.344599,0.0076 -10.68909,0.02727 -16.033646,0.04941 -5.456324,0.02048 -10.912667,0.0296 -16.3690184,0.03967 C -5.5977041,39.923777 -16.298843,39.957902 -27,40 v 2 c -2.39546,0.85839 -3.572583,1.166557 -5.98291,0.227295 l -2.056152,-1.246826 -2.257813,-1.34961 L -39.625,38.1875 -41.976562,36.779297 C -47.658431,33.341569 -47.658431,33.341569 -50,31 v -3 l 3,-1 1,3 h 2 l -1,-3 h 43 l 1,-5 -1.9375,-1.171875 C -5.5670461,18.497391 -5.6911038,17.205777 -6,13.75 -6.3311095,8.2020769 -5.3404816,5.3903472 -2,1 Z"
       fill="#1d1c1b"
       transform="translate(602,644)"
       id="path15"
       sodipodi:nodetypes="cccccccccccccccccccccccccccccccccccccccccccc" />
    <path
       d="M 0,0 C 0.51949219,0.30035156 1.0389844,0.60070312 1.5742187,0.91015625 5.8294107,3.3082911 5.8294107,3.3082911 10.5625,3.9375 13.754176,2.7099323 16.881928,1.4061892 20,0 c 0.99,1.65 1.98,3.3 3,5 -2.31,0.33 -4.62,0.66 -7,1 26.4,0.33 52.8,0.66 80,1 0,0.33 0,0.66 0,1 -26.73,0.33 -53.46,0.66 -81,1 26.4,0.33 52.8,0.66 80,1 0,0.33 0,0.66 0,1 -12.645541,0.209014 -25.29135,0.394428 -37.9375,0.5625 -1.435703,0.0191 -1.435703,0.0191 -2.90041,0.03859 -32.040352,0.419313 -64.059434,0.376614 -96.09959,-0.03859 -0.989772,-0.01281 -1.979544,-0.02563 -2.99931,-0.03883 C -56.958146,11.366475 -68.979175,11.192331 -81,11 c -0.33,0.66 -0.66,1.32 -1,2 -1.32,-0.99 -2.64,-1.98 -4,-3 4.567983,-1.1523498 9.05972,-1.1341572 13.737549,-1.1135254 0.882787,-1.205e-4 1.765574,-2.411e-4 2.675113,-3.652e-4 2.848149,7.444e-4 5.696232,0.00835 8.544369,0.016234 1.762166,0.00147 3.524333,0.00249 5.286499,0.00305 6.522997,0.00524 13.045984,0.019197 19.56897,0.032105 C -21.605625,8.958125 -7.02375,8.97875 8,9 -21.7,8.67 -51.4,8.34 -82,8 c 0.66,-0.33 1.32,-0.66 2,-1 0,-0.66 0,-1.32 0,-2 35.64,-0.495 35.64,-0.495 72,-1 0.33,-0.66 0.66,-1.32 1,-2 0.598125,0.226875 1.19625,0.45375 1.8125,0.6875 C -4.1046875,2.8421875 -4.1046875,2.8421875 -3,3 -1.3565857,1.5650773 -1.3565857,1.5650773 0,0 Z"
       fill="#171715"
       transform="translate(640,403)"
       id="path35" />
    <path
       d="m 0,0 c 0.33,0 0.66,0 1,0 0,77.22 0,154.44 0,234 -1.32,0 -2.64,0 -4,0 0.33,-0.99 0.66,-1.98 1,-3 0.66,0 1.32,0 2,0 C 0,154.77 0,78.54 0,0 Z"
       fill="#dadada"
       transform="translate(851,453)"
       id="path80" />
    <path
       d="m 0,0 c 0.33,0 0.66,0 1,0 0,23.43 0,46.86 0,71 -4,-2 -4,-2 -5,-4 0.99,0 1.98,0 3,0 0.33,-22.11 0.66,-44.22 1,-67 z"
       fill="#e6e6e6"
       transform="translate(737,519)"
       id="path180" />
    <path
       d="M 0,0 C 3.1956288,0.70147949 5.6776892,1 9,1 8.01,1.99 7.02,2.98 6,4 6.99,4.66 7.98,5.32 9,6 5.0527241,6.1794216 2.4019487,6.0935069 -1,4 -1.99,4.66 -2.98,5.32 -4,6 -4.99,5.67 -5.98,5.34 -7,5 -7,4.34 -7,3.68 -7,3 -6.34,2.67 -5.68,2.34 -5,2 -5.66,1.34 -6.32,0.68 -7,0 c 2.7112283,-1.3556142 4.0797922,-0.67911809 7,0 z"
       fill="#262523"
       transform="translate(647,801)"
       id="path219" />
    <path
       d="M 0,0 C 1.98,0 3.96,0 6,0 5.67,1.32 5.34,2.64 5,4 5.99,3.67 6.98,3.34 8,3 8,2.01 8,1.02 8,0 8.99,0.33 9.98,0.66 11,1 11,5 11,5 9.5,6.75 9.005,7.1625 8.51,7.575 8,8 6.6589523,7.2426673 5.3273022,6.4686726 4,5.6875 2.88625,5.0436133 2.88625,5.0436133 1.75,4.3867187 1.1725,3.9291016 0.595,3.4714844 0,3 0,2.01 0,1.02 0,0 Z"
       fill="#272727"
       transform="translate(636,721)"
       id="path259" />
    <path
       d="m 0,0 c -4.4910163,4.0419146 -9.5898499,6.4367444 -15,9 -0.33,-0.99 -0.66,-1.98 -1,-3 1.716631,-1.2055501 3.448885,-2.3888772 5.1875,-3.5625 C -9.8495703,1.7762109 -8.8866406,1.1149219 -7.8945312,0.43359375 -4.6348132,-1.1808685 -3.3847905,-1.1323888 0,0 Z"
       fill="#282725"
       transform="translate(725,820)"
       id="path265" />
    <path
       d="M 0,0 C 1.4579288,-0.05399736 2.9164271,-0.09279177 4.375,-0.125 5.1871094,-0.14820313 5.9992187,-0.17140625 6.8359375,-0.1953125 9,0 9,0 11,2 11,2.66 11,3.32 11,4 8.3125,5.25 8.3125,5.25 5,6 2.125,4.25 2.125,4.25 0,2 0,1.34 0,0.68 0,0 Z"
       fill="#1a1a1a"
       transform="translate(652,336)"
       id="path313" />
    <path
       d="M 0,0 C 2.475,0.99 2.475,0.99 5,2 2.9476632,4.2477975 1.9933274,5.0022242 -1,6 -1,3 -1,3 0,0 Z"
       fill="#e7e7e7"
       transform="translate(649,337)"
       id="path532" />
  </g>
</svg>
