<?xml version="1.0" encoding="UTF-8" standalone="no"?>
<svg
   viewBox="0 0 267.12946 188.97638"
   version="1.1"
   id="svg523"
   sodipodi:docname="research_aei.svg"
   width="70.678001mm"
   height="50mm"
   inkscape:version="1.4.4 (dcaf3e7d9e, 2026-05-05)"
   xmlns:inkscape="http://www.inkscape.org/namespaces/inkscape"
   xmlns:sodipodi="http://sodipodi.sourceforge.net/DTD/sodipodi-0.dtd"
   xmlns="http://www.w3.org/2000/svg"
   xmlns:svg="http://www.w3.org/2000/svg">
  <sodipodi:namedview
     id="namedview523"
     pagecolor="#ffffff"
     bordercolor="#000000"
     borderopacity="0.25"
     inkscape:showpageshadow="2"
     inkscape:pageopacity="0.0"
     inkscape:pagecheckerboard="0"
     inkscape:deskcolor="#d1d1d1"
     inkscape:zoom="0.17113102"
     inkscape:cx="2585.7382"
     inkscape:cy="429.49549"
     inkscape:window-width="3006"
     inkscape:window-height="1211"
     inkscape:window-x="66"
     inkscape:window-y="32"
     inkscape:window-maximized="1"
     inkscape:current-layer="svg523"
     inkscape:document-units="mm" />
  <defs
     id="defs9">
    <style
       id="style1">
      .cls-1 {
        stroke-width: .26px;
      }

      .cls-1, .cls-2, .cls-3, .cls-4, .cls-5, .cls-6, .cls-7, .cls-8, .cls-9, .cls-10, .cls-11, .cls-12, .cls-13, .cls-14, .cls-15, .cls-16, .cls-17, .cls-18, .cls-19, .cls-20, .cls-21, .cls-22, .cls-23, .cls-24, .cls-25, .cls-26, .cls-27, .cls-28, .cls-29, .cls-30, .cls-31, .cls-32, .cls-33, .cls-34, .cls-35, .cls-36, .cls-37, .cls-38, .cls-39, .cls-40, .cls-41, .cls-42, .cls-43, .cls-44, .cls-45, .cls-46, .cls-47, .cls-48, .cls-49, .cls-50, .cls-51, .cls-52, .cls-53, .cls-54, .cls-55, .cls-56, .cls-57, .cls-58, .cls-59, .cls-60, .cls-61, .cls-62, .cls-63 {
        stroke-miterlimit: 3.86;
      }

      .cls-1, .cls-2, .cls-3, .cls-4, .cls-5, .cls-6, .cls-7, .cls-8, .cls-9, .cls-10, .cls-11, .cls-12, .cls-13, .cls-14, .cls-15, .cls-16, .cls-17, .cls-18, .cls-19, .cls-20, .cls-21, .cls-22, .cls-23, .cls-24, .cls-25, .cls-26, .cls-27, .cls-28, .cls-30, .cls-31, .cls-32, .cls-33, .cls-34, .cls-35, .cls-36, .cls-37, .cls-38, .cls-39, .cls-40, .cls-41, .cls-42, .cls-43, .cls-44, .cls-45, .cls-46, .cls-47, .cls-48, .cls-49, .cls-50, .cls-51, .cls-52, .cls-53, .cls-54, .cls-55, .cls-56, .cls-57, .cls-58, .cls-59, .cls-60, .cls-61, .cls-62, .cls-63 {
        stroke: #221810;
      }

      .cls-1, .cls-3, .cls-7, .cls-10, .cls-11, .cls-17, .cls-18, .cls-19, .cls-64, .cls-22, .cls-23, .cls-24, .cls-65, .cls-27, .cls-28, .cls-34, .cls-35, .cls-37, .cls-43, .cls-44, .cls-45, .cls-46, .cls-48, .cls-49, .cls-50, .cls-53, .cls-54, .cls-57, .cls-66, .cls-61 {
        fill: none;
      }

      .cls-2, .cls-4, .cls-13, .cls-15, .cls-21, .cls-29, .cls-33, .cls-67, .cls-38, .cls-47, .cls-58 {
        fill: #c8a500;
      }

      .cls-2, .cls-5, .cls-6, .cls-8, .cls-10, .cls-12, .cls-14, .cls-16, .cls-20, .cls-68, .cls-25, .cls-26, .cls-29, .cls-31, .cls-69, .cls-33, .cls-67, .cls-35, .cls-36, .cls-38, .cls-70, .cls-39, .cls-40, .cls-41, .cls-43, .cls-44, .cls-47, .cls-48, .cls-51, .cls-55, .cls-56, .cls-58, .cls-60, .cls-66, .cls-61, .cls-62 {
        fill-rule: evenodd;
      }

      .cls-2, .cls-5, .cls-13, .cls-16, .cls-23, .cls-25, .cls-29, .cls-32, .cls-43, .cls-44, .cls-56 {
        stroke-width: .06px;
      }

      .cls-3 {
        stroke-width: .16px;
      }

      .cls-4, .cls-8, .cls-9, .cls-26, .cls-31, .cls-33, .cls-34, .cls-48, .cls-51, .cls-52, .cls-59, .cls-62 {
        stroke-width: .13px;
      }

      .cls-71 {
        fill: #053a8b;
      }

      .cls-71, .cls-72, .cls-73, .cls-74, .cls-75, .cls-76, .cls-77, .cls-78, .cls-68, .cls-64, .cls-65, .cls-79, .cls-80, .cls-67, .cls-81, .cls-82, .cls-83, .cls-84, .cls-66 {
        stroke-width: 0px;
      }

      .cls-85 {
        clip-path: url(#clippath-11);
      }

      .cls-5, .cls-39 {
        fill: #221810;
      }

      .cls-86, .cls-14, .cls-31, .cls-42, .cls-59 {
        fill: #bdbab7;
      }

      .cls-6 {
        fill: #ee7bae;
      }

      .cls-6, .cls-10, .cls-14, .cls-21, .cls-30, .cls-40, .cls-41, .cls-42, .cls-50, .cls-55, .cls-58, .cls-60 {
        stroke-width: .1px;
      }

      .cls-72 {
        fill: #020202;
      }

      .cls-7 {
        stroke-width: .13px;
      }

      .cls-8, .cls-68, .cls-25, .cls-41 {
        fill: #00885b;
      }

      .cls-9, .cls-12, .cls-16, .cls-30, .cls-32, .cls-70, .cls-52, .cls-55, .cls-62, .cls-63 {
        fill: #dc2f34;
      }

      .cls-73 {
        fill: #25589b;
      }

      .cls-11 {
        stroke-width: .14px;
      }

      .cls-12 {
        stroke-width: .07px;
      }

      .cls-74 {
        fill: #000004;
      }

      .cls-87 {
        clip-path: url(#clippath-2);
      }

      .cls-75 {
        fill: #ffec00;
      }

      .cls-88 {
        isolation: isolate;
      }

      .cls-15, .cls-47 {
        stroke-width: .08px;
      }

      .cls-17 {
        stroke-width: .11px;
      }

      .cls-77 {
        fill: #ffdb00;
      }

      .cls-78 {
        fill: #ce0e2d;
      }

      .cls-18 {
        stroke-width: .08px;
      }

      .cls-19 {
        stroke-width: .03px;
      }

      .cls-89 {
        clip-path: url(#clippath-6);
      }

      .cls-20, .cls-80, .cls-40, .cls-56 {
        fill: #fff;
      }

      .cls-20, .cls-35 {
        stroke-width: .06px;
      }

      .cls-22 {
        stroke-width: .21px;
      }

      .cls-90 {
        clip-path: url(#clippath-7);
      }

      .cls-24 {
        stroke-width: .27px;
      }

      .cls-91 {
        clip-path: url(#clippath-1);
      }

      .cls-92 {
        clip-path: url(#clippath-4);
      }

      .cls-65, .cls-30, .cls-32, .cls-52, .cls-81 {
        clip-rule: evenodd;
      }

      .cls-26 {
        fill: #ffe39c;
      }

      .cls-27 {
        stroke-width: .19px;
      }

      .cls-28 {
        stroke-width: .24px;
      }

      .cls-29 {
        stroke: #c8a500;
      }

      .cls-79 {
        fill: #211915;
      }

      .cls-69, .cls-36, .cls-51, .cls-81, .cls-60 {
        fill: #006db7;
      }

      .cls-36, .cls-63 {
        stroke-width: .15px;
      }

      .cls-93 {
        clip-path: url(#clippath-9);
      }

      .cls-37 {
        stroke-width: .23px;
      }

      .cls-94 {
        clip-path: url(#clippath);
      }

      .cls-38 {
        stroke-width: .07px;
      }

      .cls-39, .cls-61 {
        stroke-width: .01px;
      }

      .cls-95 {
        clip-path: url(#clippath-3);
      }

      .cls-44 {
        stroke-linecap: round;
      }

      .cls-45 {
        stroke-width: .02px;
      }

      .cls-46 {
        stroke-width: .05px;
      }

      .cls-96 {
        clip-path: url(#clippath-8);
      }

      .cls-49 {
        stroke-width: .18px;
      }

      .cls-53 {
        stroke-width: .14px;
      }

      .cls-54 {
        stroke-width: .32px;
      }

      .cls-97 {
        clip-path: url(#clippath-5);
      }

      .cls-82 {
        fill: #ffcd00;
      }

      .cls-57 {
        stroke-width: .16px;
      }

      .cls-98 {
        clip-path: url(#clippath-10);
      }

      .cls-83 {
        fill: #039;
      }

      .cls-84 {
        fill: #dae3f3;
      }

      .cls-99 {
        mix-blend-mode: multiply;
      }
    </style>
    <clipPath
       id="clippath">
      <path
         class="cls-65"
         d="m 214.45,314.68 c 0,-1.29 1.06,-2.33 2.37,-2.33 1.31,0 2.37,1.04 2.37,2.33 0,1.29 -1.06,2.33 -2.37,2.33 -1.31,0 -2.37,-1.04 -2.37,-2.33 z"
         id="path1" />
    </clipPath>
    <clipPath
       id="clippath-1">
      <path
         class="cls-32"
         d="m 216.79,349.66 c -6.24,-0.01 -11.87,-0.58 -16.16,-1.73 4.29,-1.16 9.93,-1.86 16.16,-1.87 6.23,0.01 11.91,0.72 16.2,1.87 -4.29,1.16 -9.96,1.72 -16.2,1.73 z"
         id="path2" />
    </clipPath>
    <clipPath
       id="clippath-2">
      <rect
         class="cls-42"
         x="195.98"
         y="383.06"
         width="41.66"
         height="212.34"
         id="rect2" />
    </clipPath>
    <clipPath
       id="clippath-3">
      <path
         class="cls-32"
         d="m 599.05,349.66 c -6.24,-0.01 -11.88,-0.58 -16.17,-1.73 4.29,-1.16 9.93,-1.86 16.17,-1.87 6.24,0.01 11.9,0.72 16.2,1.87 -4.29,1.16 -9.96,1.72 -16.2,1.73 z"
         id="path3" />
    </clipPath>
    <clipPath
       id="clippath-4">
      <path
         class="cls-65"
         d="m 596.71,317.11 c 0,-1.29 1.06,-2.33 2.37,-2.33 1.31,0 2.37,1.04 2.37,2.33 0,1.29 -1.06,2.33 -2.37,2.33 -1.31,0 -2.37,-1.04 -2.37,-2.33 z"
         id="path4" />
    </clipPath>
    <clipPath
       id="clippath-5">
      <rect
         class="cls-42"
         x="578.40997"
         y="383.06"
         width="41.650002"
         height="212.34"
         id="rect4" />
    </clipPath>
    <clipPath
       id="clippath-6">
      <path
         class="cls-32"
         d="m 406.38,233.84 c 17.02,0 32.17,2.61 42.05,6.7 5.64,2.64 13.22,4.6 21.52,5.76 6.32,0.87 12.33,1.06 17.56,0.65 6.99,-0.14 17.09,1.98 27.2,6.62 8.37,3.84 15.35,8.55 20,13.1 l -4.02,3.72 -1.16,10.56 -11.01,13.13 -5.51,4.86 -13.04,10.85 -6.67,0.57 -2.03,5.99 -84.35,-10.28 -84.61,10.28 -2.03,-5.99 -6.67,-0.57 -13.04,-10.85 -5.51,-4.86 -11.01,-13.13 -1.16,-10.56 -4.03,-3.72 c 4.65,-4.55 11.64,-9.26 20,-13.1 10.1,-4.65 20.21,-6.77 27.2,-6.62 5.22,0.41 11.24,0.22 17.56,-0.65 8.3,-1.15 15.88,-3.12 21.53,-5.76 9.87,-4.08 24.18,-6.7 41.2,-6.7 z"
         id="path5" />
    </clipPath>
    <clipPath
       id="clippath-7">
      <rect
         class="cls-64"
         x="289.67999"
         y="273.97"
         width="231.50999"
         height="40.66"
         id="rect5" />
    </clipPath>
    <clipPath
       id="clippath-8">
      <path
         class="cls-30"
         d="m 407.6,345.43 c -28.36,-0.05 -54,-3.45 -73.51,-8.7 19.51,-5.25 45.15,-8.47 73.51,-8.52 28.36,0.05 54.13,3.26 73.64,8.52 -19.51,5.25 -45.28,8.66 -73.64,8.7 z"
         id="path6" />
    </clipPath>
    <clipPath
       id="clippath-9">
      <path
         class="cls-81"
         d="m 396.07,192.71 c 0,-6.18 5.09,-11.18 11.35,-11.18 6.26,0 11.34,5.01 11.34,11.18 0,6.17 -5.07,11.18 -11.34,11.18 -6.27,0 -11.35,-5.01 -11.35,-11.18 z"
         id="path7" />
    </clipPath>
    <clipPath
       id="clippath-10">
      <path
         class="cls-65"
         d="m 395.96,193.11 c 0,-6.17 5.08,-11.18 11.35,-11.18 6.27,0 11.35,5.01 11.35,11.18 0,6.17 -5.08,11.18 -11.35,11.18 -6.27,0 -11.35,-5.01 -11.35,-11.18 z"
         id="path8" />
    </clipPath>
    <clipPath
       id="clippath-11">
      <path
         class="cls-52"
         d="m 408.1,585.39 c 0,35.08 -28.58,63.53 -64.19,63.53 -35.61,0 -64.47,-28.44 -64.47,-63.53 V 496.46 H 408.1 Z"
         id="path9" />
    </clipPath>
  </defs>
  <g
     id="svg_2-3"
     data-name="svg 2"
     style="isolation:isolate"
     transform="matrix(0.26696481,0,0,0.26696481,-1099.9489,-20.735157)">
    <g
       id="svg_3-2"
       data-name="svg 3">
      <rect
         id="svg_4"
         data-name="svg 4"
         class="cls-84"
         x="4120.2002"
         y="77.669998"
         width="1000.62"
         height="707.87" />
      <g
         id="svg_5"
         data-name="svg 5">
        <g
           id="svg_6"
           data-name="svg 6">
          <path
             id="svg_7"
             data-name="svg 7"
             class="cls-71"
             d="m 4491.04,652.3 c 0,4.97 -39.32,-28.68 -71.05,-51.68 0,0 72.64,-136.04 20.1,-389.34 0,0 94.54,28.93 93.94,33.47 -3.46,26.62 -42.89,155.09 -42.99,407.54 z" />
          <path
             id="svg_8"
             data-name="svg 8"
             class="cls-71"
             d="m 4337.27,529.58 c -184.4,-121.14 35.23,-292.43 35.23,-292.43 0,0 -359.04,203.78 -49.24,311.15 24.77,8.57 88.88,16.92 160.93,20.3 -0.01,0 -104.29,-10.99 -146.92,-39.02 z" />
          <path
             id="svg_9"
             data-name="svg 9"
             class="cls-71"
             d="m 4345.22,234.05 c 0,0 86,7.18 73.52,64.68 -20.95,96.52 -238.21,132.65 -248.39,133.29 -10.94,0.7 198.86,-55.08 217.22,-145.49 8.67,-42.68 -42.36,-52.48 -42.36,-52.48 v 0 z" />
        </g>
        <g
           id="svg_10"
           data-name="svg 10">
          <g
             id="svg_11-2"
             data-name="svg 11">
            <path
               id="svg_12-2"
               data-name="svg 12"
               class="cls-76"
               d="m 4593.21,357.78 14.92,-69.87 h 9.38 l 14.9,69.87 h -9.28 l -3.21,-17.62 h -14.2 l -3.32,17.62 h -9.2 z m 13.83,-24.55 h 11.65 l -5.85,-31.56 z" />
            <path
               id="svg_13-2"
               data-name="svg 13"
               class="cls-76"
               d="m 4654.84,358.63 c -6.36,0 -10.94,-2.01 -13.72,-6.01 -2.83,-4.02 -4.25,-9.93 -4.25,-17.77 v -23.38 c 0,-3.21 0.19,-6.02 0.54,-8.43 0.35,-2.41 0.96,-4.65 1.82,-6.69 0.83,-2.05 1.97,-3.72 3.39,-5.01 1.39,-1.3 3.19,-2.3 5.35,-3.01 2.16,-0.71 4.71,-1.08 7.62,-1.08 6.47,0 11.12,1.64 13.94,4.92 2.83,3.28 4.26,8.44 4.26,15.52 v 2.57 h -9.17 v -2.2 c 0,-1.97 -0.05,-3.58 -0.17,-4.84 -0.11,-1.3 -0.32,-2.51 -0.69,-3.66 -0.34,-1.13 -0.86,-2.06 -1.52,-2.68 -0.66,-0.62 -1.52,-1.13 -2.59,-1.5 -1.07,-0.37 -2.38,-0.56 -3.96,-0.56 -1.2,0 -2.27,0.15 -3.21,0.4 -0.92,0.26 -1.69,0.62 -2.35,1.06 -0.64,0.44 -1.18,1.03 -1.61,1.81 -0.43,0.77 -0.77,1.53 -1.02,2.28 -0.26,0.74 -0.45,1.7 -0.59,2.85 -0.15,1.15 -0.24,2.22 -0.26,3.19 -0.02,0.95 -0.05,2.14 -0.05,3.58 v 25.86 c 0,5.35 0.67,9.2 1.95,11.56 1.28,2.32 3.77,3.5 7.41,3.5 3.64,0 6.17,-1.28 7.52,-3.82 1.34,-2.51 2.03,-6.6 2.03,-12.16 v -4.89 h -8.86 v -6.93 h 17.71 v 34.65 h -6.18 l -0.94,-8.04 c -2.1,5.93 -6.23,8.89 -12.38,8.89 v 0 z" />
            <polygon
               id="svg_14-2"
               data-name="svg 14"
               class="cls-76"
               points="4693.08,325.16 4693.08,350.79 4710.59,350.79 4710.59,357.78 4683.34,357.78 4683.34,287.92 4710.38,287.92 4710.38,295.14 4693.08,295.14 4693.08,318.22 4707.15,318.22 4707.15,325.16 " />
            <polygon
               id="svg_15-2"
               data-name="svg 15"
               class="cls-76"
               points="4717.44,357.78 4717.44,287.92 4724.04,287.92 4743.89,334.31 4743.89,287.92 4752.02,287.92 4752.02,357.78 4745.79,357.78 4725.66,310.05 4725.66,357.78 " />
            <path
               id="svg_16-2"
               data-name="svg 16"
               class="cls-76"
               d="m 4779.39,358.53 c -2.89,0 -5.43,-0.39 -7.62,-1.18 -2.19,-0.78 -3.98,-1.87 -5.37,-3.21 -1.39,-1.33 -2.51,-3.01 -3.4,-5.03 -0.9,-2.01 -1.5,-4.11 -1.84,-6.34 -0.32,-2.2 -0.51,-4.69 -0.51,-7.46 v -24.7 c 0,-2.95 0.19,-5.58 0.54,-7.88 0.34,-2.31 0.96,-4.45 1.84,-6.45 0.88,-2 2.01,-3.64 3.4,-4.93 1.42,-1.28 3.19,-2.31 5.37,-3.02 2.19,-0.73 4.71,-1.11 7.6,-1.11 6.29,0 10.8,1.7 13.53,5.1 2.72,3.41 4.09,8.41 4.09,15 v 5.57 h -9.23 v -4.92 c 0,-1.08 -0.02,-1.91 -0.05,-2.52 0,-0.61 -0.05,-1.36 -0.06,-2.25 -0.05,-0.92 -0.15,-1.59 -0.24,-2.1 -0.13,-0.49 -0.26,-1.11 -0.45,-1.76 -0.19,-0.7 -0.4,-1.21 -0.69,-1.59 -0.27,-0.38 -0.64,-0.78 -1.07,-1.21 -0.4,-0.45 -0.9,-0.76 -1.44,-0.99 -0.51,-0.2 -1.15,-0.38 -1.88,-0.52 -0.75,-0.14 -1.55,-0.23 -2.44,-0.23 -1.34,0 -2.53,0.17 -3.53,0.45 -1.02,0.29 -1.87,0.75 -2.51,1.39 -0.64,0.64 -1.15,1.33 -1.58,2.09 -0.4,0.75 -0.7,1.72 -0.9,2.93 -0.19,1.19 -0.34,2.35 -0.4,3.46 -0.06,1.11 -0.11,2.47 -0.11,4.1 v 27.65 c 0,5.24 0.67,8.89 1.97,10.94 1.33,2.06 3.69,3.08 7.06,3.08 1.28,0 2.41,-0.15 3.34,-0.43 0.94,-0.26 1.71,-0.74 2.33,-1.39 0.59,-0.64 1.07,-1.31 1.44,-2.01 0.38,-0.7 0.64,-1.65 0.82,-2.84 0.17,-1.2 0.27,-2.3 0.3,-3.32 0.05,-1.01 0.08,-2.33 0.08,-3.96 v -5.14 h 9.23 v 5.2 c 0,2.66 -0.17,5.05 -0.51,7.15 -0.34,2.12 -0.92,4.09 -1.74,5.93 -0.81,1.84 -1.88,3.38 -3.19,4.58 -1.33,1.2 -3.02,2.14 -5.05,2.84 -2.06,0.7 -4.44,1.03 -7.13,1.03 z" />
            <rect
               id="svg_17-2"
               data-name="svg 17"
               class="cls-76"
               x="4805.7998"
               y="287.92001"
               width="9.5500002"
               height="69.870003" />
            <path
               id="svg_18-2"
               data-name="svg 18"
               class="cls-76"
               d="m 4821.77,357.78 14.92,-69.87 h 9.38 l 14.9,69.87 h -9.25 l -3.21,-17.62 h -14.2 l -3.34,17.62 z m 13.83,-24.55 h 11.67 l -5.86,-31.56 -5.8,31.56 z" />
          </g>
          <g
             id="svg_19-2"
             data-name="svg 19">
            <path
               id="svg_20-2"
               data-name="svg 20"
               class="cls-76"
               d="m 4696.48,466.77 14.92,-69.86 h 9.41 l 14.9,69.86 h -9.28 l -3.21,-17.61 h -14.2 l -3.32,17.61 h -9.23 v 0 z m 13.83,-24.56 h 11.65 l -5.85,-31.56 z" />
            <g
               id="svg_21-2"
               data-name="svg 21">
              <polygon
                 id="svg_22-2"
                 data-name="svg 22"
                 class="cls-76"
                 points="4602.95,434.15 4602.95,459.78 4620.47,459.78 4620.47,466.77 4593.21,466.77 4593.21,396.91 4620.28,396.91 4620.28,404.11 4602.95,404.11 4602.95,427.18 4617.02,427.18 4617.02,434.15 " />
              <path
                 id="svg_23-2"
                 data-name="svg 23"
                 class="cls-76"
                 d="m 4643.74,467.53 c -5.86,0 -10.35,-1.81 -13.43,-5.43 -3.06,-3.61 -4.79,-8.57 -5.16,-14.88 l 8.67,-2.37 c 0.64,10 3.91,15.01 9.89,15.01 2.51,0 4.41,-0.7 5.72,-2.09 1.31,-1.39 1.97,-3.42 1.97,-6.14 0,-1.47 -0.19,-2.84 -0.54,-4.08 -0.34,-1.24 -0.92,-2.41 -1.74,-3.53 -0.8,-1.13 -1.56,-2.06 -2.27,-2.81 -0.7,-0.75 -1.74,-1.74 -3.04,-2.97 l -11.74,-10.4 c -2.35,-2.14 -4.04,-4.39 -5.16,-6.77 -1.07,-2.38 -1.61,-5.27 -1.61,-8.69 0,-5.05 1.47,-8.99 4.39,-11.82 2.95,-2.83 6.96,-4.26 12.06,-4.32 5.59,-0.1 9.76,1.34 12.55,4.32 2.78,2.97 4.46,7.55 5.01,13.77 l -8.21,2.27 c -0.13,-1.52 -0.26,-2.87 -0.48,-4.04 -0.19,-1.17 -0.54,-2.38 -0.96,-3.56 -0.45,-1.2 -1.01,-2.16 -1.65,-2.91 -0.64,-0.75 -1.5,-1.33 -2.57,-1.77 -1.07,-0.43 -2.3,-0.61 -3.71,-0.51 -5.14,0.36 -7.71,2.91 -7.71,7.66 0,2.07 0.34,3.78 1.05,5.15 0.7,1.39 1.88,2.83 3.53,4.34 l 11.82,10.39 c 3.04,2.76 5.48,5.71 7.3,8.86 1.8,3.15 2.72,6.72 2.72,10.71 0,5.1 -1.55,9.14 -4.65,12.13 -3.06,3 -7.1,4.48 -12.07,4.48 v 0 z" />
              <polygon
                 id="svg_24-2"
                 data-name="svg 24"
                 class="cls-76"
                 points="4696.31,396.91 4696.31,404.11 4683.99,404.11 4683.99,466.77 4674.28,466.77 4674.28,404.11 4661.52,404.11 4661.52,396.91 " />
              <polygon
                 id="svg_25-2"
                 data-name="svg 25"
                 class="cls-76"
                 points="4768.2,396.91 4768.2,404.11 4755.88,404.11 4755.88,466.77 4746.14,466.77 4746.14,404.11 4733.38,404.11 4733.38,396.91 " />
              <path
                 id="svg_26-2"
                 data-name="svg 26"
                 class="cls-76"
                 d="m 4768.39,466.77 14.88,-69.86 h 9.39 l 14.92,69.86 h -9.28 l -3.21,-17.61 h -14.2 l -3.34,17.61 h -9.17 z m 13.8,-24.56 h 11.67 l -5.86,-31.56 -5.8,31.56 z" />
              <polygon
                 id="svg_27-2"
                 data-name="svg 27"
                 class="cls-76"
                 points="4823.37,396.91 4823.37,459.78 4841.21,459.78 4841.21,466.77 4813.63,466.77 4813.63,396.91 " />
              <path
                 id="svg_28"
                 data-name="svg 28"
                 class="cls-76"
                 d="m 4865.53,466.77 v -69.86 h 15.19 c 7.54,0 12.89,1.72 15.99,5.14 3.1,3.44 4.65,8.84 4.65,16.2 v 25.7 c 0,7.68 -1.55,13.41 -4.63,17.16 -3.07,3.78 -8.18,5.67 -15.3,5.67 h -15.9 z m 9.75,-6.98 h 5.48 c 1.47,0 2.81,-0.15 3.91,-0.45 1.15,-0.26 2.09,-0.65 2.87,-1.06 0.73,-0.39 1.39,-1.05 1.9,-1.95 0.51,-0.9 0.92,-1.74 1.15,-2.51 0.27,-0.75 0.49,-1.88 0.64,-3.37 0.13,-1.5 0.21,-2.76 0.24,-3.81 0.02,-1.07 0.05,-2.59 0.05,-4.58 v -22.7 c 0,-1.68 -0.05,-3.1 -0.08,-4.26 -0.06,-1.15 -0.17,-2.31 -0.32,-3.45 -0.19,-1.15 -0.43,-2.1 -0.75,-2.83 -0.34,-0.74 -0.8,-1.44 -1.33,-2.09 -0.51,-0.64 -1.18,-1.14 -1.97,-1.52 -0.8,-0.33 -1.71,-0.62 -2.78,-0.81 -1.07,-0.19 -2.32,-0.29 -3.77,-0.29 h -5.24 v 55.66 h 0.01 z" />
              <polygon
                 id="svg_29"
                 data-name="svg 29"
                 class="cls-76"
                 points="4919.7,434.15 4919.7,459.78 4937.24,459.78 4937.24,466.77 4909.97,466.77 4909.97,396.91 4937.03,396.91 4937.03,404.11 4919.7,404.11 4919.7,427.18 4933.77,427.18 4933.77,434.15 " />
            </g>
          </g>
          <g
             id="svg_30"
             data-name="svg 30">
            <rect
               id="svg_31"
               data-name="svg 31"
               class="cls-76"
               x="4593.21"
               y="506.10001"
               width="9.5500002"
               height="69.860001" />
            <polygon
               id="svg_32"
               data-name="svg 32"
               class="cls-76"
               points="4613.06,575.97 4613.06,506.1 4619.67,506.1 4639.54,552.49 4639.54,506.1 4647.67,506.1 4647.67,575.97 4641.43,575.97 4621.28,528.22 4621.28,575.97 " />
            <polygon
               id="svg_33"
               data-name="svg 33"
               class="cls-76"
               points="4678.24,575.97 4669.71,575.97 4654.12,506.1 4663.23,506.1 4674.25,557.55 4684.79,506.1 4693.67,506.1 " />
            <polygon
               id="svg_34"
               data-name="svg 34"
               class="cls-76"
               points="4709.88,543.36 4709.88,568.96 4727.42,568.96 4727.42,575.97 4700.14,575.97 4700.14,506.1 4727.21,506.1 4727.21,513.3 4709.88,513.3 4709.88,536.39 4723.95,536.39 4723.95,543.36 " />
            <path
               id="svg_35"
               data-name="svg 35"
               class="cls-76"
               d="m 4750.68,576.74 c -5.86,0 -10.32,-1.82 -13.4,-5.43 -3.08,-3.63 -4.82,-8.59 -5.18,-14.86 l 8.67,-2.37 c 0.64,9.99 3.92,14.98 9.92,14.98 2.51,0 4.39,-0.7 5.72,-2.07 1.31,-1.42 1.95,-3.44 1.95,-6.16 0,-1.47 -0.17,-2.85 -0.54,-4.08 -0.34,-1.22 -0.92,-2.41 -1.71,-3.53 -0.81,-1.12 -1.58,-2.07 -2.27,-2.82 -0.73,-0.71 -1.76,-1.72 -3.06,-2.96 l -11.71,-10.39 c -2.38,-2.13 -4.07,-4.38 -5.16,-6.78 -1.09,-2.38 -1.61,-5.27 -1.61,-8.69 0,-5.07 1.45,-8.99 4.36,-11.83 2.96,-2.82 6.98,-4.25 12.06,-4.3 5.59,-0.1 9.79,1.34 12.55,4.3 2.78,2.97 4.45,7.56 5.03,13.78 l -8.22,2.27 c -0.11,-1.52 -0.26,-2.87 -0.48,-4.04 -0.19,-1.18 -0.51,-2.38 -0.96,-3.54 -0.45,-1.2 -1.01,-2.18 -1.65,-2.93 -0.64,-0.74 -1.5,-1.33 -2.54,-1.77 -1.07,-0.43 -2.31,-0.61 -3.72,-0.51 -5.14,0.37 -7.71,2.93 -7.71,7.66 0,2.07 0.37,3.78 1.05,5.15 0.7,1.37 1.88,2.83 3.56,4.34 l 11.8,10.39 c 3.06,2.76 5.48,5.72 7.3,8.86 1.82,3.15 2.72,6.72 2.72,10.71 0,5.1 -1.56,9.17 -4.63,12.14 -3.12,2.98 -7.15,4.48 -12.13,4.48 v 0 z" />
            <polygon
               id="svg_36"
               data-name="svg 36"
               class="cls-76"
               points="4803.24,506.1 4803.24,513.3 4790.96,513.3 4790.96,575.97 4781.21,575.97 4781.21,513.3 4768.45,513.3 4768.45,506.1 " />
            <rect
               id="svg_37"
               data-name="svg 37"
               class="cls-76"
               x="4808.02"
               y="506.10001"
               width="9.5699997"
               height="69.860001" />
            <path
               id="svg_38"
               data-name="svg 38"
               class="cls-76"
               d="m 4844.53,576.81 c -6.34,0 -10.92,-2 -13.72,-6.02 -2.83,-4 -4.25,-9.93 -4.25,-17.75 v -23.38 c 0,-3.21 0.19,-6.03 0.54,-8.44 0.34,-2.41 0.96,-4.65 1.82,-6.68 0.86,-2.07 2.01,-3.72 3.4,-5.03 1.42,-1.27 3.19,-2.3 5.33,-3.01 2.16,-0.69 4.71,-1.06 7.62,-1.06 6.47,0 11.13,1.63 13.96,4.92 2.83,3.27 4.25,8.44 4.25,15.51 v 2.57 h -9.14 v -2.19 c 0,-1.99 -0.06,-3.59 -0.17,-4.86 -0.11,-1.28 -0.34,-2.51 -0.69,-3.65 -0.37,-1.15 -0.86,-2.06 -1.52,-2.68 -0.69,-0.63 -1.55,-1.12 -2.62,-1.51 -1.05,-0.36 -2.38,-0.54 -3.94,-0.54 -1.22,0 -2.27,0.13 -3.19,0.38 -0.94,0.27 -1.74,0.62 -2.38,1.05 -0.64,0.45 -1.18,1.06 -1.63,1.82 -0.43,0.77 -0.77,1.55 -1.02,2.27 -0.24,0.75 -0.45,1.71 -0.59,2.88 -0.13,1.17 -0.21,2.21 -0.24,3.18 -0.02,0.95 -0.05,2.14 -0.05,3.59 v 25.85 c 0,5.35 0.64,9.19 1.93,11.53 1.31,2.33 3.77,3.5 7.43,3.5 3.66,0 6.17,-1.25 7.52,-3.79 1.33,-2.53 2.01,-6.59 2.01,-12.18 v -4.89 h -8.85 v -6.92 h 17.67 v 34.64 h -6.17 l -0.92,-8.04 c -2.09,5.97 -6.22,8.93 -12.39,8.93 z" />
            <path
               id="svg_39"
               data-name="svg 39"
               class="cls-76"
               d="m 4869.17,575.97 14.9,-69.86 h 9.39 l 14.9,69.86 h -9.28 l -3.21,-17.6 h -14.2 l -3.34,17.6 h -9.17 z m 13.81,-24.56 h 11.65 l -5.85,-31.56 z" />
            <path
               id="svg_40"
               data-name="svg 40"
               class="cls-76"
               d="m 4931.87,576.74 c -2.91,0 -5.43,-0.39 -7.62,-1.19 -2.19,-0.78 -3.98,-1.86 -5.37,-3.2 -1.39,-1.34 -2.52,-3.02 -3.4,-5.03 -0.9,-2.01 -1.5,-4.13 -1.84,-6.34 -0.34,-2.22 -0.49,-4.71 -0.49,-7.47 v -24.69 c 0,-2.96 0.17,-5.58 0.51,-7.87 0.37,-2.32 0.96,-4.46 1.84,-6.47 0.86,-1.99 2,-3.64 3.4,-4.92 1.39,-1.28 3.19,-2.31 5.37,-3.03 2.19,-0.71 4.71,-1.09 7.6,-1.09 6.29,0 10.8,1.68 13.51,5.1 2.72,3.41 4.09,8.41 4.09,14.99 v 5.55 h -9.23 v -4.92 c 0,-1.07 0,-1.9 -0.02,-2.52 0,-0.59 -0.05,-1.34 -0.08,-2.25 -0.05,-0.89 -0.11,-1.61 -0.24,-2.1 -0.11,-0.5 -0.24,-1.08 -0.43,-1.77 -0.19,-0.68 -0.43,-1.2 -0.69,-1.58 -0.27,-0.38 -0.64,-0.78 -1.05,-1.21 -0.43,-0.44 -0.9,-0.76 -1.45,-0.98 -0.54,-0.21 -1.15,-0.38 -1.9,-0.54 -0.7,-0.13 -1.55,-0.21 -2.41,-0.21 -1.37,0 -2.54,0.15 -3.56,0.45 -1.01,0.29 -1.84,0.75 -2.49,1.39 -0.64,0.63 -1.18,1.32 -1.58,2.08 -0.43,0.75 -0.7,1.74 -0.9,2.94 -0.21,1.19 -0.34,2.35 -0.4,3.45 -0.06,1.12 -0.11,2.49 -0.11,4.11 v 27.65 c 0,5.24 0.67,8.91 1.99,10.94 1.31,2.07 3.66,3.07 7.04,3.07 1.28,0 2.4,-0.14 3.34,-0.42 0.94,-0.28 1.71,-0.75 2.31,-1.39 0.62,-0.64 1.12,-1.32 1.47,-2.01 0.34,-0.71 0.62,-1.66 0.77,-2.85 0.19,-1.19 0.27,-2.31 0.32,-3.32 0.05,-1.02 0.06,-2.33 0.06,-3.96 v -5.14 h 9.23 v 5.18 c 0,2.68 -0.17,5.05 -0.51,7.15 -0.32,2.1 -0.9,4.09 -1.71,5.93 -0.81,1.83 -1.88,3.37 -3.19,4.57 -1.33,1.21 -3.02,2.16 -5.08,2.84 -2.02,0.7 -4.4,1.07 -7.1,1.07 v 0 z" />
            <rect
               id="svg_41"
               data-name="svg 41"
               class="cls-76"
               x="4958.27"
               y="506.10001"
               width="9.5699997"
               height="69.860001" />
            <path
               id="svg_42"
               data-name="svg 42"
               class="cls-76"
               d="m 4995.92,576.74 c -3.5,0 -6.47,-0.54 -8.98,-1.58 -2.46,-1.03 -4.44,-2.54 -5.91,-4.58 -1.46,-2.02 -2.53,-4.38 -3.19,-7.08 -0.69,-2.7 -1.01,-5.85 -1.01,-9.43 V 527.6 c 0,-7.28 1.47,-12.8 4.44,-16.54 2.96,-3.75 7.86,-5.62 14.65,-5.62 6.79,0 11.65,1.88 14.63,5.66 2.95,3.78 4.45,9.29 4.45,16.49 v 26.51 c 0,7.27 -1.5,12.87 -4.47,16.75 -3,3.91 -7.86,5.89 -14.6,5.89 z m -4.76,-8.53 c 1.24,0.58 2.84,0.88 4.76,0.88 1.92,0 3.48,-0.3 4.73,-0.88 1.26,-0.59 2.2,-1.49 2.85,-2.7 0.67,-1.22 1.09,-2.52 1.33,-3.98 0.24,-1.46 0.37,-3.23 0.37,-5.36 v -30.58 c 0,-2.1 -0.13,-3.88 -0.37,-5.27 -0.24,-1.4 -0.69,-2.7 -1.33,-3.88 -0.64,-1.18 -1.58,-2.03 -2.85,-2.59 -1.24,-0.54 -2.83,-0.81 -4.73,-0.81 -1.9,0 -3.5,0.27 -4.76,0.81 -1.24,0.56 -2.19,1.42 -2.85,2.59 -0.64,1.18 -1.09,2.49 -1.31,3.88 -0.26,1.42 -0.37,3.16 -0.37,5.27 v 30.58 c 0,2.13 0.11,3.91 0.37,5.36 0.21,1.45 0.69,2.76 1.31,3.98 0.67,1.22 1.61,2.12 2.85,2.7 z m 2.38,-67.92 5.11,-17.08 h 9.23 l -9.66,17.08 h -4.69 z" />
            <polygon
               id="svg_43"
               data-name="svg 43"
               class="cls-76"
               points="5023.62,575.97 5023.62,506.1 5030.23,506.1 5050.08,552.49 5050.08,506.1 5058.2,506.1 5058.2,575.97 5051.97,575.97 5031.82,528.22 5031.82,575.97 " />
          </g>
        </g>
      </g>
    </g>
  </g>
</svg>
