<?xml version="1.0" encoding="UTF-8" standalone="no"?>
<svg
   id="Capa_1"
   viewBox="0 0 504.85037 188.97638"
   version="1.1"
   sodipodi:docname="research_mad.svg"
   inkscape:export-filename="Cofinanciado_.png"
   inkscape:export-xdpi="96"
   inkscape:export-ydpi="96"
   inkscape:version="1.4.4 (dcaf3e7d9e, 2026-05-05)"
   width="133.575mm"
   height="50mm"
   xmlns:inkscape="http://www.inkscape.org/namespaces/inkscape"
   xmlns:sodipodi="http://sodipodi.sourceforge.net/DTD/sodipodi-0.dtd"
   xmlns:xlink="http://www.w3.org/1999/xlink"
   xmlns="http://www.w3.org/2000/svg"
   xmlns:svg="http://www.w3.org/2000/svg">
  <sodipodi:namedview
     id="namedview42"
     pagecolor="#ffffff"
     bordercolor="#000000"
     borderopacity="0.25"
     inkscape:showpageshadow="2"
     inkscape:pageopacity="0.0"
     inkscape:pagecheckerboard="0"
     inkscape:deskcolor="#d1d1d1"
     inkscape:zoom="0.43044812"
     inkscape:cx="1074.4617"
     inkscape:cy="435.59256"
     inkscape:window-width="3006"
     inkscape:window-height="1211"
     inkscape:window-x="66"
     inkscape:window-y="32"
     inkscape:window-maximized="1"
     inkscape:current-layer="Capa_1"
     inkscape:document-units="mm" />
  <defs
     id="defs1">
    <style
       id="style1">
      .cls-1 {
        fill: #fff200;
      }

      .cls-2 {
        fill: #fff;
      }

      .cls-3 {
        fill-rule: evenodd;
      }

      .cls-3, .cls-4 {
        fill: #034ea2;
      }
    </style>
    <clipPath
       id="SVGID_2_">
      <use
         xlink:href="#SVGID_1_"
         style="overflow:visible"
         id="use9" />
    </clipPath>
    <clipPath
       id="clipPath1">
      <use
         xlink:href="#SVGID_1_"
         style="overflow:visible"
         id="use1" />
    </clipPath>
    <clipPath
       id="SVGID_4_">
      <use
         xlink:href="#SVGID_3_"
         style="overflow:visible"
         id="use36" />
    </clipPath>
    <clipPath
       id="clipPath2">
      <use
         xlink:href="#SVGID_3_"
         style="overflow:visible"
         id="use2" />
    </clipPath>
    <clipPath
       id="clipPath3">
      <use
         xlink:href="#SVGID_3_"
         style="overflow:visible"
         id="use3" />
    </clipPath>
    <clipPath
       id="clipPath4">
      <use
         xlink:href="#SVGID_3_"
         style="overflow:visible"
         id="use4" />
    </clipPath>
    <clipPath
       id="clipPath5">
      <use
         xlink:href="#SVGID_3_"
         style="overflow:visible"
         id="use5" />
    </clipPath>
    <clipPath
       id="clipPath6">
      <use
         xlink:href="#SVGID_3_"
         style="overflow:visible"
         id="use6" />
    </clipPath>
    <clipPath
       id="clipPath7">
      <use
         xlink:href="#SVGID_3_"
         style="overflow:visible"
         id="use7" />
    </clipPath>
    <clipPath
       id="SVGID_6_">
      <use
         xlink:href="#SVGID_5_"
         style="overflow:visible"
         id="use103" />
    </clipPath>
    <clipPath
       id="SVGID_8_">
      <use
         xlink:href="#SVGID_7_"
         style="overflow:visible"
         id="use155" />
    </clipPath>
    <clipPath
       id="clipPath8">
      <use
         xlink:href="#SVGID_7_"
         style="overflow:visible"
         id="use8" />
    </clipPath>
    <clipPath
       id="clipPath10">
      <use
         xlink:href="#SVGID_7_"
         style="overflow:visible"
         id="use10" />
    </clipPath>
    <clipPath
       id="clipPath11">
      <use
         xlink:href="#SVGID_7_"
         style="overflow:visible"
         id="use11" />
    </clipPath>
    <clipPath
       id="clipPath12">
      <use
         xlink:href="#SVGID_7_"
         style="overflow:visible"
         id="use12" />
    </clipPath>
    <clipPath
       id="clipPath13">
      <use
         xlink:href="#SVGID_7_"
         style="overflow:visible"
         id="use13" />
    </clipPath>
    <clipPath
       id="clipPath14">
      <use
         xlink:href="#SVGID_7_"
         style="overflow:visible"
         id="use14" />
    </clipPath>
    <clipPath
       id="SVGID_10_">
      <use
         xlink:href="#SVGID_9_"
         style="overflow:visible"
         id="use193" />
    </clipPath>
    <clipPath
       id="clipPath15">
      <use
         xlink:href="#SVGID_9_"
         style="overflow:visible"
         id="use15" />
    </clipPath>
    <clipPath
       id="SVGID_12_">
      <use
         xlink:href="#SVGID_11_"
         style="overflow:visible"
         id="use226" />
    </clipPath>
    <clipPath
       id="SVGID_14_">
      <use
         xlink:href="#SVGID_13_"
         style="overflow:visible"
         id="use249" />
    </clipPath>
    <clipPath
       id="clipPath16">
      <use
         xlink:href="#SVGID_13_"
         style="overflow:visible"
         id="use16" />
    </clipPath>
    <clipPath
       id="clipPath17">
      <use
         xlink:href="#SVGID_13_"
         style="overflow:visible"
         id="use17" />
    </clipPath>
    <clipPath
       id="clipPath18">
      <use
         xlink:href="#SVGID_13_"
         style="overflow:visible"
         id="use18" />
    </clipPath>
    <clipPath
       id="clipPath19">
      <use
         xlink:href="#SVGID_13_"
         style="overflow:visible"
         id="use19" />
    </clipPath>
    <clipPath
       id="clipPath20">
      <use
         xlink:href="#SVGID_13_"
         style="overflow:visible"
         id="use20" />
    </clipPath>
    <clipPath
       id="clipPath21">
      <use
         xlink:href="#SVGID_13_"
         style="overflow:visible"
         id="use21" />
    </clipPath>
    <clipPath
       id="clipPath22">
      <use
         xlink:href="#SVGID_13_"
         style="overflow:visible"
         id="use22" />
    </clipPath>
    <clipPath
       id="clipPath23">
      <use
         xlink:href="#SVGID_13_"
         style="overflow:visible"
         id="use23" />
    </clipPath>
    <clipPath
       id="clipPath24">
      <use
         xlink:href="#SVGID_13_"
         style="overflow:visible"
         id="use24" />
    </clipPath>
    <clipPath
       id="clipPath25">
      <use
         xlink:href="#SVGID_13_"
         style="overflow:visible"
         id="use25" />
    </clipPath>
    <clipPath
       id="clipPath26">
      <use
         xlink:href="#SVGID_13_"
         style="overflow:visible"
         id="use26" />
    </clipPath>
    <clipPath
       id="clipPath27">
      <use
         xlink:href="#SVGID_13_"
         style="overflow:visible"
         id="use27" />
    </clipPath>
    <clipPath
       id="clipPath28">
      <use
         xlink:href="#SVGID_13_"
         style="overflow:visible"
         id="use28" />
    </clipPath>
    <clipPath
       id="clipPath29">
      <use
         xlink:href="#SVGID_13_"
         style="overflow:visible"
         id="use29" />
    </clipPath>
    <clipPath
       id="clipPath30">
      <use
         xlink:href="#SVGID_13_"
         style="overflow:visible"
         id="use30" />
    </clipPath>
    <clipPath
       id="clipPath31">
      <use
         xlink:href="#SVGID_13_"
         style="overflow:visible"
         id="use31" />
    </clipPath>
    <clipPath
       id="clipPath32">
      <use
         xlink:href="#SVGID_13_"
         style="overflow:visible"
         id="use32" />
    </clipPath>
    <clipPath
       id="SVGID_16_">
      <use
         xlink:href="#SVGID_15_"
         style="overflow:visible"
         id="use351" />
    </clipPath>
    <clipPath
       id="clipPath33">
      <use
         xlink:href="#SVGID_15_"
         style="overflow:visible"
         id="use33" />
    </clipPath>
    <clipPath
       id="SVGID_18_">
      <use
         xlink:href="#SVGID_17_"
         style="overflow:visible"
         id="use354" />
    </clipPath>
    <clipPath
       id="clipPath34">
      <use
         xlink:href="#SVGID_17_"
         style="overflow:visible"
         id="use34" />
    </clipPath>
    <clipPath
       id="SVGID_20_">
      <use
         xlink:href="#SVGID_19_"
         style="overflow:visible"
         id="use362" />
    </clipPath>
    <clipPath
       id="clipPath35">
      <use
         xlink:href="#SVGID_19_"
         style="overflow:visible"
         id="use35" />
    </clipPath>
    <clipPath
       id="clipPath37">
      <use
         xlink:href="#SVGID_19_"
         style="overflow:visible"
         id="use37" />
    </clipPath>
    <clipPath
       id="clipPath38">
      <use
         xlink:href="#SVGID_19_"
         style="overflow:visible"
         id="use38" />
    </clipPath>
    <clipPath
       id="clipPath39">
      <use
         xlink:href="#SVGID_19_"
         style="overflow:visible"
         id="use39" />
    </clipPath>
    <clipPath
       id="clipPath40">
      <use
         xlink:href="#SVGID_19_"
         style="overflow:visible"
         id="use40" />
    </clipPath>
    <clipPath
       id="clipPath41">
      <use
         xlink:href="#SVGID_19_"
         style="overflow:visible"
         id="use41" />
    </clipPath>
    <clipPath
       id="clipPath42">
      <use
         xlink:href="#SVGID_19_"
         style="overflow:visible"
         id="use42" />
    </clipPath>
    <clipPath
       id="clipPath43">
      <use
         xlink:href="#SVGID_19_"
         style="overflow:visible"
         id="use43" />
    </clipPath>
    <clipPath
       id="clipPath44">
      <use
         xlink:href="#SVGID_19_"
         style="overflow:visible"
         id="use44" />
    </clipPath>
    <path
       id="SVGID_1_"
       d="m 304.5,182.3 c 0,-0.9 0.7,-1.7 1.7,-1.7 0.9,0 1.7,0.7 1.7,1.7 0,0.9 -0.7,1.7 -1.7,1.7 -0.9,0 -1.7,-0.8 -1.7,-1.7" />
    <path
       id="SVGID_3_"
       d="m 306.2,207.2 c -4.4,0 -8.3,-0.4 -11.3,-1.2 3,-0.8 7,-1.3 11.3,-1.3 4.4,0 8.3,0.5 11.3,1.3 -3,0.8 -6.9,1.2 -11.3,1.2" />
    <rect
       id="SVGID_5_"
       x="291.60001"
       y="230.89999"
       width="29.200001"
       height="150.89999" />
    <path
       id="SVGID_7_"
       d="m 573.9,207.2 c -4.4,0 -8.3,-0.4 -11.3,-1.2 3,-0.8 7,-1.3 11.3,-1.3 4.4,0 8.3,0.5 11.3,1.3 -3,0.8 -7,1.2 -11.3,1.2" />
    <path
       id="SVGID_9_"
       d="m 572.2,184 c 0,-0.9 0.7,-1.7 1.7,-1.7 0.9,0 1.7,0.7 1.7,1.7 0,0.9 -0.7,1.7 -1.7,1.7 -0.9,0 -1.7,-0.8 -1.7,-1.7" />
    <rect
       id="SVGID_11_"
       x="559.40002"
       y="230.89999"
       width="29.200001"
       height="150.89999" />
    <path
       id="SVGID_13_"
       d="m 439.8,204.2 c -19.9,0 -37.8,-2.4 -51.5,-6.2 13.7,-3.7 31.6,-6 51.5,-6.1 19.9,0 37.9,2.3 51.6,6.1 -13.7,3.7 -31.7,6.1 -51.6,6.2" />
    <path
       id="SVGID_15_"
       d="m 431.7,95.6 c 0,-4.4 3.6,-8 8,-8 4.4,0 7.9,3.6 7.9,8 0,4.4 -3.6,7.9 -7.9,7.9 -4.4,0.1 -8,-3.5 -8,-7.9" />
    <path
       id="SVGID_17_"
       d="m 431.7,95.6 c 0,-4.4 3.6,-8 8,-8 4.4,0 7.9,3.6 7.9,8 0,4.4 -3.6,7.9 -7.9,7.9 -4.4,0.1 -8,-3.5 -8,-7.9" />
    <path
       id="SVGID_19_"
       d="m 440.2,374.7 c 0,24.9 -20,45.1 -44.9,45.1 -24.9,0 -45.1,-20.2 -45.1,-45.1 v -63.2 h 90.1 v 63.2 z" />
  </defs>
  <g
     id="g67"
     transform="translate(-1695.2504)">
    <g
       id="g66">
      <rect
         style="fill:#000000;stroke:none;stroke-width:0.0408525;stroke-dasharray:none"
         id="rect66"
         width="418.23648"
         height="188.97638"
         x="1781.8639"
         y="-2.8421709e-14" />
      <g
         id="g97"
         transform="matrix(0.44685831,0,0,0.44685831,1673.3548,-21.940741)">
        <path
           id="rect79"
           style="fill:#de0029"
           class="st0"
           d="M 49,49.099998 H 471.89999 V 471.99999 H 49 Z" />
        <g
           id="g95">
          <path
             id="polygon81"
             style="fill:#ffffff"
             class="st1"
             d="m 106.5,260.8 22,-16 22.4,15.7 -8.6,-26.1 22.4,-16.6 -27.5,0.4 -8.7,-26.7 -8.5,26.7 -28,0.3 22.7,16.2 z" />
          <path
             id="polygon83"
             style="fill:#ffffff"
             class="st1"
             d="m 194.6,260.8 22,-16 22.3,15.7 -8.5,-26.1 22.4,-16.6 -27.6,0.4 -8.6,-26.7 -8.5,26.7 -28,0.3 22.7,16.2 z" />
          <path
             id="polygon85"
             style="fill:#ffffff"
             class="st1"
             d="m 283,260.8 22,-16 22.4,15.7 -8.6,-26.1 22.4,-16.6 -27.4,0.4 -8.8,-26.7 -8.5,26.7 -28,0.3 22.7,16.2 z" />
          <path
             id="polygon87"
             style="fill:#ffffff"
             class="st1"
             d="m 238.5,321.6 22,-16 22.4,15.7 -8.5,-26.1 22.3,-16.5 -27.5,0.3 -8.7,-26.7 -8.5,26.7 -28,0.3 22.7,16.2 z" />
          <path
             id="polygon89"
             style="fill:#ffffff"
             class="st1"
             d="m 150.3,321.6 22,-16 22.3,15.7 -8.5,-26.1 22.3,-16.5 -27.4,0.3 -8.7,-26.7 -8.5,26.7 -28,0.3 22.7,16.2 z" />
          <path
             id="polygon91"
             style="fill:#ffffff"
             class="st1"
             d="m 327.1,321.6 22,-16 22.4,15.7 -8.6,-26.1 22.4,-16.5 -27.4,0.3 -8.8,-26.7 -8.5,26.7 -28,0.3 22.7,16.2 z" />
          <path
             id="polygon93"
             style="fill:#ffffff"
             class="st1"
             d="m 371.4,260.8 22,-16 22.3,15.7 -8.5,-26.1 22.3,-16.6 -27.4,0.4 -8.7,-26.7 -8.6,26.7 -27.9,0.3 22.7,16.2 z" />
        </g>
      </g>
      <g
         id="g133"
         transform="matrix(0.57537244,0,0,0.57537244,1891.4149,-230.08598)"
         style="fill:#ffffff;stroke:none;stroke-width:1.83966;stroke-dasharray:none">
        <path
           class="st2"
           d="m 81.4,519 c -0.3,-1.9 -1.8,-7.8 -8.5,-7.8 -7.6,0 -10.1,7.4 -10.1,14.5 0,7.1 2.4,14.5 10.1,14.5 5.5,0 7.6,-3.8 8.6,-8.8 h 16 c 0,10.6 -8.6,22 -24.1,22 -17.1,0 -26.8,-12 -26.8,-27.6 0,-16.6 10.5,-27.6 26.8,-27.6 14.5,0.1 22.5,7.7 23.9,20.9 H 81.4 Z"
           id="path99-2"
           inkscape:connector-curvature="0"
           style="fill:#ffffff;stroke:none;stroke-width:1.83966;stroke-dasharray:none" />
        <path
           class="st2"
           d="m 123.3,553.1 c -14.4,0 -20.9,-9.5 -20.9,-20.2 0,-10.7 6.5,-20.1 20.9,-20.1 14.4,0 20.9,9.5 20.9,20.1 0,10.6 -6.5,20.2 -20.9,20.2 m 0,-29.7 c -5.5,0 -6.3,5.4 -6.3,9.5 0,4.1 0.7,9.5 6.3,9.5 5.5,0 6.3,-5.5 6.3,-9.5 0,-4.1 -0.8,-9.5 -6.3,-9.5"
           id="path101-9"
           inkscape:connector-curvature="0"
           style="fill:#ffffff;stroke:none;stroke-width:1.83966;stroke-dasharray:none" />
        <path
           class="st2"
           d="m 150.5,513.7 h 14.1 v 5.1 h 0.1 c 3,-4.4 7.2,-6.1 12.6,-6.1 4.1,0 8.6,2.1 10.3,6 0.6,-0.4 3.5,-6 13.1,-6 9.8,0 13.2,6.8 13.2,13 V 552 h -14.6 v -20.8 c 0,-3.6 -0.4,-6.9 -4.8,-6.9 -3.7,0 -5,2.9 -5,6.9 V 552 h -14.6 v -20.8 c 0,-3.6 -0.4,-6.9 -4.8,-6.9 -3.7,0 -5,2.9 -5,6.9 V 552 h -14.6 z"
           id="path103-3"
           inkscape:connector-curvature="0"
           style="fill:#ffffff;stroke:none;stroke-width:1.83966;stroke-dasharray:none" />
        <path
           class="st2"
           d="m 261.6,552.1 h -14.1 v -4.9 h -0.1 c -2.7,3.8 -6.6,5.8 -12.5,5.8 -6.9,0 -13.2,-4.2 -13.2,-13 v -26.3 h 14.6 v 20.1 c 0,4.4 0.5,7.5 4.8,7.5 2.5,0 5.8,-1.3 5.8,-7.4 v -20.2 h 14.6 v 38.4 z"
           id="path105-1"
           inkscape:connector-curvature="0"
           style="fill:#ffffff;stroke:none;stroke-width:1.83966;stroke-dasharray:none" />
        <path
           class="st2"
           d="m 269.6,513.7 h 14.1 v 4.9 h 0.1 c 2.7,-3.8 6.7,-5.8 12.5,-5.8 6.9,0 13.2,4.2 13.2,13 v 26.3 H 294.9 V 532 c 0,-4.4 -0.5,-7.5 -4.8,-7.5 -2.5,0 -5.8,1.3 -5.8,7.4 v 20.2 h -14.6 v -38.4 z"
           id="path107-9"
           inkscape:connector-curvature="0"
           style="fill:#ffffff;stroke:none;stroke-width:1.83966;stroke-dasharray:none" />
        <path
           class="st2"
           d="m 332.4,509.6 h -14.6 v -10.3 h 14.6 z m -14.6,4.2 h 14.6 v 38.4 h -14.6 z"
           id="path109-4"
           inkscape:connector-curvature="0"
           style="fill:#ffffff;stroke:none;stroke-width:1.83966;stroke-dasharray:none" />
        <path
           class="st2"
           d="m 380.7,552.1 h -14.1 v -4.2 h -0.1 c -1.9,2.4 -4.1,5.2 -11.2,5.2 -10.9,0 -16.1,-10.7 -16.1,-20.3 0,-9 3.5,-20 16.3,-20 4.4,0 8.3,1.9 10.5,5.2 h 0.1 v -18.6 h 14.6 z m -20.6,-28.7 c -5.2,0 -6.4,4.9 -6.4,9.5 0,4.6 1.2,9.5 6.4,9.5 5.2,0 6.4,-5 6.4,-9.5 0.1,-4.5 -1.1,-9.5 -6.4,-9.5"
           id="path111-7"
           inkscape:connector-curvature="0"
           style="fill:#ffffff;stroke:none;stroke-width:1.83966;stroke-dasharray:none" />
        <path
           class="st2"
           d="m 426.1,543.5 c 0,2.9 0.1,6.1 1.8,8.6 H 413 c -0.4,-1 -0.6,-2.6 -0.5,-3.6 h -0.1 c -3.1,3.5 -7.6,4.6 -12.3,4.6 -7.4,0 -13.5,-3.5 -13.5,-11.6 0,-12.1 14.2,-11.7 21.7,-13.1 2,-0.4 4,-1 4,-3.4 0,-2.6 -2.4,-3.6 -4.8,-3.6 -4.5,0 -5.4,2.3 -5.5,3.9 h -13.6 c 0.4,-10.8 10.6,-12.6 19.7,-12.6 18.3,0 18.2,7.6 18.2,15 v 15.8 z M 412,534.9 c -1.8,0.9 -3.8,1.4 -5.8,1.9 -3.3,0.7 -5,1.6 -5,4.1 0,1.8 1.9,3.5 4.6,3.5 3.3,0 5.9,-2 6.1,-6 v -3.5 z"
           id="path113-8"
           inkscape:connector-curvature="0"
           style="fill:#ffffff;stroke:none;stroke-width:1.83966;stroke-dasharray:none" />
        <path
           class="st2"
           d="m 473.8,552.1 h -14.1 v -4.2 h -0.1 c -1.9,2.4 -4.1,5.2 -11.2,5.2 -10.9,0 -16.1,-10.7 -16.1,-20.3 0,-9 3.5,-20 16.3,-20 4.4,0 8.3,1.9 10.5,5.2 h 0.1 v -18.6 h 14.6 z m -20.6,-28.7 c -5.2,0 -6.4,4.9 -6.4,9.5 0,4.6 1.2,9.5 6.4,9.5 5.2,0 6.4,-5 6.4,-9.5 0,-4.5 -1.2,-9.5 -6.4,-9.5"
           id="path115-4"
           inkscape:connector-curvature="0"
           style="fill:#ffffff;stroke:none;stroke-width:1.83966;stroke-dasharray:none" />
        <path
           class="st2"
           d="M 93,625.6 H 77.2 v -4.7 H 77 c -2.1,2.7 -4.5,5.8 -12.6,5.8 -12.2,0 -18,-12 -18,-22.7 0,-10.1 3.9,-22.3 18.3,-22.3 4.9,0 9.3,2.2 11.7,5.8 h 0.2 V 566.7 H 93 Z M 70,593.5 c -5.9,0 -7.2,5.5 -7.2,10.6 0,5.1 1.3,10.7 7.2,10.7 5.9,0 7.2,-5.5 7.2,-10.7 0,-5 -1.3,-10.6 -7.2,-10.6"
           id="path117-5"
           inkscape:connector-curvature="0"
           style="fill:#ffffff;stroke:none;stroke-width:1.83966;stroke-dasharray:none" />
        <path
           class="st2"
           d="m 115.8,607.8 c 0.4,4.9 3.2,8.4 8.3,8.4 2.7,0 5.5,-1 6.9,-3.1 h 15.3 c -3.3,9.3 -12.3,13.6 -22.1,13.6 -13.7,0 -24.1,-8.1 -24.1,-22.4 0,-12.5 9.1,-22.7 22.7,-22.7 17,0 24.4,9.5 24.4,26.2 z m 15.7,-8.5 c 0,-4 -3,-7.2 -7.2,-7.2 -4.9,0 -7.7,2.6 -8.4,7.2 z"
           id="path119-0"
           inkscape:connector-curvature="0"
           style="fill:#ffffff;stroke:none;stroke-width:1.83966;stroke-dasharray:none" />
        <path
           id="polygon121"
           style="fill:#ffffff;stroke:none"
           class="st2"
           d="m 250.6,625.6 h -17.2 v -37.9 h -0.1 L 223,625.6 H 209.4 L 199.2,587.7 H 199 v 37.9 h -17.2 v -59 h 25.9 l 8.4,34.7 h 0.2 l 8.4,-34.7 h 25.9 z" />
        <path
           class="st2"
           d="m 301.6,616 c 0,3.2 0.2,6.9 2,9.6 h -16.7 c -0.4,-1.2 -0.7,-2.9 -0.6,-4 h -0.2 c -3.5,4 -8.5,5.1 -13.8,5.1 -8.3,0 -15.1,-4 -15.1,-13 0,-13.6 15.9,-13.1 24.2,-14.6 2.2,-0.4 4.5,-1.1 4.5,-3.8 0,-2.9 -2.7,-4 -5.4,-4 -5,0 -6,2.6 -6.1,4.4 h -15.2 c 0.5,-12.1 11.9,-14.1 22.1,-14.1 20.5,0 20.3,8.5 20.3,16.8 z m -15.7,-9.6 c -2,1 -4.2,1.6 -6.5,2.1 -3.6,0.8 -5.5,1.7 -5.5,4.6 0,2 2.1,4 5.1,4 3.7,0 6.6,-2.2 6.9,-6.7 z"
           id="path123-3"
           inkscape:connector-curvature="0"
           style="fill:#ffffff;stroke:none;stroke-width:1.83966;stroke-dasharray:none" />
        <path
           class="st2"
           d="m 354.9,625.6 h -15.8 v -4.7 h -0.2 c -2.1,2.7 -4.5,5.8 -12.6,5.8 -12.2,0 -18,-12 -18,-22.7 0,-10.1 3.9,-22.3 18.3,-22.3 4.9,0 9.3,2.2 11.7,5.8 h 0.2 v -20.8 h 16.4 z m -23,-32.1 c -5.9,0 -7.2,5.5 -7.2,10.6 0,5.1 1.3,10.7 7.2,10.7 5.9,0 7.2,-5.5 7.2,-10.7 0,-5 -1.3,-10.6 -7.2,-10.6"
           id="path125-6"
           inkscape:connector-curvature="0"
           style="fill:#ffffff;stroke:none;stroke-width:1.83966;stroke-dasharray:none" />
        <path
           class="st2"
           d="m 363.8,582.7 h 15.7 v 6.9 h 0.2 c 2.6,-5.1 6.1,-7.9 12.1,-7.9 1.7,0 3.2,0.2 4.8,0.7 v 14.5 c -1.7,-0.6 -3.1,-1.1 -6.5,-1.1 -6.4,0 -9.9,3.8 -9.9,13 v 17 h -16.4 z"
           id="path127-1"
           inkscape:connector-curvature="0"
           style="fill:#ffffff;stroke:none;stroke-width:1.83966;stroke-dasharray:none" />
        <path
           class="st2"
           d="m 417.3,578.1 h -16.4 v -11.5 h 16.4 z m -16.4,4.6 h 16.4 v 42.9 h -16.4 z"
           id="path129-0"
           inkscape:connector-curvature="0"
           style="fill:#ffffff;stroke:none;stroke-width:1.83966;stroke-dasharray:none" />
        <path
           class="st2"
           d="m 471.3,625.6 h -15.8 v -4.7 h -0.2 c -2.1,2.7 -4.5,5.8 -12.6,5.8 -12.2,0 -18,-12 -18,-22.7 0,-10.1 3.9,-22.3 18.3,-22.3 4.9,0 9.3,2.2 11.7,5.8 h 0.2 v -20.8 h 16.4 z m -23,-32.1 c -5.9,0 -7.2,5.5 -7.2,10.6 0,5.1 1.3,10.7 7.2,10.7 5.9,0 7.2,-5.5 7.2,-10.7 0,-5 -1.4,-10.6 -7.2,-10.6"
           id="path131-6"
           inkscape:connector-curvature="0"
           style="fill:#ffffff;stroke:none;stroke-width:1.83966;stroke-dasharray:none" />
      </g>
    </g>
  </g>
</svg>
